<?xml version="1.0" encoding="UTF-8"?><svg id="Capa_2" xmlns="http://www.w3.org/2000/svg" xmlns:xlink="http://www.w3.org/1999/xlink" viewBox="0 0 133.99 143.63"><defs><style>.cls-1{fill:none;}.cls-2{clip-path:url(#clippath);}.cls-3{fill:#6a6b31;}.cls-4{fill:#9a6634;}.cls-5{fill:#ab9a54;}.cls-6{clip-path:url(#clippath-1);}.cls-7{clip-path:url(#clippath-4);}.cls-8{clip-path:url(#clippath-3);}.cls-9{clip-path:url(#clippath-2);}.cls-10{clip-path:url(#clippath-7);}.cls-11{clip-path:url(#clippath-8);}.cls-12{clip-path:url(#clippath-6);}.cls-13{clip-path:url(#clippath-5);}</style><clipPath id="clippath"><path class="cls-1" d="M101.5,43.37c5.98-5.56,10.65-10.84,15.27-17.42,5.1-6.42,9.09-13.53,13.18-20.52,.68-1.15,1.47-2.46,2.03-3.08,.44-.64,1.59-1.34,1.16-2.11-.35-.52-1.08-.07-1.61,.07-10.1,3.76-19.83,10.14-26.88,18.7-5.56,7.06-10.83,14.36-15.08,22.19-4.43,8.16-8.65,18.52-5.94,16.73,1.52-1,3.34-3.1,5.33-4.44,3.57-2.36,8.91-6.45,12.53-10.12"/></clipPath><clipPath id="clippath-1"><path class="cls-1" d="M132.22,48.65c.49-.5,1.12-.88,1.53-1.46,.18-.32,.36-.73,.14-1.01-.18-.29-.56-.24-.88-.22-4.18,.64-8.34,.9-12.5,1.26-5.06,.86-10.11,2.1-15.1,3.7-4.9,1.6-9.34,4.62-13.95,7.04-4.65,2.84-8.96,5.83-12.94,9.35-3.05,2.49-5.94,5.2-8.55,8.13-.04,.03-.07,.07-.11,.1,.01-.01,.02,0,.04-.01-.09,.1-.19,.21-.28,.31-.18,.5,0,.8,.29,.89,0,.03,0,.06,.02,.09-.03,.06-.06,.13-.07,.19,.06,.37,.52,.44,.81,.2,.08-.01,.15-.03,.23-.06,.05,.06,1.19-.35,1.44-.42,6.19-1.61,13.33-1.37,20.15-2.72,4.19-.74,8.22-2.82,12.16-4.68,6.95-3.27,13.51-7.5,19.26-12.81,2.87-2.52,5.53-5.25,8.32-7.86"/></clipPath><clipPath id="clippath-2"><path class="cls-1" d="M74.97,62.32c2.55-4.15,4.76-8.46,6.65-12.87,4.69-10.46,8.78-21.21,11.25-32.14,.64-3.08,.93-6.17,1.5-9.25,.23-1.28,.41-2.57,.47-3.85,.06-.72-.89-.79-1.41-.43-1.72,1.3-3.65,3.08-5.56,5-.1,.07-.19,.14-.27,.2-.91,.64-1.62,1.47-2.24,2.38-.92,.97-1.8,1.93-2.63,2.84-3.77,4.93-7.02,10.22-9.48,15.79-2.57,4.7-3.1,8.83-4.15,13.83-1.6,7.63-.52,27.07,2.08,25.34,.87-1.34,3-5.53,3.79-6.83"/></clipPath><clipPath id="clippath-3"><path class="cls-1" d="M51.57,86.17c.22-.45,3.76-7.63,5.08-10.69,3.34-7.75,4.86-15.12,6.03-22.9,.69-5.9,.66-12.74,.48-18.59-.22-3.75-.76-7.42-1.11-11.13-.11-1.2-.14-1.76-.18-2.77-.08-.55,.03-1.34-.58-1.53-.34-.08-.75,.17-.87,.52-4.89,7.73-11.16,17.31-13.32,26.74-2.49,8.05-3.37,16.37-2.01,24.19,.85,4.9,4.22,14.7,4.98,15.84-.02,.1,1.23,1.17,1.5,.33"/></clipPath><clipPath id="clippath-4"><path class="cls-1" d="M121.79,80.74c-1.49-.58-2.73-.81-4.73-.84-2.08-.13-5.02-.64-7.59-1.19-14.98-2.84-30.37-1.44-45.53,4.73-3.66,1.66-7.24,3.97-10.13,6.86-.14,.27-.07,.52,.1,.67-.05,.36,.09,.71,.54,.84-.14-.05-.15-.06-.11-.04-.04-.01-.03,0,.03,.01,.09,.04,.28,.11,.38,.14,.13,.03,.29,.04,.27,.03,.09,.01,.17,.02,.26,.02,.27,0-.05,0-.09-.02,.12,.02,.23,.04,.35,0,.87,.26,2.66,.77,3.84,1.33,1.99,.75,3.57,1.06,5.1,1.85,2.07,.38,4.09,.94,6.17,1.28,5.29,.6,10.78,.09,16.21-.24,6.09-.74,12.24-1.53,18.2-3.74,3.11-1.01,6.02-2.68,8.96-4.18,2.87-1.67,5.83-3.33,8.31-5.61,1.27-1.48,.13-1.78-.55-1.93"/></clipPath><clipPath id="clippath-5"><path class="cls-1" d="M28.29,111.62c.42-.87,.2-.66,.46-1.55,.89-2.19,1.78-3.85,2.84-6.3,2.09-4.29,3.1-8.83,4.66-13.24,4.29-12.13,6.49-24.87,4.88-36.91-.39-3.24-1.05-6.39-1.62-9.58-.26-2.42-.44-4.18-1.39-6.13-.24-.45-.43-1.01-.95-1.18-.43-.12-.91,.16-1.12,.59-.29,.52-.52,1.03-1,1.82-1.35,2.33-2.85,4.59-4.14,6.95-1.95,3.52-4.02,7-5.59,10.67-1.38,3.42-2.5,6.93-3.55,10.42-.5,4.13-1.24,8.3-1.39,12.42,.08,5.36,.16,10.81,1.53,15.85,1.29,5.66,2.64,10.65,4.91,15.97v.02s0,.04,0,.06c.09,.66,1.07,.76,1.45,.12"/></clipPath><clipPath id="clippath-6"><path class="cls-1" d="M97.48,105.91c.11-1.26-1.21-.74-1.75-.93-2.01-.22-3.97-.58-5.91-1.02-6.86-1.63-13.39-2.17-20.27-2.56-10.22-1.11-21.8-.25-31.12,6.66-2.03,1.58-4.2,3.38-5.61,5.49-.01,.12,.02,.23,.07,.32-.02,.31,.13,.59,.51,.68,1.51-.09,4.5-.22,6.67-.15,2.59,.34,6.3,.97,9.63,1.45,5,.52,10.16,.21,15.28-.03,9.14-.91,18.85-1.02,27.28-6.48,1.59-.95,3.19-1.87,4.78-2.83,.22-.13,.4-.36,.44-.6"/></clipPath><clipPath id="clippath-7"><path class="cls-1" d="M12.28,127.52c.18-.54,.87-2.31,1.18-3.46,.11-.21,.23-.44,.38-.74,1.49-2.6,2.58-5.34,3.2-8.17,.95-3.3,1.3-7,1.93-9.69,.21-2.88,.17-5.74,.18-8.6-.04-4.72-.29-9.44-1.43-13.89-1.27-4.3-2.26-7.68-3.62-11.99-.8-1.89-.99-3.43-1.6-5.68-.67-2.62-1.58-5.14-2.24-7.77-.09-.7-.8-1.57-1.52-.75-.5,.83-.34,1.93-.64,2.84-1.15,4.9-3.6,11.28-5.24,16.81C.39,83.73-.15,91.37,.03,98.67c-.22,3.86,1.29,8.52,1.89,12.76,.03,1.43,.46,2.71,1.22,3.82,1.46,2.69,3.17,5.21,4.82,7.77,.41,.62,.84,1.22,1.27,1.83,.15,.31,.29,.63,.42,.96,.53,1.15,.73,1.67,1.39,2.38,.44,.27,1.16-.11,1.24-.66"/></clipPath><clipPath id="clippath-8"><path class="cls-1" d="M77.81,129.45c.05-.78-.75-1.1-1.36-1.31-1.48-.46-3.09-.62-4.6-1.01-8.35-1.79-16.73-4.1-24.93-4.48-6.71-.31-13.16,.17-19.56,1.86-3.71,1.14-7.14,3.38-10.32,5.74-.32,.17-.47,.42-.53,.65-.32,.31-.43,.84-.12,1.14,.45,.34,1.44,.39,2.05,.49,.97,.02,1.83,.36,2.74,.57,1.31,.25,2.24,.95,3.75,1.63,.72,.45,1.4,.96,2.2,1.28,6.5,2.32,13.67,2.78,20.92,1.95,5.4-.46,10.81-1.13,16.19-2.35,3.72-.71,7.4-2.03,10.9-3.77,1.06-.51,2.42-1.13,2.67-2.39"/></clipPath></defs><g id="OBJECTS"><g><path class="cls-3" d="M87.14,35.47s0-.05,0-.06c0-.14,0-.04,0,.06"/><g><g><path class="cls-3" d="M101.5,43.37c5.98-5.56,10.65-10.84,15.27-17.42,5.1-6.42,9.09-13.53,13.18-20.52,.68-1.15,1.47-2.46,2.03-3.08,.44-.64,1.59-1.34,1.16-2.11-.35-.52-1.08-.07-1.61,.07-10.1,3.76-19.83,10.14-26.88,18.7-5.56,7.06-10.83,14.36-15.08,22.19-4.43,8.16-8.65,18.52-5.94,16.73,1.52-1,3.34-3.1,5.33-4.44,3.57-2.36,8.91-6.45,12.53-10.12"/><g class="cls-2"><g><path class="cls-5" d="M127.8,14.1c.15-1.19,.86-2.81-.43-3.6-.52-.41-1.19-.44-1.81-.3-.66,.11-1.92,.22-2.59,.27,.08-.79,.24-1.56,.33-2.35,.53-4.21-1.9-3.5-4.89-2.66-.86,.35-2.06,.44-2.57,1.29-.38,.8,.49,1.73,1.31,1.39,1.32-.59,3.01-1.05,4.1-1.18,.03,.66-.13,1.57-.3,2.49-.83,4.32,2.32,2.95,5.12,2.71,.02,0,.03,0,.05,0-.13,.77-.3,1.53-.44,2.29-.13,.42-.25,.89,.05,1.26,.37,.55,1.23,.57,1.64,.05,.33-.47,.32-1.1,.44-1.64"/><path class="cls-5" d="M123.23,20.24c-.13-.05-.26-.06-.39-.06-.07,0-.17,0-.34,0-.19,0,.09,0,.21,0,0,0-.01,0-.02,0-1-.04-2,.13-2.96,.38-.34,.12-.61,.24-.84,.35,.51-1.29,1.28-3.19,.85-4.5-.66-1.36-2.52-1.04-3.74-.78-.34,.05-.66,.15-.98,.27,2.52-7.31-4.04-5.29-8.51-2.92-1.09,.79,.09,2.45,1.2,1.68,1.08-.59,4.13-1.92,5.77-1.72,0,0,0,.01,0,.02,.01,.23,.02,.35-.1,.81-.07,.25-.26,1.02-.26,1.01-.12,.45-.55,1.66-.88,2.33-.38,.67-.43,1.68,.39,2.03,.76,.31,1.47-.28,2.12-.6-.09,.05-.17,.09-.26,.14,1.4-.72,1.51-.72,2.87-.88h0c-.16,.73-.41,1.18-.85,2.39-.85,1.61-1.14,5.01,1.65,3.95,1.93-.86,1.83-1.21,3.95-1.39,.05,0,.12-.01,.18-.02,1.47,.76,2.96-1.75,.92-2.49"/><path class="cls-5" d="M117.51,29.42c-.68-.52-1.54-.04-2.3,.04-.8,.11-1.78,.47-2.51,.79,.09-1.19,.51-2.33,.53-3.52-.07-1.35-1.71-1.54-2.49-1.2-.84,.13-2.19,.62-3.28,1,0-.1,0-.19,0-.28,.02-1.25,.07-1.7,.06-3.24,.17-5.75-4.6-3.29-7.55-1.34-1.38,.72-.6,2.62,.81,1.87,1.37-1.11,3.44-2.17,4.6-2.17,.02,.02,.03,.05,.05,.07,.01,.04,.04,.1,.05,.16,.02,.1,.06,.35,.07,.43,.23,2.02,.02,2.85,.07,4.95-.14,2.09,1.79,1.64,3.09,1.06,.96-.41,1.97-.59,2.55-.73-.41,1.79-1.89,6.97,2.04,4.97,.77-.54,2.42-.63,4.02-1.06,.69-.31,.78-1.36,.18-1.81"/><path class="cls-5" d="M108.96,38.62c-.06-.46-.55-.41-.89-.34-1.5,.24-2.97,.67-4.31,1.41-.15,.09-.72,.34-.93,.44-.04-.21-.06-.45-.02-.75,.18-1.03,.51-1.83,.86-2.84,.22-.65,.25-1.68-.63-1.79-1.74-.14-3.34,.72-4.92,1.31-.19,.08-.52,.03-.59-.04h0s0-.07,.02-.08c.26-.66,.58-1.97,1-2.99,.13-.51,.54-.97,.45-1.51-.18-1.21-1.3-.83-2.12-.58-.91,.2-2.49,.43-3.43,1.13-.18,.17-.46,.28-.51,.54-.06,.32,.33,.55,.59,.36,1.17-1.06,2.7-1.02,4.2-1.49,.15-.04,.33-.08,.47-.05,.03,.04,.03,.05,.07,.17,0,.04,.01,.08,.02,.13,0,.02,0,.04,0,.06-.56,1.17-.99,2.82-1.4,3.97-.07,.2-.11,.43-.03,.63,.55,.97,1.8,.4,2.57,.04,.92-.33,1.8-.71,2.69-.82,.41-.03,.74-.08,.95,.02,0,.04,.02,.13,.01,.16-.08,1.33-1.62,3.37-.91,5.05,.32,.45,.91,.27,1.31,.03,1.6-.81,3-1.38,4.57-1.61,.37-.06,.99-.01,.94-.55"/><path class="cls-5" d="M101.52,47.18c.03-.18-.06-.39-.23-.48-.97-.23-2.7,.92-3.31,1.06-.04-1.06,.87-2.63,1.04-4.18-.13-1.7-5.12,1.05-5.71,1.39-.06,.02-.14,.05-.22,.09,.09-.62,.23-1.3,.38-1.72,.24-.64,.59-1.35,.43-2.04-.36-.81-1.32-1.34-2.2-1.27-.78,.1-1.52,.38-2.26,.65-.19,.1-.45,.14-.54,.36-.15,.31,.19,.66,.51,.53,.87-.38,1.98-.77,2.6-.74,.53,.02,1.12,.63,1.14,.7-.02,.98-.91,2.46-.89,3.84,.08,.71,.87,.66,1.37,.41,1.24-.72,3.01-1.58,4.5-1.85h0c.01,.73-2.45,5.41,.22,4.69,.78-.23,1.49-.67,2.27-.89,.46-.21,.69,.03,.91-.54"/><path class="cls-5" d="M133.5,6.55c.15-.33-.2-.7-.54-.57-.74,.14-1.4,.48-2.07,.79-.02,0-.03,0-.04,.01,.09-.58,.33-1.33,.42-1.94,.1-.42-.15-.84-.6-.85-1.16-.28-2.34-.14-3.48,.17,.03-.18,.07-.37,.13-.51,.16-.85,.57-1.9,.08-2.69-.51-.52-1.36-.74-2.06-.6-.31,.15-.16,.65,.18,.61,.57-.03,1.16,.14,1.4,.45,.14,.29-.09,1.57-.32,2.32-.05,.37-.49,1.05,.09,1.18,.82-.03,1.71-.41,2.76-.38,.16,0,.71,.09,1.1,.17-.05,.71-.65,1.88-.45,2.73,.51,.69,2.4-.63,2.69-.56,.26-.08,.6-.05,.73-.34"/></g></g></g><g><path class="cls-3" d="M132.22,48.65c.49-.5,1.12-.88,1.53-1.46,.18-.32,.36-.73,.14-1.01-.18-.29-.56-.24-.88-.22-4.18,.64-8.34,.9-12.5,1.26-5.06,.86-10.11,2.1-15.1,3.7-4.9,1.6-9.34,4.62-13.95,7.04-4.65,2.84-8.96,5.83-12.94,9.35-3.05,2.49-5.94,5.2-8.55,8.13-.04,.03-.07,.07-.11,.1,.01-.01,.02,0,.04-.01-.09,.1-.19,.21-.28,.31-.18,.5,0,.8,.29,.89,0,.03,0,.06,.02,.09-.03,.06-.06,.13-.07,.19,.06,.37,.52,.44,.81,.2,.08-.01,.15-.03,.23-.06,.05,.06,1.19-.35,1.44-.42,6.19-1.61,13.33-1.37,20.15-2.72,4.19-.74,8.22-2.82,12.16-4.68,6.95-3.27,13.51-7.5,19.26-12.81,2.87-2.52,5.53-5.25,8.32-7.86"/><g class="cls-6"><g><path class="cls-5" d="M131.94,57.35c-.03-.31-.33-.48-.61-.48-.84-.09-1.68-.07-2.52-.08-.79,.03-2.73,.26-2.72,.26-.04-.69,1.77-2.54,2.64-4.07,.77-1.81-4.58-1.4-5.57-1.3-.12,0-.21,.02-.29,.03,.06-.11,.14-.23,.23-.33,1.01-1.43,2.23-2.73,3.09-4.25,.15-.37,.35-.82,.09-1.18-.64-.55-1.58-.66-2.39-.83-1.28-.15-2.63-.31-3.9-.19-.39,.18-.19,.81,.23,.75,1.5-.04,4.63,.28,5.36,.76v.02s-.02,.04-.04,.12c-.77,1.67-2.68,3.43-3.75,5.33-.21,.62,.68,.75,1.11,.65,1.73-.2,3.61-.2,4.97,.2-.65,1.27-2.57,2.63-2.74,4.45,.12,1.08,1.39,.83,2.15,.72,1.36-.13,2.39-.15,3.5-.08,.47,.06,1.18,.2,1.16-.5"/><path class="cls-5" d="M123.93,66.8c-1.37-.17-2.89-.12-4.14,.01,.84-.91,1.61-1.84,2.27-2.47,.45-.58,1.03-.66,1.13-1.63,.07-.98-.96-1.02-1.66-1.19-2.11-.69-4.79,.09-6.66,.55,.71-.89,1.43-1.77,2.22-2.59,.71-1.08,5.19-3.47,2.1-4.17-1.61-.4-3.3-.51-4.95-.51-.91,0-1.81,.22-2.7,.22,.89-1.11,1.43-2.43,2.08-3.68,.17-.41,.54-.69,.66-1.35,.06-.48-.27-.89-.61-1.19-.73-.67-1.74-.78-2.68-.73-1.12,0-2.27,0-3.44,0-.11,0-.2,.06-.27,.15-.22,.26,0,.7,.35,.65,1.62,.06,3.23-.16,4.78,.09,.48,.16,1.04,.57,1.1,.9-.2,.64-1.04,1.87-1.5,2.98-.38,.84-1.06,1.52-1.63,2.49-.04,.21,.12,.43,.33,.45,.77,.1,1.53,.04,2.3-.08,.67-.07,1.35-.1,2.02-.08,1.38,.04,3.39,.37,4.22,.63-1.17,1.1-3.49,2.96-4.86,4.83-.36,.5-.91,.91-1.13,1.49-.13,.68,.55,.74,1.06,.68,2.06-.38,4.43-1.35,6.66-.72,.24,.06,.78,.18,1.04,.23,0,0-.01,.02-.02,.02-.02,.02-.03,.03-.04,.05-.02,.02-.06,.05-.15,.14-.86,.78-1.64,1.66-2.65,2.76-.5,.61-2.47,1.97-.89,2.45,1.67-.1,2.62-.4,4.11-.25,.65-.09,1.46,.3,2.09,0,.58-.45,.13-1.25-.55-1.15"/><path class="cls-5" d="M107.46,67.99c.52-.96,1.12-1.74,1.72-2.9,.1-.22,.17-.48,.08-.72-.22-.55-.94-.4-1.42-.46-.84-.03-2.34,.05-2.78,.06-.04,0-.1-.01-.14-.02-.05-.02-.1-.04-.14-.06,0,0-.02-.01-.02-.02-.01-.02-.02-.03-.03-.05,.45-1.01,1.83-2.91,2.91-4.26,1.8-2.53-3.14-1.49-4.36-1.68-.63,.01-1.74-.04-1.69-.07-.02-.01-.04-.03-.06-.05l-.02-.02c.47-.52,1.26-2.35,1.66-2.97,.15-.39,.85-.96,.52-1.53-.2-.2-.53-.2-.8-.24-1.09-.04-2.23-.22-3.31-.11-.36,.17-.18,.75,.21,.7,.88,.04,1.98,.05,3.1,.18-.15,.27-.38,.58-.62,1-.57,1.03-.82,1.7-1.45,2.53-.45,.57,.15,1.32,.79,1.36,1.66,.12,3.54,0,5.03,.03,.17,.01,.33,.05,.49,.09-.16,.31-.6,.77-.92,1.24-.84,1.13-1.7,2.26-2.32,3.52-.1,.24-.05,.5,.08,.71,.21,.36,.61,.56,1.02,.58,1.25-.02,2.29-.11,3.33-.02-.45,.93-1.09,1.72-1.68,2.82-.23,.32-.34,.85,.17,.95,.38,.06,.51-.33,.64-.61"/><path class="cls-5" d="M99.86,71.18s.02-.04,.03-.06c0,.02-.02,.03-.02,.03,0-.01,.02-.03,.02-.04,.06-.13,.03-.06,0,0,.55-.81,1.13-1.63,1.42-2.57,.21-1.4-1.98-1.15-2.3-1.16-.2-.03-1.39,0-1.47,0-.08,0-.14,0-.12,0-.04,0-.07,0-.11-.01,.24-.58,1-1.81,1.83-2.95,.48-.49,.99-1.33,.35-1.9-1.39-.57-3-.46-4.47-.73,.11-.2,.23-.44,.29-.57,.5-1.07,.82-1.55,1.25-2.49,.31-.77-.62-1.19-1.26-1.18-1.62-.09-3.35,.1-4.87,.63-.32,.27,.02,.81,.4,.65,.73-.18,2.3-.49,3.42-.49-.24-.02,.46,.02,.58,.03,.1-.02,.62,.09,.63,.09h.04s.08,.04,.12,.06c-.11,.19-.3,.52-.52,.89-.38,.72-.72,1.47-1.13,2.18-.09,.15-.14,.32-.13,.49,.07,.46,.55,.71,.98,.72,1.31,.18,2.63,.26,3.93,.51-.22,.31-.91,1.07-1.25,1.62-.5,.72-.6,.91-1.13,1.72-.29,.44-.37,1.08-.02,1.5,.37,.5,1.05,.41,1.6,.38,.8,0,1.56-.09,2.09,.01-.49,1-1.63,2.55-1.85,3.04-.33,.47,.43,1.18,.9,.73,.33-.33,.6-.72,.8-1.14"/><polyline class="cls-5" points="99.89 71.11 99.9 71.1 99.9 71.11 99.89 71.11"/><path class="cls-5" d="M92.77,72.66c-.13-.77-1.27-.85-1.95-.93,.33-.47,1.17-1.51,1.69-2.05,.38-.48,1.16-.96,1-1.65-.38-.58-.76-.38-1.22-.58-1.34-.34-3.5-.36-4.53-.43,.06-.12,.13-.24,.19-.36,.48-.91,.92-1.84,1.28-2.81,.26-.45,.18-1.08-.35-1.29-2.19-.2-4.53,.26-6.57,1.04-.3,.25,.02,.76,.38,.61,1.77-.62,3.91-.98,5.68-.94,.06,0,.12,.01,.18,.02-.03,.04-.19,.45-.23,.54-.41,1.22-1.34,2.35-1.66,3.54,0,.21,.17,.37,.34,.46,.8,.26,1.11,.06,1.82,.16,.96,0,2.78,.27,3.57,.44-.44,.48-1.39,1.51-1.87,2.07-.33,.55-1.38,1.38-.68,1.99,.6,.3,1.2,.26,1.68,.36-.78,.55-1.38,.75-1.78,1.27-.2,.42,.26,.91,.69,.73,.5-.27,.95-.64,1.42-.96,.42-.28,.94-.69,.93-1.24"/><path class="cls-5" d="M85.45,75.21c.1-.44-.02-.66-.25-.79,.41-.3,.82-.6,1.26-.86,.24-.14,.47-.34,.53-.62,.05-1.13-2.45-1.03-3.55-1.14-.25-.04-1.08,0-1.53,.04,.08-.41,.4-1.11,.65-1.73,1.05-2.34,1.94-3.13-1.48-2.42-1.47,.39-3.02,.33-4.49,.69-.36,.17-.18,.76,.21,.71,1.92-.27,3.85-.48,5.75-.89,0,0,.01,0,.02,0-.34,.66-.98,1.91-1.32,2.76-.24,.51-.51,1.15-.16,1.66,.21,.3,.62,.25,.94,.21,.73-.09,.83-.05,1.56,0,.44,0,1.18,.1,1.74,.19-.48,.3-.96,.62-1.44,.92-.2,.13-.45,.23-.55,.46-.17,.36,.08,.77,.43,.9,.24,.1,.5,.14,.75,.19,.04,.01,.07,.03,.11,.05-.02-.01-.03-.02-.04-.02,.08,.04,.2,.09,.28,.07,.25,.03,.49-.14,.58-.37"/><path class="cls-5" d="M78.95,74.94c.2-.56-.38-.84-.85-.86-.75-.09-1.5-.16-2.26-.14,.26-.62,.87-2.03,1.05-2.47,.34-1.16-2.8-.27-3.36-.14-.57,.08-.44,.93,.13,.76,.6-.21,1.55-.36,2.27-.39-.32,.63-.61,1.28-.92,1.93-.25,.25-.42,1.1,.49,1.29,.42,0,1.39,.05,2.06,.12-.34,.32-.59,.57-.75,.82-.29,.68,.69,1.15,1.06,.51,.27-.54,.89-.85,1.06-1.43"/></g></g></g><g><path class="cls-5" d="M74.96,62.14c2.55-4.15,4.76-8.46,6.65-12.87,4.69-10.46,8.78-21.21,11.25-32.14,.64-3.08,.93-6.17,1.5-9.25,.23-1.28,.41-2.57,.47-3.85,.06-.72-.89-.79-1.41-.43-1.72,1.3-3.65,3.08-5.56,5-.1,.07-.19,.14-.27,.2-.91,.65-1.62,1.47-2.24,2.38-.91,.97-1.8,1.93-2.63,2.84-3.77,4.93-7.02,10.22-9.48,15.79-2.57,4.7-3.1,8.83-4.15,13.82-1.61,7.63-.52,27.07,2.08,25.34,.87-1.34,3-5.53,3.79-6.83"/><g class="cls-9"><g><path class="cls-3" d="M77.42,58.82c-.68-1.14-.88-1.37-1.34-2.27-.53-.95-1.6-2.27-2.79-1.52-.77,.46-1.5,1.34-2.02,2.05-.05-.07-.11-.14-.16-.21-.52-.97-1.74-2.15-2.71-.99-.52,.88-1.3,1.73-1.55,2.72-.08,.98,1.41,1.31,1.77,.4,.38-.62,.49-.84,.8-1.32,.42,.61,.79,1.28,1.37,1.74,.39,.28,.96,.15,1.27-.21,.12-.13,.51-.77,.63-.98,0-.01,.02-.03,.03-.04,.68-.73,.83-1.02,1.28-1.38,.4,.45,.91,1.57,1.67,2.68,.24,.23,.1,.53,.72,1.03,.37,.27,.92,.14,1.2-.2,.54-.68-.19-1.43-.17-1.49"/><path class="cls-3" d="M82.15,51.3c-.07-.79-.1-1.64-.41-2.38-.49-.64-1.26-.18-1.72,.25-.32,.21-.78,.6-1.13,.91-.04-.15-.1-.3-.14-.45-.14-.63-.25-1.27-.39-1.9-.09-.47-.33-1.7-1.32-1.5-1.46,.78-3.41,3.08-4.24,3.99-.06-.18-.11-.36-.17-.55-.37-1.03-1.09-3.43-2.5-3.09-.73,.48-1.25,1.28-1.69,2.03-.53,.94-1.08,1.85-1.59,2.79-.08,.18-.08,.39-.02,.57,.21,.62,1.15,.64,1.4,.04,.88-1.51,1.37-2.68,2.25-3.77,.44,.66,.9,2.03,1.16,3.06,.15,.54,.76,.85,1.29,.66,.35-.12,.69-.52,.74-.58,1.3-1.27,2.1-2.35,3.21-3.26,.03-.02,.06-.05,.08-.07,.01,.05,.02,.11,.05,.23,.35,1.13,.31,4.59,2.25,3.42,.57-.43,.75-.68,1.37-1.15,.02,.23,.04,.46,.06,.66-.02,.33-.02,.71,.27,.93,.57,.47,1.39-.13,1.2-.82"/><path class="cls-3" d="M84.56,45.84c.09-1.35,.13-3.53,.2-5.8,0,.49,.02-1.02,0-1.23,.08-.76-.72-1.17-1.29-.67-1.32,.89-2.54,1.91-3.66,3.05-.19-1.26-.28-3.3-.42-4.75,0-.05,0-.11,.01-.16,.04-.42,.09-.99-.38-1.18-.61-.26-.98,.43-1.37,.78-1.35,1.51-2.67,3.06-4,4.58-.06-.19-.11-.39-.16-.59-.51-1.68-.47-6.46-3.54-2.27-.69,.97-1.34,1.96-2,2.95-.11,.13-.15,.29-.14,.46,.04,.53,.77,.75,1.1,.33,.78-1.21,2-3.06,2.82-3.94,.03,.14,.07,.32,.12,.52,.2,1.11,.53,3,.87,3.92,.87,1.02,1.77-.35,2.32-1,1.07-1.13,2.04-2.35,3.08-3.52,.07,.87,.17,1.85,.15,2.63,.15,.98-.01,2.29,.77,3.01,1.08,.55,1.74-.93,2.47-1.52-.05,.05-.11,.1-.08,.08,.62-.61,1.31-1.15,2-1.69-.02,1.01-.13,2.1-.18,3.32,0,.57-.05,1.1-.13,1.95-.04,.39-.2,.84,0,1.21,.36,.77,1.61,.34,1.44-.49"/><path class="cls-3" d="M88.54,35.96c.13-.51,.02-.55,.13-1.09,.15-1.73,.24-3.53-.26-5.22-.3-.64-.03-3.42-1.68-2.68-1.37,1.34-2.67,2.76-3.82,4.29-.09-.92-.1-2.07-.06-2.58,.06-.56,.43-1.36-.19-1.73-.33-.24-.74-.06-1.01,.18-.75,.55-.66,.57-1.32,1.05-.97,.72-1.75,1.08-2.71,1.95,.04-1.17,.03-2.7,.03-3.27-.03-.79,.48-2.36-.79-2.32-.79,.14-1.31,.85-1.87,1.36-1.05,1.12-2.13,2.21-3.16,3.34-.51,.61,.45,1.4,.95,.77,1.26-1.29,2.51-2.71,3.6-3.7-.07,1.09-.14,2.41-.18,3.5,0,.62-.2,1.25-.02,1.85,0,.42,.88,1.06,1.66,.27,.66-.56,1.24-1.22,1.98-1.67,.14-.03,1.05-.63,1.46-.99,.04-.03,.07-.05,.11-.08-.06,1.19,.03,2.36,.16,3.83,.02,.68,.83,1.22,1.38,.69,.28-.27,.44-.64,.69-.94,.5-.84,1.17-1.53,1.76-2.31,.47-.57,.97-1.11,1.48-1.65,.08,.67,.27,1.4,.33,1.63,.35,1.89,.12,3.23-.03,5.23,0,.04,0,.07,0,.09,.02,.19,.11,.37,.26,.49,.35,.3,.94,.16,1.12-.27"/><path class="cls-3" d="M93.59,23.9s0-.02,0,.01c.05-1.49-.34-2.49-.45-3.87-.11-.79,0-.92-.12-1.67-.19-.52-.86-.58-1.24-.21-1.11,1.1-2.69,3.03-3.69,4.23-.02-.12-.03-.25-.06-.4-.12-1.93-.02-2.55,.04-4.2,.06-.62-.53-1.17-1.12-.86-.51,.3-.35,.29-.78,.6-1.6,1.29-1.94,1.72-3.4,3.16-.02,.03-.05,.06-.08,.1-.01-1.32-.02-2.63-.07-3.94,.07-.4-.11-1.3-1-1-1.45,1.04-2.83,2.2-4.3,3.21-.69,.48,.07,1.55,.75,1.06,1.1-.79,2.19-1.59,3.25-2.43,0,1.52-.03,3.01-.1,4.36,0-.04,0,.13,0,.2,0,.04,0,.08,0,.11,0,.13,0-.07,0-.08-.16,1.1,1.02,1.34,1.62,.52,1.46-1.54,2.75-2.83,3.82-3.82-.1,1.54-.21,3.02,.27,4.81,.1,.59,.77,.99,1.29,.6,.49-.38,.83-.93,1.25-1.39,.79-.91,1.55-1.85,2.33-2.78,.04,.67,.12,1.4,.31,2.05,.04-.05,.06,1.23,.09,1.4-.07,.61-.03,1.6,.81,1.53,.71-.1,.66-.75,.6-1.31"/><path class="cls-3" d="M96.65,15.35s-.02,0,0-.19c0-.06,0-.11-.01-.17v-.03c.12-1.19-.14-2.74-.14-3.36,0-.31-.16-.62-.49-.75-.33-.15-.69-.04-.92,.19-.15,.1-.33,.21-.39,.28-.42,.45-1.35,1.17-2.28,1.88-.38,.35-.56,.53-.72,.7-.07-.4-.09-.82-.07-1.37,0-.65,.22-.74,.1-1.34-.7-1.17-1.48,.08-2.25,.6-.55,.4-1.08,.81-1.6,1.23,0-.12,0-.23,0-.33,.12-.71,.28-2.46,.35-3.28-.05,.01,.27-.47,.11-.71-.08-.22-.31-.39-.55-.39-.59,.05-1.06,.51-1.55,.8-.84,.63-1.82,1.12-2.56,1.86-.36,.52,.35,1.18,.85,.79,.72-.54,1.59-1.14,2.38-1.65v.21c-.14,1-.39,1.98-.46,2.99-.06,.29-.21,.92-.21,.87-.17,.34-.26,.79,.05,1.08,.92,.87,2.02-.88,2.81-1.3,.33-.25,.64-.5,.96-.76,0,.72,.12,1.38,.33,2.03,.59,1.53,1.72,.54,2.47-.25,.54-.56,.57-.56,1.37-1.18,.29-.23,.53-.43,.75-.61,.03,.46,.03,.79,0,1.13,0,.03,0,.04,0,.06,0,.02,0,.05,0,.1-.1,.57-.12,1.43,.58,1.61,.5,.18,1.05-.24,1.08-.75"/><path class="cls-3" d="M97.75,7.49c.32-.44-.02-1.12-.55-1.19-.5-.07-.86,.37-1.27,.59-.28,.17-.59,.32-.87,.5-.04-.18-.09-.34-.15-.4-.04-.85-.56-1.51-1.45-1.13-.92,.31-1.61,.8-2.33,1.2-.02-.15-.02-.31-.02-.55-.01-.62,.13-1.53-.68-1.68-.81-.06-1.9,.59-2.47,1.14-.4,.58,.39,1.31,.95,.88,.31-.2,.58-.37,.81-.49-.1,1.37-.11,3.41,2.13,2.05,.22-.1,1.06-.62,1.66-.92,.02,.05,.03,.1,.05,.14,.01,.04,.02,.08,.03,.11,.02,.64,.09,.69,.11,1.06-.04,.7,.83,1.11,1.37,.65,.23-.14,.41-.34,.59-.53,.01-.01,.02-.02,.04-.03,.64-.5,1.51-.76,2.03-1.4"/></g></g></g><g><path class="cls-3" d="M51.57,86.17c.22-.45,3.76-7.63,5.08-10.69,3.34-7.75,4.86-15.12,6.03-22.9,.69-5.9,.66-12.74,.48-18.59-.22-3.75-.76-7.42-1.11-11.13-.11-1.2-.14-1.76-.18-2.77-.08-.55,.03-1.34-.58-1.53-.34-.08-.75,.17-.87,.52-4.89,7.73-11.16,17.31-13.32,26.74-2.49,8.05-3.37,16.37-2.01,24.19,.85,4.9,4.22,14.7,4.98,15.84-.02,.1,1.23,1.17,1.5,.33"/><g class="cls-8"><g><path class="cls-5" d="M58.02,79.58c-.34-.47-.86-2.05-1.27-3-.2-.41-.45-.88-.91-1.04-.28-.12-.61-.05-.8,.19-1.04,1.14-1.82,2.47-2.45,3.87l-.03,.04c-.16-.22-.32-.44-.48-.67-.46-.56-.69-1.32-1.26-1.78-1.11-.48-1.91,.87-2.34,1.71-.53,.97-1.03,1.97-1.54,2.95-.04,.1-.04,.22,0,.32,.12,.35,.66,.37,.8,.02,.87-1.63,2.04-4.25,2.65-4.23h0c.27,.47,.88,1.5,1.41,2.24,.21,.45,.8,.59,1.22,.33,.76-.63,.92-1.75,1.51-2.53-.27,.34,.73-1.01,1.1-1.48,.19,.28,.93,2.67,1.51,3.69,.4,.58,1.3-.06,.88-.63"/><path class="cls-5" d="M62.78,66.92c.02-.61-.26-1.36-.98-.95-.98,.84-1.56,2.04-2.37,3.03-.2,.3-.41,.58-.63,.86-.05-.1-.11-.25-.23-.56-.46-1.31-.87-2.65-1.43-3.93-1.02-1.31-2.33,1.35-2.77,2.12-.82,1.53-2.17,4.2-2.75,5.25-.96-1.29-1.36-2.28-2.07-3.76-1.13-2.69-2.2-2.66-3.53,.34-.72,1.57-1.57,3.1-2.21,4.69-.03,.48,.68,.64,.86,.2,1.06-1.93,2.26-5.25,3.23-6.19,1.14,1.72,1.63,3.96,3.08,5.78,.31,.51,1.05,.4,1.38-.04,.31-.33,.4-.77,.59-1.16,.98-1.85,1.84-3.76,2.86-5.58,.08-.14,.27-.41,.53-.69,.33,1.01,.67,2.01,.98,3.03,.3,1.04,.77,2.42,1.93,1.87,1.2-1.32,1.73-2.53,2.67-3.75,.34,.21,.85,.07,.86-.55"/><path class="cls-5" d="M63.04,57.55s.1-.11,.16-.17c.12-.06,.23-.16,.28-.3,.3-.7-.67-1.26-1.13-.64-.84,.84-1.33,1.96-2.06,2.9-.14,.24-.39,.5-.61,.71-.64-1.07-.94-2.41-2.24-3.29-.33-.22-.75-.4-1.15-.27-.78,.46-1.3,1.16-2.05,2.09-1.08,1.45-2.25,2.88-3.06,4.51-.08,.17-.17,.33-.26,.49-.1-.28-.2-.59-.3-.84-.65-1.48-.99-3.26-2.16-4.43-1.02-.74-1.77-.16-2.24,.83-.68,1.11-2.4,2.92-3.3,3.98-.16,.46,.5,.81,.8,.42,1.16-.96,3.18-3.76,3.81-4.63h0s.05,0,.08,.01c.08,.03,.16,.06,.24,.11,.04,.03,.1,.08,.15,.12,.02,.02,.14,.16,.18,.23,.21,.32,.1,.15,.23,.42,.64,1.5,1.23,3.02,1.71,4.58,.73,1.94,1.42,.33,1.97-.67,1.03-1.92,2.98-4.56,4.54-6.07,.33,.16,.46,.27,.79,.7,.41,.6,.85,1.81,1.48,2.78,1.19,1.97,3.34-2.8,4.12-3.57"/><path class="cls-5" d="M61.93,50.63c.93-1.45,1.9-2.9,3.07-4.17h0c.09-.08,.18-.16,.28-.21h0s.05-.03,.07-.06c.6-.54-.23-1.49-.86-.97-1.55,1.31-2.55,3.16-3.7,4.81-.51,.59-.37,.52-.86,.7h-.04c-.41-.79-.83-2.84-1.81-3.77-.27-.24-.46-.69-.87-.68-.19-.02-.37,.08-.49,.22-1.14,1.34-2.8,3.78-3.56,4.65-.05,.05-.12,.09-.18,.13-.28-.53-.57-1.23-.9-1.94-.6-1.33-1.11-2.79-2.29-3.72-.55-.21-.82,.49-1.17,.78-2.02,2.27-3.81,4.74-5.58,7.2-.39,.47,.35,1.09,.74,.6,1.49-2.12,3.09-4.16,4.72-6.18,.19-.34,.78-.82,1.1-1.17,1.13,1.44,1.53,3.33,2.51,5.17,1.03,2.39,3.99-3.08,4.84-3.87,.09-.11,.18-.22,.26-.33l.02,.02c.8,.85,.94,2.41,1.69,3.75,.93,1.03,2.43-.03,2.99-.97"/><path class="cls-5" d="M66.24,37.19h0c.31-.07,.59-.31,.54-.68-.04-.72-.98-.83-1.38-.33-.27,.4-.11,.2-.45,.63-.96,1.31-1.74,2.77-2.86,3.96-.06,.07-.22,.23-.29,.3h-.01s-.05,.05-.08,.07c-.75-1.04-.83-2.98-1.81-4.3-1.53-1.97-3.85,3.3-4.76,4.3-.63,.8-.66,.95-1.27,1.19-.12-.21-.24-.44-.25-.47-.52-1.03-.91-2.11-1.3-3.19-.18-.55-.34-1.14-.77-1.54-.57-.47-1.4-.69-2.12-.49-.78,.29-1.23,1.06-1.68,1.72-.58,.89-1.23,1.8-1.67,2.75-.02,.34,.45,.52,.66,.24,.84-1.32,1.99-3.3,2.76-3.86,.52-.31,1.35,.12,1.48,.27,.73,1.36,1.19,3.9,2.29,5.55,.2,.25,.53,.16,.79,.05,.47-.12,.93-.34,1.26-.71,1.47-1.5,2.25-3.43,3.39-4.69,.08-.07,.23-.19,.34-.28,0,.01,.01,.02,.02,.03,.53,.8,.75,2.9,1.57,4.14,.2,.3,.47,.57,.85,.59,.71,.09,1.22-.48,1.66-.95,1.4-1.56,1.91-2.8,3.07-4.31"/><path class="cls-5" d="M64.9,30.84c.86-1.21,1.82-2.48,2.43-2.93,.56-.29,.4-1.16-.27-1.11-1.45,.7-2.59,2.5-3.73,4.12-.27-.9-.43-1.61-.8-2.77-.21-.84-.95-1.95-1.94-1.72-.56,.27-.84,.89-1.17,1.39-.89,1.43-2.06,3.29-3.33,4.98-.03-.1-.03-.13-.08-.41-.16-.84-.23-1.86-.86-2.49-.72-.45-1.7-.12-2.35,.32-.22,.16-.29,.43-.39,.66-.14,.37-.53,.73-.41,1.14,.14,.41,.76,.42,.92,.02,.13-.26,.49-.89,.54-1.04,.32-.21,.76-.31,1.05-.27,.03,.05,.12,.33,.19,.63,.12,.36,.13,.96,.26,1.67,.14,1.16,1.23,1.82,2.01,.7,1.53-1.94,3.08-4.68,4.03-6.06,0,0,.02,.01,.02,.02h0c.31,.45,.21,.24,.36,.68,.5,1.53,.47,2.43,1.14,3.9,1.07,1.15,1.82-.74,2.39-1.45"/><path class="cls-5" d="M65.18,22.91c.45-.64,.78-1.01,1.13-1.25,.51-.26,.36-1.08-.21-1.16-.48-.04-.84,.39-1.16,.7-.94,.97-1.19,1.77-1.87,2.58-.08-.23-.24-.66-.26-.77-.3-1.08-1.02-3.28-2.31-1.76-.91,.98-2.71,3.25-3.07,3.65-.02-.03-.04-.06-.06-.09-.4-.81-.58-1.79-1.2-2.46-.42-.29-.95,.29-.64,.69,.23,.39,.58,1.44,.89,2.22,.22,.52,.74,1.01,1.33,.71,1.12-.74,1.79-2.02,2.7-2.99,.26-.41,.62-.71,.85-.93,.29,.51,.43,1.44,.75,2.32,.1,.27,.29,.52,.54,.66,1.26,.65,1.97-1.35,2.59-2.12"/></g></g></g><g><path class="cls-5" d="M121.79,80.74c-1.49-.58-2.73-.81-4.73-.84-2.08-.13-5.02-.64-7.59-1.19-14.98-2.84-30.37-1.44-45.53,4.73-3.66,1.66-7.24,3.97-10.13,6.86-.14,.27-.07,.52,.1,.67-.05,.36,.09,.71,.54,.84-.14-.05-.15-.06-.11-.04-.04-.01-.03,0,.03,.01,.09,.04,.28,.11,.38,.14,.13,.03,.29,.04,.27,.03,.09,.01,.17,.02,.26,.02,.27,0-.05,0-.09-.02,.12,.02,.23,.04,.35,0,.87,.26,2.66,.77,3.84,1.33,1.99,.75,3.57,1.06,5.1,1.85,2.07,.38,4.09,.94,6.17,1.28,5.29,.6,10.78,.09,16.21-.24,6.09-.74,12.24-1.53,18.2-3.74,3.11-1.01,6.02-2.68,8.96-4.18,2.87-1.67,5.83-3.33,8.31-5.61,1.27-1.48,.13-1.78-.55-1.93"/><g class="cls-7"><g><path class="cls-3" d="M61.71,90.75c-.3-.19-1.09-.58-1.68-.85,.8-.79,1.43-1.46,2.15-2.09,.61-.47,1.55-1.34,.92-2.07-.62-.49-1.48-.58-2.24-.8-.97-.23-1.93-.5-2.91-.69-.17-.02-.35,.03-.49,.14-.49,.34-.33,1.16,.24,1.21,1.47,.34,2.74,.62,3.9,.99-.51,.47-1.26,1.09-1.78,1.64-.71,.76-2.95,2.24-.7,2.88,.9,.41,1.78,.87,2.29,1.21-.23,.16-.52,.34-.65,.39-.07,.04-.15,.08-.22,.12-.98,.53-1.95,1.08-2.93,1.6-.18,.08-.34,.23-.43,.41-.29,.58,.3,1.22,.89,.96,1.7-.99,2.59-1.34,4.32-2.46,1.5-1.05,.39-2.03-.69-2.58"/><path class="cls-3" d="M71.3,94.11c-.99-1.04-2.43-1.38-3.77-1.78-.04-.01-.08-.04-.12-.06,.1-.07,.19-.15,.29-.21,1.09-.75,2.01-.96,3.07-1.87,.83-.85,.17-1.5-.66-1.8-1.12-.53-2.33-.86-3.46-1.36-.02-.01-.03-.02-.04-.04,.68-.59,1.49-1.15,2.35-1.72,.74-.57,1.68-.96,2.27-1.7,.33-.47,.17-1.12-.23-1.44-.37-.28-.84-.35-1.29-.43-.05-.01-.11-.02-.17-.04-1.73-.47-3.45-1.01-5.19-1.43-.73-.03-1.02,1.1-.34,1.35,1.57,.43,4.58,1.31,5.72,1.57-.69,.48-1.87,1.23-2.59,1.76-.84,.65-1.81,1.21-2.14,1.99-.02,.74,.73,1.27,1.32,1.55,1,.37,2.02,.72,2.99,1.15-.97,.59-2.59,1.22-3.49,2.22-.25,.35-.06,.74,.14,1.03,.36,.72,1.18,.91,1.9,1.11,.92,.26,1.66,.63,2.08,.94-.17,.07-.38,.13-.69,.23,.18-.05,.2-.06,.12-.03-1.11,.28-1.53,.44-1.92,.52-.21,.03-.41,.14-.54,.31-.29,.34-.25,.87,.07,1.12,.28,.23,.65,.16,.99,.04,.59-.19,1.19-.36,1.78-.56,1.1-.29,2.5-1.27,1.56-2.44"/><path class="cls-3" d="M80.82,95.32c-.74-.32-1.7-.43-2.45-.57,1.45-.59,3.73-1.36,2.47-2.58-1.49-1.15-3.39-1.57-5.17-2.14l-.05-.02c1.01-.75,2.13-1.34,3.16-2.06,.96-.62,2.14-1.46,1.07-2.53-.85-.62-2.68-1.33-3.65-1.66,.81-.52,1.66-.97,2.43-1.54,.58-.52,1.03-1.51,.55-2.16-.87-.78-2.1-1.11-3.16-1.6-.75-.3-1.52-.57-2.31-.79-.15-.07-.33-.06-.5,0-.55,.21-.6,1.04-.08,1.24,1.6,.46,3.7,1.33,4.85,1.99-.07,.16-.14,.23-.18,.28-.61,.45-1.9,1.13-2.9,1.8-1.04,.56-.61,1.71,.32,1.97,.97,.3,2.83,1.09,3.48,1.42-.13,.09-.27,.18-.4,.28-2.57,1.83-7.81,3.74-1.88,5.19,.96,.27,2.02,.66,2.77,1.05-.97,.43-2.46,.82-3.2,1.69-.3,1.02,.91,1.41,2.15,1.65-.1,.05-.21,.09-.31,.14-.23,.07-.45,.23-.55,.46-.21,.44,.07,.97,.52,1.01,.72-.04,1.35-.63,2.04-.85,.72-.15,1.66-1.04,.96-1.68"/><path class="cls-3" d="M88.04,95.3c1-.46,2.06-.92,2.43-2,.14-.68-.5-1.14-1.01-1.41-1.17-.53-2.61-.8-3.55-1.27,.9-.46,2.67-.9,3.59-1.72,1.65-1.33,.45-1.78-.68-2.45-.99-.54-2.7-.82-3.15-1.2,.14-.1,.31-.21,.49-.33,.32-.17,.64-.33,.97-.48,.86-.49,1.92-.69,2.6-1.47,.26-.35,.43-.86,.23-1.25-.13-.31-.45-.46-.74-.59-1.22-.62-2.62-.82-3.9-1.3,.5-.27,1.18-.51,1.7-1.05,.27-.34,.49-.78,.57-1.19,.06-.52-.5-.67-.87-.85-.94-.42-1.98-.62-2.99-.85-.16-.02-.34,.03-.48,.13-.47,.33-.32,1.11,.23,1.17,.96,.22,1.53,.32,2.42,.67,.06,.03,.11,.06,.16,.08-.3,.35-1.59,.68-2.35,1.36-.38,.4-.52,1.23,.04,1.45,1.48,.67,3.14,.92,4.62,1.59-.92,.52-2.4,1.02-3.43,1.75-.55,.33-1.12,.79-.72,1.45,.24,.98,1.23,1.32,2.11,1.55,.86,.22,1.69,.59,2.28,.9-.4,.34-1.28,.61-2.07,.93-6.17,2.35,.63,3.47,2.34,4.37-.36,.27-1.23,.63-2,1.05-1.15,.39-1.62,1.49-.37,2.01,.49,.29,1.08,.37,1.6,.62,.21,.16,.53,.19,.77,.03,1.03-.9,.05-1.36-.84-1.68"/><path class="cls-3" d="M99.63,95.55c.11-.62-.42-.96-.88-1.2-.56-.26-1.01-.48-1.34-.67,.55-.17,.98-.2,1.67-.52,.23-.11,.43-.27,.59-.46,.07-.08,.24-.36,.3-.46,.92-1.34-2.4-2.15-3.19-2.69-.8-.38-.9-.42-1.45-.81,1.15-.49,3.43-.3,4.37-2.04,.4-.49,.06-1.07-.45-1.21-1.22-.62-2.55-1.01-3.84-1.49,1.18-.42,2.54-.61,3.27-1.67,.45-1.15-.65-1.97-1.55-2.31-.73-.36-2.56-1.11-2.97-1.27,.94-.44,3.17-.71,3.31-2.07-.08-1.16-1.26-1.61-2.25-1.8-.21,0-1.14-.41-1.68-.31-.68,.15-.68,1.22,0,1.28,1.05,.22,2.14,.49,2.49,.78h-.01c-1.11,.68-3.18,.53-3.44,2.13-.1,.67,.46,1.13,.99,1.35,.95,.41,1.92,.79,2.86,1.24,.52,.23,.71,.36,.8,.45-.49,.25-1.35,.54-2,.75-5.86,2,.54,2.96,2.64,3.91,.07,.03,.14,.06,.2,.09-.14,.08-.32,.14-.62,.23-.66,.23-2.06,.33-2.99,.88-1.77,1.78,.42,2.65,1.77,3.3,.43,.21,1.8,.85,2.06,.98-.06,.02-.14,.05-.24,.08-.34,.1-1.34,.29-1.98,.65-.82,.47-.67,1.46-.04,1.94,.29,.27,.69,.5,1.08,.69-.34,.12-.68,.36-.74,.74-.14,.67,.63,1.09,1.17,.71,.06-.02,.18-.07,.27-.09,.06-.02,.05-.02-.02,0,.35-.17,1.62-.11,1.82-1.11"/><path class="cls-3" d="M107.81,89.1c-.26-.11-.7-.29-1.06-.43,.11-.03,.21-.05,.34-.09,.3-.05,2.09-.25,2.01-1.43-.02-1.25-1.49-1.47-2.33-2.01-.58-.32-1.19-.59-1.78-.88-.02-.01-.03-.02-.05-.04-.03-.03-.05-.04-.06-.06h0v-.04h0s.03-.03,.05-.04c.07-.03,.36-.16,.43-.19,.4-.2,.83-.29,1.24-.46,.81-.3,1.7-1.38,.9-2.07-1.14-.93-2.3-1.2-3.19-2.04,.77-.32,1.57-.56,2.36-.82,.91-.22,2.44-.93,1.63-2.03-.56-.56-1.05-.62-1.58-.98-.74-.42-1.45-.87-2.22-1.22-.15-.06-.32-.06-.47,0-.52,.2-.57,.99-.07,1.18,.96,.47,2.25,1.24,2.92,1.63-1.14,.45-2.37,.66-3.48,1.22-2.54,1.12,1.54,3.11,2.8,3.85-.68,.33-2.01,.47-2.52,1.35-.96,1.97,1.7,2.41,2.84,3.16,.2,.1,.56,.3,.82,.43-.54,.12-1.2,.23-1.92,.45-2.39,1.21,.3,2.5,1.54,2.89,.47,.21,.94,.41,1.34,.59-.55,.24-1.24,.51-1.76,.71-.36,.12-.74,.38-.73,.8,.06,1.13,1.07,.68,1.77,.36,.73-.32,1.5-.58,2.2-.98,1.77-1.46-.94-2.33-1.97-2.8"/><path class="cls-3" d="M116.2,86.78c-.8-.48-1.69-.82-2.56-1.19,.62-.26,1.54-.58,2.16-.78,1.15-.58,.52-1.72-.37-2.03-.62-.3-2.18-1.11-2.64-1.33,.01,0,.02-.02,.03-.02,.37-.21,1.66-.71,2.43-.93,.08-.01,.38-.07,.46-.11,.33-.13,.52-.53,.4-.85-.29-.51-.89-.76-1.31-1.16-.62-.46-1.15-1.09-1.82-1.46-.63-.2-1.15,.75-.62,1.15,.56,.5,1.15,.96,1.74,1.44-.72,.21-1.44,.47-2.1,.82-.75,.41-1.23,1.47-.52,2.05,.54,.38,1.87,1.04,2.76,1.47-1.19,.36-3.59,1.23-2.51,2.53,.74,.45,1.6,.77,2.35,1.08-.68,.12-1.31,.37-1.14,1.15,.2,.62,.91,.45,1.42,.31,.63-.14,1.31-.17,1.91-.46,.77-.41,.58-1.33-.05-1.68"/></g></g></g><g><path class="cls-5" d="M28.29,111.62c.42-.87,.2-.66,.46-1.55,.89-2.19,1.78-3.85,2.84-6.3,2.09-4.29,3.1-8.83,4.66-13.24,4.29-12.13,6.49-24.87,4.88-36.91-.39-3.24-1.05-6.39-1.62-9.58-.26-2.42-.44-4.18-1.39-6.13-.24-.45-.43-1.01-.95-1.18-.43-.12-.91,.16-1.12,.59-.29,.52-.52,1.03-1,1.82-1.35,2.33-2.85,4.59-4.14,6.95-1.95,3.52-4.02,7-5.59,10.67-1.38,3.42-2.5,6.93-3.55,10.42-.5,4.13-1.24,8.3-1.39,12.42,.08,5.36,.16,10.81,1.53,15.85,1.29,5.66,2.64,10.65,4.91,15.97v.02s0,.04,0,.06c.09,.66,1.07,.76,1.45,.12"/><g class="cls-13"><g><path class="cls-3" d="M42.15,46.89c-.31-.14-.64,.05-.79,.32-.04,.04-.17,.2-.28,.34h0c-.21-.45-.01-1.25-.57-1.94-.28-.25-.74-.24-.97,.07-.51,.69-1.1,1.72-1.44,2.24-.2-.63-.28-1.11-.49-1.88-.72-3.42-2.33,.33-3.37,1.56-.03,.11-.25,.25-.45,.38-.09-.31-.18-.61-.21-.78-.29-.97-.22-2.09-.61-3-.33-.16-1.01-.08-1.31,.13-1.3,1.01-1.76,2.72-2.58,4.1-.19,.41,.46,.7,.65,.28,.69-1.22,1.32-2.83,2.09-3.6,.26-.25,.36-.26,.62-.26,0,.5,.37,1.77,.36,2.14,.11,.6,.29,1.19,.45,1.77,.04,.11,.13,.2,.25,.23,1.5-.34,2.24-2.42,3.08-3.27,.12,.3,.31,.66,.28,.82,.23,.86,.29,1.85,.75,2.61,.37,.3,.8-.11,1.06-.38,.33-.45,.87-1.26,1.24-1.83,.04,.26,.08,.56,.14,.82,.59,1.96,1.45,1.12,2.22,.16,.33-.29,.34-.85-.09-1.04"/><path class="cls-3" d="M41.57,41.36c.26-.47,.79-.88,.83-1.43-.03-.36-.42-.6-.76-.47-.45,.25-.6,.83-.93,1.2-.11,.17-.26,.34-.38,.49-.11-.36-.18-1.1-.54-1.62-.52-.7-1.53-.31-1.8,.42-.02,.04-.04,.06-.05,.08-.25,.36-.45,.76-.75,1.08-.11,.13-.17,.2-.21,.24-.32-.51-.45-1.37-.93-2.03-.92-1.6-1.57,.08-1.9,.52-.05,.08-.31,.41-.38,.51h-.03c-.05-.03-.24-.11-.26-.15-.02-.02-.04-.04-.06-.05-.04-.24-.04-.52-.23-.68-.28-.24-.75,0-.7,.38,.07,.26,.04,.55,.18,.78,.29,.37,.75,.66,1.24,.63,.71-.13,1.1-1.18,1.29-1.36,.02-.02,.03-.03,.05-.05,.12,.17,.22,.31,.2,.32,.49,1.38,1.1,3.44,2.62,1.49,.38-.45,.74-1.11,.94-1.39,0,.02,.02,.04,.02,.06,.04,.11,.19,.84,.35,1.34,.14,.38,.46,.7,.83,.85,.66,.13,.94-.77,1.36-1.15"/><path class="cls-3" d="M43.63,57.95c-.43-.08-.61,.34-.77,.66-.05,.07-.11,.16-.19,.25-.18-.53-.54-1.87-.89-2.46-.08-.22-.31-.36-.54-.34-.97,.24-1.15,1.37-1.63,2.12-.2,.38-.41,.75-.61,1.13,0,0,0,.01-.01,.02-.01,.01-.02,.03-.05,.08-.03,.03-.04,.05-.05,.06h0s0,0-.01,.01c0,0,0,0,0,0-.31-.94-.67-2.3-.79-2.69-.11-.46-.17-.97-.51-1.33-.88-.8-1.79,.37-2.19,1.12-.73,1.04-1.08,1.84-1.57,2.57-.16-.92-.22-2.16-.34-3.15-.13-.85,.16-2.16-.74-2.03-.42-.06-.78,.23-1.01,.56-.41,.65-.54,.89-1.03,1.62-.32,.48-.74,1.12-1.07,1.66-.11-.91-.26-2.3-.25-3.07-.09-.65-.03-1.35-.23-1.97-.1-.15-.31-.21-.48-.15-.44-.04-1.21,.45-1.58,.98-.81,1.09-1.53,2.25-2.25,3.4-.24,.54-.88,1.19-.82,1.77,.12,.34,.62,.35,.76,.02,.97-1.76,2.18-3.88,3.43-5.15,.1-.08,.15-.11,.2-.13,.01,.46,.23,1.27,.17,1.64,0,1.24,.11,2.47,.33,3.69,.03,.15,.09,.31,.21,.4,.61,.46,.9-.45,1.19-.84,.73-1.04,1.63-2.58,2.17-3.28,.03,.46,.05,.91,.09,1.37,.15,1.21,.17,2.45,.47,3.63,.08,.22,.21,.46,.47,.5,.69,.01,1.01-.78,1.33-1.28,.47-.74,1.1-1.96,1.97-3.09,.03-.02,.06-.04,.09-.06h.01c.4,.78,.65,2.9,1.33,4.24,.33,.34,.86,.02,1.21-.14,.4-.28,.6-.83,.68-.91-.02,.14,.74-1.32,1.03-1.87,.39,1.08,.54,2.37,1.24,2.76,.49,.13,.84-.45,1.18-.72,.38-.43,.95-1.37,.08-1.58"/><path class="cls-3" d="M42.71,70.2c.34-.6,.32-.61,.52-.89,.14-.17,.18-.45,.06-.64-.86-1.08-1.45,.84-1.83,1.43-.07,.14-.13,.24-.18,.32-.04-.17-.07-.34-.12-.54-.22-.96-.25-2.68-1.61-2.59-.35,.07-.52,.42-.68,.71-.26,.25-1.08,2-1.33,2.16h-.05s-.07,.03-.09,.03h0c-.02-.11-.22-.72-.27-.85-.26-.69-1.22-3.85-2.26-2.95-1.95,1.69-2.42,4.22-3.02,3.63-.12-.28-.67-2.21-.87-3.53-.13-.46-.26-2.1-1.44-1.52-.5,.26-.74,.81-1.06,1.24-.73,.96-1.8,2.53-2.32,3.14,0-.01-.01-.02-.02-.03,0,.02,0,.01-.02-.04,0-.01-.01-.03-.02-.04,0,0,0,.02,.02,.03h0c-.55-1.4-.82-2.87-1.4-4.25-.07-.19-.27-.31-.46-.29-1.13,.55-1.92,1.66-2.71,2.61-.78,1.06-1.64,2.16-2.13,3.37-.03,.48,.67,.63,.85,.19,.68-1.28,1.79-2.88,2.99-4.21,.16-.3,.57-.56,.87-.77,.7,2.05,1.26,6.6,3.4,3.2,.76-.9,1.91-2.73,2.37-3.2,.16,.65,.57,2.9,.78,3.47,.13,.54,.19,1.2,.71,1.52,1.85,.89,2.39-1.68,3.15-2.54,.17-.32,.7-.96,.65-.88,0,0,0,0,.02-.01,.56,.79,.79,1.59,1.15,2.73,.13,.91,1.01,1.3,1.79,.82,.44-.29,.65-.79,.88-1.24,.15-.27,.45-.74,.77-1.25,.2,.51,.38,1.96,.51,2.37,.05,.41,.24,.88,.7,.93,.97,.12,1.32-.95,1.73-1.63"/><path class="cls-3" d="M42.82,80.69c-.03-.36-.42-.6-.75-.47-.3,.13-.43,.46-.62,.72-.23-1.15-.3-2.18-.69-3.12-1.16-1.08-1.79,1.17-2.21,1.93-.19,.39-.56,1.41-.59,1.36-.03,.04-.07,.09-.1,.12-.01,0-.03,.02-.03,.03h-.02c-.12-.37-.73-2.54-.82-2.96-.11-.58-.14-1.2-.46-1.71-2.06-2.45-3.72,3.4-4.39,4.71-.1,.18-.16,.3-.25,.4-.05-.18-.12-.37-.15-.57-.37-1.5-.64-2.69-.96-4.38-.3-.97-.17-4.8-1.74-2.52-1.2,1.64-2.17,4.26-2.84,5.66-.05,.17-.22,.29-.39,.39-.33-.77-.44-1.33-.62-2.24-.12-.6-.51-1.17-1.14-1.28-.94-.25-2,.07-2.48,.96-.53,1.02-1.16,2.02-1.59,3.07-.03,.45,.64,.61,.82,.18,1.33-2.35,1.55-3.89,3.21-3.33,.56,.33,.45,2.4,1.33,3.62,.19,.16,.44,.11,.61-.03,.29-.16,.59-.31,.79-.57,1.11-1.8,1.73-3.94,2.82-5.54,0,.06,.01,.12,.01,.18,.25,1.65,.59,3.29,.95,4.92,.18,.79,.35,1.58,.57,2.36,.03,.2,.16,.4,.37,.45,.5,.11,1.14-.54,1.38-.93,.71-1.17,1.03-2.54,1.64-3.75,.04-.12,.83-1.15,.99-1.34,0,0,.02,0,.03,0,.02,0,.04,.01,.07,.03,.03,.01,.04,.02,.06,.03,.01,.01,.02,.02,.03,.03,.12,.16,.06,.07,.19,.43,.04,.59,.7,3.03,.88,3.59,.09,.47,.28,1.03,.81,1.14,1.2,.28,1.54-1.17,1.91-2,.15-.35,.4-.83,.58-1.19,.07,.38,.15,.85,.26,1.39,.27,.87,.04,2.2,1.08,2.03,.31-.21,1.31-.97,1.44-1.79"/><path class="cls-3" d="M39.93,92.08c-.1,.1,.45-.55,.29-.9-.14-.41-.71-.45-.93-.11,0-.07-.02-.12-.03-.2-.06-.95-.42-2.66-1.3-2-.97,.58-1.49,2.21-1.84,3.01-.14-.71-.28-1.57-.46-2.36-.27-.61-.42-2.14-1.38-1.69-1.29,.34-1.98,2.93-2.39,3.43-.12,.23-.3,.44-.47,.62-.15-.36-.27-.76-.41-1.28-.32-.85-.21-2.36-1.21-3.26-.2-.3-.69-.25-.83,.09-.77,1.05-2,4.02-2.67,5.16h0c-.57-1.92-.98-3.93-2.06-5.66-.18-.27-.62-.22-.74,.07-.62,1.26-1.3,2.49-1.85,3.79-.29,.99-.85,1.98-.94,2.99,.12,.33,.62,.35,.75,.02,.45-1.22,.8-2.48,1.39-3.64,.35-.69,.71-1.39,1.06-2.08,.72,1.48,1.24,3.84,1.78,5.57,.08,.22,.35,.35,.58,.26,1.56-1.33,1.94-3.56,3.05-5.25,.05-.08,.08-.14,.12-.2,.49,.95,.46,2.76,1.19,4.14,.61,1.65,1.56,.03,2.25-.99,.55-1.03,1.07-2.32,1.5-2.69,.04,.09,.08,.19,.13,.29,.52,1.18,.42,2.93,.96,4.04,.46,.44,1.18-.09,1.43-.53,.37-.62,1.04-2.3,1.15-2.43,.04-.06,.07-.1,.1-.14,.11,.44,.1,.9,.25,1.55,.13,1.25,.9,1.52,1.56,.39"/><path class="cls-3" d="M36.04,101.36c.16-.44,.59-.88,.45-1.36-.1-.3-.46-.46-.76-.35-.29,.18-.45,.48-.59,.8-.18-.58-.56-1.31-1.18-.82-.83,.69-1.36,1.91-1.83,2.8-.13-.57-.32-1.24-.65-1.66-.25-.28-.41-.8-.86-.77-1.12,.41-1.4,1.75-1.63,2.79-.11,.49-.1,.61-.24,.9h0c-.19-.22-1.37-2.41-1.71-2.88-.27-.51-.38-1.16-.88-1.52-1.2-.57-1.21,1.51-1.4,2.23-.4,1.74-1.09,3.46-1.31,5.23,.08,.46,.79,.43,.85-.03,.36-1.87,1.03-3.67,1.41-5.53,.06-.38,.1-.66,.16-.87,.23,.48,.65,1.38,1.05,1.95,.44,.71,.59,.97,.91,1.63,.21,.41,.64,.76,1.12,.72,.55-.1,.76-.73,.88-1.2,.21-1.01,.46-1.89,.77-2.22,.24,.34,.36,.55,.51,1.09,.17,.3,.07,1.2,.49,1.75,.5,.37,.98-.28,1.22-.66,.24-.42,.96-1.84,.96-1.76,.11-.19,.25-.4,.39-.59,.05,.18,.07,.32,.11,.59,.05,.36,.3,.7,.68,.75,.8,0,.76-.54,1.09-1.02"/></g></g></g><g><path class="cls-3" d="M97.48,105.91c.11-1.26-1.21-.74-1.75-.93-2.01-.22-3.97-.58-5.91-1.02-6.86-1.63-13.39-2.17-20.27-2.56-10.22-1.11-21.8-.25-31.12,6.66-2.03,1.58-4.2,3.38-5.61,5.49-.01,.12,.02,.23,.07,.32-.02,.31,.13,.59,.51,.68,1.51-.09,4.5-.22,6.67-.15,2.59,.34,6.3,.97,9.63,1.45,5,.52,10.16,.21,15.28-.03,9.14-.91,18.85-1.02,27.28-6.48,1.59-.95,3.19-1.87,4.78-2.83,.22-.13,.4-.36,.44-.6"/><g class="cls-12"><g><path class="cls-5" d="M43.3,110.91c-1.19-.31-2.21-.45-3.15-.83,.23-.28,.43-.48,.62-.66,.6-.7,1.2-1.41,1.73-1.98,.62-1.02-1.51-.84-2.07-.95-.82,.01-1.71-.23-2.51-.06-.27,.18-.17,.65,.16,.69,1.18,.08,2.36,.09,3.53,.24-.42,.45-1.1,1.24-1.37,1.55-.51,.43-1.4,1.29-.52,1.81,1,.44,2.54,.7,3.36,.93-.63,.6-2.58,2.11-3.53,2.78-.37,.41-1.64,.67-1.23,1.36,.38,.48,.89-.1,1.27-.3,.83-.6,2.14-1.58,2.58-2.03,.77-.68,3.03-2.05,1.13-2.56"/><path class="cls-5" d="M47.49,112.23c.06-.05,.13-.09,.2-.14,1.21-1.02,2.77-1.58,3.89-2.7,.92-1.62-3.14-1.76-4.1-1.92-.15-.01-.61-.08-.85-.11,.46-.84,1.09-2.75,.82-3.97-.19-.38-.61-1.26-1.01-1.36-.38-.07-.67,.4-.44,.7,.11,.13,.53,.82,.57,.86,0,.02,.02,.04,.02,.05,.13,.89-.21,2.03-.52,2.85-.13,.48-.51,.62-.38,1.21,.09,.29,.37,.45,.66,.5,1.4,.17,3.8,.39,4.42,.79-.29,.27-.88,.64-1.36,.89-.88,.49-1.7,1.09-2.52,1.68-.4,.21-.9,.59-.48,1.04,.28,.45,.84,.5,1.32,.56,1.02,.21,1.78,.33,2.56,.64-1.01,.7-2.01,1.42-3.03,2.1-.36,.28-.97,.41-1.11,.88-.05,.3,.22,.58,.52,.55,.31-.07,.55-.32,.82-.47,1.23-.81,2.42-1.69,3.61-2.55,1.24-1.52-2.46-1.87-3.62-2.09"/><path class="cls-5" d="M59.93,112.95c-1.86-.71-4.19-.88-3.99-1.68-.21,.14,1.25-1.42,1.29-1.46,.68-.71,1.68-1.08,2.26-1.86,.97-2.15-4.23-1.99-5.66-2.24h0c1.14-.67,2.34-1.51,3.39-2.03,.65-.27,1.27-.6,1.72-1.16,.13-.15,.1-.4-.05-.52-.45-.2-.97-.26-1.44-.41-1.93-.45-3.88-.85-5.82-1.32-.45-.07-.56,.63-.11,.7,1.83,.44,3.68,.84,5.51,1.26,.23,.01,.57,.14,.87,.24-.2,.14-.41,.25-.71,.38-1.19,.52-2.28,1.26-3.4,1.91-.19,.09,.16-.07-.17,.09-.21,.1-.42,.22-.55,.42-.25,.32-.26,.84,.09,1.09,.55,.33,1.25,.23,1.87,.33,1.28,.09,3.04,.42,3.61,.68l.04,.03h0s0,.05,0,.08c0,.02,0,.03,0,.04v.02s-.05,.05-.07,.07c-1.09,.74-2.15,1.53-2.99,2.56-.78,.57-.84,1.61-.12,2.25,.58,.5,1.39,.62,2.11,.83,.3,.06,1.12,.31,1.52,.42-.55,.53-2.39,1.57-3.44,2.24-.3,.2-1.09,.7-.99,.64-.33,.11-.45,.54-.25,.81,.5,.6,1.14-.2,1.61-.45,.85-.54,1.68-1.09,2.52-1.64,.72-.44,2.39-1.44,1.33-2.33"/><path class="cls-5" d="M68.46,114.82c-.94-.46-1.96-.73-2.94-1.11-.19-.08-.48-.2-.6-.26,.28-.33,.6-.51,1.15-.91,1.12-.92,2.59-1.33,3.59-2.39,.38-.51,.82-1.36,.21-1.86-1.45-.93-4.16-1.23-5.33-1.53,.77-.53,1.57-1.01,2.36-1.52,1.7-1.12,3.05-1.64,4.65-2.67,1.37-1.46-.21-1.48-1.37-1.68-1.87-.13-3.85-.6-5.7-.36-.37,.25-.22,.88,.22,.93,1.76,.06,3.5,.26,5.25,.46,.17,.01,.36,.05,.54,.09-1.79,1.06-4.16,2.28-6.11,3.63-.43,.38-1.41,.67-1.24,1.37,.22,.38,.68,.6,1.09,.72,1.78,.47,3.18,.51,4.66,1.21,.11,.05,.18,.07,.23,.09-.07,.25-.33,.69-1.09,1.12-1.38,.79-2.85,1.53-3.98,2.67-.22,.2-.33,.52-.29,.82,.06,.41,.42,.67,.76,.84,.92,.46,1.92,.69,2.87,1.09,.07,.02,.23,.1,.39,.17-.3,.28-.72,.48-1.23,.86-.89,.52-1.37,.97-2.09,1.21-.11,.03-.28,.1-.31,.19-.21,.24-.16,.63,.09,.83,.37,.3,.81,0,1.17-.16,.91-.53,1.77-1.15,2.64-1.75,.81-.47,1.68-1.6,.4-2.1"/><path class="cls-5" d="M81.9,113.74c-.37-.27-.85-.33-1.29-.43-1.18-.26-2.93-.42-3.63-.69,.02-.02,.04-.04,.06-.06,1.34-1.15,2.42-1.45,4.06-2.14,.53-.24,1.15-.79,.95-1.43-.41-.62-1.07-.71-1.97-1.01-1.55-.49-2.73-.66-3.77-1.07-.05-.02-.1-.07-.17-.19,.09-.08,.19-.17,.31-.28,1.39-1.05,2.83-2.03,4.14-3.2,.28-.19,.24-.61-.01-.81-.3-.36-.58-.75-.91-1.08-.4-.46-.99-.61-1.56-.71-.67-.12-1.34-.39-2.01-.4-.5,.09-.47,.87,.04,.93,.87,.21,2.08,.42,2.56,.61,.15,.06,.53,.49,.92,.97-.48,.34-1.29,1.22-1.68,1.39-.96,.78-2.31,1.32-2.97,2.38,.02,.4,.22,.76,.61,1.17,.31,.35,1.87,.67,1.75,.64,1.18,.32,2.72,.72,3.45,1.02-.32,.19-.74,.32-1.3,.55-.99,.36-4.53,1.94-3.62,3.29,.69,.72,1.77,.73,2.69,.89,.45,.06,1.64,.3,2.26,.42-.45,.33-1.25,.76-1.83,1.08-1.25,.67-1.84,1.08-3.18,1.62-.44,.08-.8,.53-.5,.95,.2,.3,.6,.27,.88,.11,.66-.27,1.3-.61,1.93-.94,1.24-.8,2.68-1.35,3.79-2.33,.3-.34,.36-.93,0-1.25"/><path class="cls-5" d="M90.02,114.69c1.04-.71,2.16-1.33,3.09-2.16,.35-.43,.24-1.2-.35-1.34-1.14-.27-2.3-.49-3.47-.54-.63-.04-1.17-.11-1.38-.23-.04-.02-.08-.05-.12-.07,.88-.86,2.31-1.17,3.61-2.33,.87-.47,.44-1.29-.37-1.48-1.78-.27-3.59-.31-5.33-.83,.2-.39,.8-.67,1.45-1.45,.67-.68,1.4-1.4,1.55-2.38,.09-.51-.68-.75-.88-.26-.18,1.04-1.7,2.28-2.73,3.2-.39,.35-.75,1.25-.33,1.68,1.5,.56,3.14,.76,4.73,.91,.13,0,.52,.05,.84,.09-.05,.04-.11,.08-.16,.12-.22,.17-1.4,.81-1.18,.69-.5,.28-2.23,.95-2.66,2.03-.16,.69,.8,1.01,1.28,1.28,1.16,.37,2.4,.24,3.58,.54,.08,.01,.16,.03,.24,.05-.77,.51-1.92,1.23-2.64,1.77-.06,.04-.12,.08-.18,.11,.02,0,.07-.03,.1-.05-.08,.03-.14,.07-.2,.13-.22,.17-.27,.53-.13,.76,.28,.57,1.44,.4,1.6-.19,0-.02,0-.04,0-.05"/></g></g></g><g><path class="cls-3" d="M12.28,127.52c.18-.54,.87-2.31,1.18-3.46,.11-.21,.23-.44,.38-.74,1.49-2.6,2.58-5.34,3.2-8.17,.95-3.3,1.3-7,1.93-9.69,.21-2.88,.17-5.74,.18-8.6-.04-4.72-.29-9.44-1.43-13.89-1.27-4.3-2.26-7.68-3.62-11.99-.8-1.89-.99-3.43-1.6-5.68-.67-2.62-1.58-5.14-2.24-7.77-.09-.7-.8-1.57-1.52-.75-.5,.83-.34,1.93-.64,2.84-1.15,4.9-3.6,11.28-5.24,16.81C.39,83.73-.15,91.37,.03,98.67c-.22,3.86,1.29,8.52,1.89,12.76,.03,1.43,.46,2.71,1.22,3.82,1.46,2.69,3.17,5.21,4.82,7.77,.41,.62,.84,1.22,1.27,1.83,.15,.31,.29,.63,.42,.96,.53,1.15,.73,1.67,1.39,2.38,.44,.27,1.16-.11,1.24-.66"/><g class="cls-10"><g><path class="cls-5" d="M14.9,64.16c.12-.39,.49-.78,.38-1.21-.11-.3-.5-.41-.75-.23-.27,.25-.34,.66-.5,.99-.19-.79-.14-1.44-.72-2.27-1.12-.7-1.7,1.07-2.33,1.7-.16,.19-.85,1.14-.72,.97-.05,.05-.11,.09-.17,.13h0s-.04,0-.06,0c-.02,0-.04-.02-.06-.03-.24-.24-.73-2.4-1-3.25-.06-.21-.04-.49-.26-.6-.2-.14-.51-.04-.59,.18-.82,1.53-1.41,2.58-2.48,3.98-.14,.2-.42,.34-.38,.62,.03,.36,.52,.51,.74,.22,.83-.86,1.39-1.94,2.03-2.94,.08-.18,.21-.39,.33-.58,.15,.53,.31,1.06,.44,1.6,.13,.47,.22,1.02,.56,1.39,.67,.6,1.46,.16,1.88-.51,.49-.61,1.15-1.59,1.55-2.01,.11,.37,.26,1.81,.77,2.74,.72,.8,1.08-.31,1.36-.86"/><path class="cls-5" d="M16.77,69.81c.2-.3,.75-.96,.66-.85,.18-.13,.29-.38,.22-.59-.76-1.72-2.57,2.17-3.16,2.71-.04,.04-.07,.08-.11,.12-.02-.03-.04-.05-.05-.07-.33-.36-.85-2.05-.85-2.25-.17-.86-.49-2.72-1.74-2.17-1.28,1.36-1.91,3.62-2.77,4.76-.04,.03-.08,.06-.13,.09-.03,.01-.07,.03-.11,.05-.05,.02-.1,.03-.13,.04-.04,0-.08,.01-.12,.02-.38-.44-.8-2.67-1.54-3.7-1.03-2.35-3.65,3.07-4.32,3.91-.53,.88-1.05,1.75-1.54,2.65-.05,.1-.05,.22,0,.33,.13,.36,.67,.38,.81,.02,1.32-2.32,2.36-4.2,4.05-6.33,.04-.07,.12-.13,.21-.19,.58,.9,.81,1.95,1.25,3.14,.22,.96,.97,1.35,1.86,.89,.82-.4,1.08-1.36,1.44-2.13,.56-1.02,.93-1.79,1.48-2.54,.04,.1,.09,.26,.18,.59,.15,.67,.55,3.6,1.84,4.05,1.3-.03,1.83-1.7,2.59-2.56"/><path class="cls-5" d="M18.27,76.6c-.35-.14-.72-.24-1.1-.24-.19-.11-.37-.22-.58-.26-.34-.06-.69,.1-.86,.4-.92,1.47-1.44,4.07-2.14,4.55-.38-.37-1-1.88-1.42-3.11-.31-.79-.55-1.96-1.54-2.1-.48-.02-.6,.55-.82,.87-.67,1.18-1.57,2.92-2.04,3.67-.08,.12-.17,.23-.27,.34-.08-.26-.19-.58-.22-.69-.66-1.83-1.85-7.54-3.77-3.08-.97,1.7-1.95,3.4-2.8,5.16-.05,.12-.05,.25,0,.37,.14,.4,.75,.42,.91,.02,.96-1.91,2.5-4.87,3.32-6.11,1.82,2.93,1.24,9.75,5,2.27,.27-.48,.53-.96,.8-1.44,.48,.98,1.05,3.54,2.05,4.69,1.36,1.41,2.76-1.3,3.14-2.83,.12-.5,.49-1.21,.69-1.6-.03-.02-.04-.03-.04-.03,.02,.01,.03,.02,.04,.03h0s.04,.02,.08,.05c.62,.18,.58,.03,1.01,.21,.03,.13,.06,.25,.17,.34,.2,.24,.58,.26,.82,.09,.64-.57-.03-1.54-.42-1.57"/><path class="cls-5" d="M19.15,91.86c.11-.39,.45-.71,.48-1.11,.04-.43-.46-.77-.86-.61-.41,.31-.64,.78-.82,1.28-.01-.06-.03-.1-.04-.16-.6-1.53-.36-3.16-1.7-4.63-1.22-1.33-2.23,3.02-2.66,3.77-.24,.54-.35,.66-.47,.78-.05,.03-.09,.06-.13,.09-.88-1.41-1.28-3.35-2.24-5.01-1.18-1.47-3.43,4.42-3.79,5.49-.09,.21-.15,.35-.2,.46-.07-.13-.14-.27-.24-.44-.46-.91-1.35-2.98-1.9-4.38-.32-.73-.38-.98-.86-1.51-.21-.17-.5-.26-.76-.17-.39,.1-.68,.41-.92,.72-1.25,1.66-2.25,3.48-3.3,5.26-.25,.55,.62,.94,.86,.38,1.12-1.86,2.71-4.87,3.58-5.43h0c.52,.83,1.44,3.8,2.24,5.43,.35,.7,.37,.79,.71,1.36,.16,.27,.46,.48,.78,.35,.91-.54,1.19-1.65,1.53-2.58,.47-1.28,1.11-2.56,1.72-3.53,.01,.03,.02,.04,.03,.07,.54,1.18,1.13,3.26,2.16,4.7,.26,.37,.74,.25,1.02-.02,1.36-.81,1.83-3.08,2.4-4.32,.21,.38,.27,.71,.37,1.17,.36,1.88,1.66,7.39,3.01,2.6"/><path class="cls-5" d="M21.88,104.12c.42-.58-.3-1.35-.89-.93-.04,.04-.06,.07-.09,.1-.15-.69-.12-1.26-.46-2.19-.21-.58-.95-.98-1.47-.53-.56,.48-.68,1.24-.98,1.87-.14,.32-.5,1.09-.74,1.63-.58-1.59-.92-4.04-2.15-5.46-.96-1.81-1.82,.07-2.31,1.09-.36,1.1-.64,1.84-1.08,2.58-.52-1.26-.84-2.86-1.03-3.74-.15-1.1-.6-2.86-2.06-2.45-.4,.1-.59,.48-.73,.84-1.21,2.19-1.5,4.63-2.13,6.53-.01-.03-.03-.07-.04-.1-.49-1.22-1.06-2.43-1.66-3.59-.36-.39-.88,.05-1.3,.12-1,.22-1.87,.85-2.2,1.85-.31,.87-.67,1.72-1.03,2.58-.05,.12-.05,.26-.01,.38,.15,.42,.78,.44,.95,.03,.59-1.17,.91-2.69,1.54-3.38,.05-.04,.14-.11,.19-.14,.02,0,.02-.01,.04-.02,.36-.18,.76-.28,1.15-.4,.2,.54,.82,1.51,.91,1.92,.34,.65,.46,1.42,.91,2.01,1.11,1.35,1.68-.74,1.93-1.62,.53-2.08,.91-3.71,1.95-5.81,0,0,.01,.02,.02,.02,.38-.23,1.39,10.09,3.53,5.86,.77-1,1-2.24,1.51-3.36,.03-.07,.07-.15,.12-.22,.57,.87,.84,1.58,1.16,2.84,.39,.84,.85,4.52,2.27,3.35,.75-.79,1.36-2.52,1.76-3.51,.06,.33,.11,.75,.21,1.29,.18,.53,.21,1.36,.81,1.58,.62,.1,1-.3,1.43-1.02"/><path class="cls-5" d="M21.27,113.51c.21-.62-.67-1.08-1.07-.56-.24,.26-.42,.57-.62,.86-.08-.59-.15-1.28-.31-1.86-.47-1.77-1.67-2.35-2.71-.56-.66,1.12-1.04,2.38-1.55,3.57-.59-1.69-.88-3.57-1.96-4.99-1.58-1.41-2.23,.72-2.78,1.9-.37,.91-.75,2.01-.99,2.92-.43-.98-1.02-2.35-1.52-3.33-2-3.37-2.04-6.32-3.99-.68-.65,1.77-1.4,3.53-1.95,5.33-.04,.59,.83,.78,1.05,.24,.84-2.31,1.68-4.63,2.62-6.91,.06,.12,.12,.24,.18,.36,.67,1.31,1.39,2.6,1.94,3.97,.5,.99,.77,2.12,1.4,3.03,.66,.49,1.23-.32,1.24-.95,.17-.95,1.43-4.28,1.9-5.04,.69,.59,1.44,4.04,1.97,5.26,.19,.42,.73,.58,1.15,.42,.59-.28,.88-.91,1.1-1.49,.34-.86,.69-1.72,1.06-2.57,.25-.44,.31-.58,.43-.72,.2,.36,.41,1.11,.51,2.04,.11,.62,.06,1.35,.52,1.84,.49,.4,.93-.15,1.23-.5,.42-.49,.82-1.03,1.15-1.58"/><path class="cls-5" d="M16.5,122.51c.27-.56-.44-1.13-.94-.76-.26,.27-.43,.62-.61,.97-.38-1.03-.91-2.16-2.12-1.91-.84,.67-1.09,2.06-1.39,3.15-.09-.35-.2-.7-.36-1.02-.58-1.06-3.39-1.41-4.04-.31-.16,.62-.78,1.45-.71,2.02,.14,.39,.73,.41,.89,.02,.24-.53,.46-1.06,.68-1.6,.46-.27,1.98-.01,2.2,.21,.3,.31,.56,1.91,.62,2.03,.1,.42,.2,1.09,.77,1.04,.53-.1,.67-.78,.86-1.21,.39-1.25,.44-1.96,.99-3.1,.4,.38,.46,1.14,.87,2.09,.9,1.29,1.84-.83,2.28-1.61"/></g></g></g><g><path class="cls-5" d="M77.81,129.45c.05-.78-.75-1.1-1.36-1.31-1.48-.46-3.09-.62-4.6-1.01-8.35-1.79-16.73-4.1-24.93-4.48-6.71-.31-13.16,.17-19.56,1.86-3.71,1.14-7.14,3.38-10.32,5.74-.32,.17-.47,.42-.53,.65-.32,.31-.43,.84-.12,1.14,.45,.34,1.44,.39,2.05,.49,.97,.02,1.83,.36,2.74,.57,1.31,.25,2.24,.95,3.75,1.63,.72,.45,1.4,.96,2.2,1.28,6.5,2.32,13.67,2.78,20.92,1.95,5.4-.46,10.81-1.13,16.19-2.35,3.72-.71,7.4-2.03,10.9-3.77,1.06-.51,2.42-1.13,2.67-2.39"/><path class="cls-3" d="M60.4,132.45l.02-.02s0,0-.02,.02"/><g class="cls-11"><g><path class="cls-3" d="M28.54,131.99c-.19-.42-.59-.7-.93-1-.96-.76-2.08-1.25-3.22-1.66,.16-.12,.33-.25,.5-.36,.81-.67,2.15-1.09,2.34-2.25,.02-.28-.17-.57-.43-.68-.65-.34-1.3-.67-1.99-.93-.93-.36-1.88-.68-2.85-.89-.18-.03-.38,.02-.53,.12-.52,.35-.31,1.22,.31,1.3,.99,.21,2.08,.61,3.23,1.1,.14,.06,.26,.12,.38,.18-.72,.49-2.06,1.21-2.6,1.99-.32,.9,.59,1.68,1.37,1.92,1.4,.52,1.98,.84,2.95,1.71-.27,.7-2.33,1.79-3.75,2.46-.5,.3-1.25,.34-1.54,.89-.34,.96,.76,1.37,1.46,.84,1.7-.78,3.44-1.6,4.82-2.89,.45-.48,.73-1.21,.5-1.85"/><path class="cls-3" d="M37.46,137.1c-.72-2.04-2.73-2.48-3.93-3.53,.85-.68,2.88-1.71,2.05-3.22-.85-1.26-2.49-1.51-3.83-1.98-.04-.01-.09-.03-.13-.05,.4-.15,.87-.32,1.41-.56,1.1-.47,2.23-.88,3.28-1.46,.22-.08,.41-.27,.46-.51,.2-1.12-1.21-1.51-2.01-1.88-1.59-.69-3.23-1.26-4.87-1.83-.18-.08-.39-.08-.58-.02-.63,.21-.66,1.17-.04,1.42,1.47,.54,3.92,1.35,5.25,1.98-1.29,.53-2.59,1.06-3.9,1.54-3.98,1.99,.51,2.72,2.7,3.65,.38,.16,.56,.28,.65,.38-.39,.42-1.11,.81-1.81,1.44-.89,.71-.6,1.78,.23,2.39,1.33,1.02,2.76,1.76,3.22,2.38-.44,.51-.57,.51-1.59,.95-1.41,.7-2.83,.84-3.64,1.44-.39,.45-.2,1.19,.34,1.42,.76,.24,1.51-.32,2.24-.5,1.64-.73,4.4-1.28,4.49-3.46"/><path class="cls-3" d="M47.05,136.15c-1.06-.95-4.07-2.38-5.03-2.73-.07-.03-.19-.13-.29-.21,.24-.16,.52-.36,.7-.39,.64-.27,1.31-.5,1.88-.9,.43-.3,1.26-1.19,1.12-1.05,1.46-1.53-2.16-2.56-3.45-3.19,.67-.31,1.87-.74,2.87-1.39,.84-.68,.89-2.06,.3-2.91-.43-.54-1.13-.73-1.75-.97-.77-.29-1.51-.76-2.31-.94-.8-.06-1.06,1.14-.32,1.43,.97,.46,2.8,1.16,3.13,1.36,.02,.02,.03,.03,.04,.04h0c.05,.14,.05,.12,.07,.44,0,.05-.02,.16-.03,.23,0,.02-.02,.05-.03,.07-.02,.02-.03,.04-.04,.06-.07,.05-.16,.11-.23,.15-1.48,.63-3.72,1.33-3.87,2.51-.06,.35,.14,.72,.47,.86,.86,.46,1.73,.93,2.66,1.26,.44,.19,.61,.25,.76,.35-.32,.31-.53,.46-1.23,.73-.9,.42-2.17,.74-2.66,1.65-.12,.55,.22,1.14,.5,1.6,.74,.88,1.94,1.04,2.9,1.57,1.37,.74,2.32,1.08,2.89,1.76-.26,.2-.79,.61-.97,.68-.11,.02-2.63,1.04-3.54,1.33-.28,.12-.63,.15-.85,.39-.79,.72,.16,1.93,1.09,1.46,1.83-.88,8.28-2.47,5.22-5.27"/><path class="cls-3" d="M58.43,135.37c-.7-.81-1.87-1.04-2.81-1.47-1.11-.44-3.19-1.18-3.54-1.47-.11-.09-.21-.18-.3-.27,.91-.43,2.33-.79,3.48-1.62,.13-.16,.2-.37,.17-.58-.21-.72-.73-1.39-1.42-1.7-.74-.31-1.51-.53-2.26-.82,.41-.18,.77-.35,.92-.45,.8-.56,1.8-.65,2.07-1.45-.33-1.31-.78-2.87-1.77-3.86-.74-.37-1.49-.88-2.28-1.1-.79-.06-1.06,1.13-.32,1.43,.25,.13,1.75,.92,1.63,.82,.02,.02,.05,.03,.07,.05,.28,.17,.63,1.22,.99,2.2-.27,.17-.61,.39-.91,.52-.41,.26-1.59,.73-2.37,1.01-.73,.28-.54,1.22,.01,1.58,1.25,.87,2.8,1.05,3.61,1.57-.73,.34-1.46,.65-2.23,.88-.46,.17-.84,.47-1.17,.82,.06-.06,.22-.21,.1-.09-.22,.16-.41,.41-.4,.69,0,.66,1,1.32,1.47,1.74,1.65,1.03,4.72,1.83,5.85,2.51-.19,.13-.29,.2-.34,.23-1.96,.75-3.83,1.37-5.63,2.16-.36,.13-.59,.22-.72,.31-.37,0-.75,.19-.83,.68-.1,.48,.19,1.02,.7,1.08,.62,.03,1.15-.45,1.73-.64,1.83-.85,3.79-1.39,5.62-2.24,.95-.4,1.45-1.6,.88-2.5"/><path class="cls-3" d="M70.24,137.53c.42-1.88-5.55-3.46-7.91-4.37,.22-.1,.52-.18,1.01-.32,1.48-.42,2-.49,3.25-.78,2.43-1.65-2.86-3.17-4.67-3.7,.27-.07,.54-.14,.8-.21,1.36-.37,2.71-.75,4.07-1.1,.34-.1,.71-.24,.86-.59,.24-.47-.11-.97-.58-1.13-.68-.4-1.39-.74-2.09-1.1-1.42-.72-2.84-1.45-4.25-2.19-.16-.07-.34-.07-.5-.01-.55,.19-.57,1.02-.04,1.24,1.71,.92,3.45,1.79,5.16,2.69-1.4,.34-3.28,.82-3.88,.95-1.02,.27-1.45,.25-2.22,.61-.58,.38-.55,1.23,0,1.62,1.29,.69,2.93,.92,4.19,1.37,.41,.11,.81,.26,1.2,.43-.62,.12-1.25,.24-1.87,.37,.35-.08,0,0-.19,.03-.77,.13-1.53,.43-2.09,1-.29,.28-.16,.16-.1,.09-.07,.07-.15,.14-.22,.21-.38,.43-.33,1.11,.15,1.44,2.24,1.3,5.38,1.84,7.45,2.92-.51,.09-1.09,.18-1.77,.34-1.12,.34-2.25,.68-3.32,1.14-.63,.35-.53,.06-1.09,.56-.54,.62,.02,1.67,.84,1.55,.49-.08,.91-.35,1.36-.56,1.29-.48,2.6-1.04,3.37-1.18,.95-.35,2.63-.31,3.07-1.36"/><path class="cls-3" d="M76.8,137.56c-1.18-.73-3.04-1.51-4.04-2.08,.56-.15,1.3-.22,2.46-.55,.45-.17,1.06-.31,1.12-.88,.11-.61-.5-.92-.93-1.2-1.3-.88-3.02-1.45-3.76-2.05,.06-.03,.12-.06,.2-.09,.72-.28,1.49-.41,2.21-.68,1.12-.42,1.01-1.83-.02-2.29-.85-.45-1.04-.42-1.56-.84h-.01s0-.06,.01-.08c.11-.38,.36-.64,.4-.68,.54-.11,1.17-.14,1.62-.46,.53-.43,.1-1.36-.58-1.27-.61,.2-1.3,.17-1.86,.47-.66,.54-1.16,1.4-1.09,2.28,.17,.86,1.08,1.32,1.82,1.65-.46,.13-1.04,.29-1.34,.39-1.74,.64-2.42,1.19-.94,2.76,.58,.5,2,1.19,2.94,1.65-.54,.09-1.14,.19-1.79,.42-.71,.3-1.2,1.16-.93,1.92,.33,.79,1.18,1.1,1.88,1.48,1.42,.69,2.77,1.6,3.7,1.75,.79-.06,1.12-1.15,.49-1.64"/></g></g></g></g><path class="cls-4" d="M46.72,96.41c2.02-1.39,3.66-2.97,5.34-4.48,.08,.02,.16,0,.24-.02,.39,.21,.35,.07,.87,.13,2.09-.15,4.18-.51,6.27-.58,2.37,.34,6.27,0,9.16,.03,8.37-.82,16.71-2.05,25.08-2.93,5.99-1.23,12.05-2.13,17.95-3.75,.34-.15,.8-.13,.99-.48,.15-.35-.2-.75-.57-.6-5.94,1.74-12.65,2.76-19.06,3.98-8.07,.85-16.12,1.97-24.19,2.8-3.35-.04-6.15,.28-9.2-.06-2.11,0-4.21,.36-6.32,.52-.06,.01-.11,.01-.15,.01,.7-.6,1.41-1.18,2.18-1.72,2.37-2.14,5.71-4.18,7.51-6.22,2.65-1.94,4.46-4.01,6.65-6.14,.86-.51,1.62-.83,2.74-1.34,1.51-.7,2.22-1.31,3.94-1.88,3.2-1.34,6.33-2.87,9.64-3.93,6.6-3.01,13.25-5.91,19.9-8.81,4.82-2.28,9.63-4.61,14.28-7.24,.41-.29-.03-.98-.47-.66-10.56,5.99-22.67,10.73-34.02,15.91-3.26,1.02-6.33,2.51-9.48,3.79-2.13,.86-4.54,2.05-4.88,2.2,3.27-4.27,5.28-8.51,8.41-12.77,1.94-2.5,4.24-4.72,6.15-7.25,1.89-2.27,3.35-4.88,5.27-7.11,2.43-2.66,4.34-5.74,6.67-8.48,1.66-1.94,3.68-4.06,4.69-5.93,.23-.4,.69-.71,.7-1.19-.03-.32-.39-.55-.69-.43-.59,.51-.98,1.17-1.32,1.75-.72,.93-1.44,1.86-2.17,2.77-.72,.8-1.46,1.58-2.13,2.42-.91,1.01-1.69,2.1-2.49,3.19-1.74,2.09-3.49,4.18-5.2,6.3-4.08,4.76-8.23,9.5-11.74,14.71-1.42,1.91-3.15,4.88-3.91,6.59-.37,.53-.73,1.05-1.1,1.57,.25-1.95,.58-4.52,1.12-6.45,.23-2.92,.82-5.79,1.14-8.7,1.45-6.67,3.43-13.11,5.22-19.43,1.23-4.52,3.66-9.39,5.46-14.1,.22-.76,.86-1.53,.87-2.29-.12-.34-.64-.37-.78-.02-1.97,4.56-3.85,9.17-5.67,13.8-2.03,6.7-3.95,13.74-5.79,20.8-.47,3.27-1.04,6.51-1.37,9.79-.65,2.47-1.15,5.99-1.38,8.02-.01,.08-.05,.19-.08,.31-.95,1.29-2.11,2.68-4.26,4.97-1.51,1.62-4.6,3.78-6.74,5.49-1.62,1.29-3.37,3.31-4.6,4.31-.96,.8-1.93,1.59-2.9,2.38-.71-2.46-.79-5.15-.96-8.19,.09-1.79,.39-4.67,.49-6.9,.78-8.36,1.88-16.68,3.23-24.96,.76-4.41,1.57-8.81,2.36-13.22,.03-.63,.42-1.32,.21-1.92-.22-.32-.79-.21-.84,.2-2.3,12.06-4.3,24.17-5.62,36.37-.29,3.85-.79,7.71-.79,11.57,.13,1.49,.1,2.48,.18,3.76,.14,.58,.24,1.66,.42,2.62,.16,.69,.26,.9,.33,1.46-3.95,3.21-7.88,6.44-11.32,10.21-3.87,4.11-6.79,9-10.58,13.18-.05-.15-.09-.3-.11-.44-.45-1.28-.78-2.86-1.09-3.59-.43-2.62-.56-5.47-.39-7.76,.11-3.5,.13-6.37,.66-9.87,.64-3.67,1.26-7.33,1.51-11.05,.43-3.6,1.18-7.16,1.7-10.76,.7-4.18,1.42-8.35,2.2-12.51,.06-.84,.52-1.96,.32-2.71-.22-.32-.78-.21-.83,.2-2,11.06-3.94,22.13-5.24,33.28-1.24,6.06-1.42,11.85-1.29,17.81,0,2.95,1.1,5.89,1.74,8.31-.06,.06-.11,.12-.17,.18-3.45,3.95-8.18,6.68-12.62,10.12-1.25,.91-2.45,1.89-3.62,2.88-.27-.65-.53-1.26-.58-1.63-1.08-4-.86-8.15-.98-12.26-.09-8.22-.09-16.45-.15-24.67-.19-4.34-.21-8.7-.67-13.03-.06-.63-1.08-.56-1,.1,1.33,15.41,.18,30.91,.93,46.34,.27,1.62,.49,3.29,1,4.85,.16,.36,.34,.75,.5,1.12-2.22,1.96-4.28,4-6.23,5.94-1.14,1.22-2.12,2.61-2.52,4.26-.13,.49-.34,1-.19,1.51,.07,.33,.19,.64,.3,.95,.06,.13,.19,.5,.11,.2,.08,.7,.6,1.23,1.14,1.63,.21,.15,.52,.11,.73-.03,.15-.12,.29-.27,.32-.47,.03-.09,.03-.34,.03-.47,.12-1.19,1.05-2.21,2.06-3.5,1.76-2.14,3.53-4.13,5.34-6.02,.4-.05,.81-.18,1.18-.22,2.53-.8,4.69-1.81,7-1.98,5.11-1.3,9.83-1.21,14.77-.58,2.76,.45,6.16,.73,8.45,.72,4.53,.34,9.07,.43,13.61,.4,3.55,.04,6.79,.16,10.07,.2,.67-.06,.59-1.14-.11-1.06-9.16-.25-19.75-.14-28.34-1.02-3.66-.5-7.35-1.08-11.05-.95-3.22,.02-6.33,.77-9.48,1.32-1.59,.33-3.01,.98-4.39,1.43,1.9-1.88,3.86-3.67,5.95-5.43,1.36-1.4,3.11-2.33,4.47-3.71,.21-.21,.47-.44,.74-.69,.67-.5,1.31-1.04,1.82-1.69,0,0,0,0,0-.02,.48-.48,.95-.98,1.37-1.52,.95-1.06,1.81-1.96,2.63-2.87,.39-.12,.78-.31,1.16-.4,1.36-.45,2.75-.63,4.43-.92,2.42-.62,4.85-1.31,6.85-1.88,2.87-.25,5.64-1.07,8.51-1.35,5.14-.66,10.32-1.03,15.47-1.71,4.71-.57,9.45-.88,14.17-1.36,1.22-.17,2.43-.35,3.65-.48,.12-.01,.23-.07,.31-.17,.24-.29,0-.79-.4-.74-8.53,1.08-17.13,1.6-25.66,2.72-5.6,.32-11.1,1.38-16.63,2.18-2.1,.66-4.55,1.21-6.34,1.72-1.4,.21-2.79,.45-4.16,.81,.27-.34,.55-.69,.82-1.06,1.42-2.21,3.16-4.18,4.68-6.32,1.55-1.98,3.1-3.95,4.87-5.75,1.28-1.5,2.55-3.26,3.78-4.25"/></g></g></svg>