<?xml version="1.0" encoding="UTF-8"?><svg id="Capa_2" xmlns="http://www.w3.org/2000/svg" xmlns:xlink="http://www.w3.org/1999/xlink" viewBox="0 0 89.75 139.36"><defs><style>.cls-1{fill:none;}.cls-2{clip-path:url(#clippath);}.cls-3{fill:#f9b608;}.cls-4{fill:#f90;}.cls-5{fill:#9a6634;}.cls-6{fill:#dc800b;}.cls-7{clip-path:url(#clippath-1);}.cls-8{clip-path:url(#clippath-4);}.cls-9{clip-path:url(#clippath-3);}.cls-10{clip-path:url(#clippath-2);}.cls-11{clip-path:url(#clippath-6);}.cls-12{clip-path:url(#clippath-5);}</style><clipPath id="clippath"><rect class="cls-1" width="89.75" height="139.36"/></clipPath><clipPath id="clippath-1"><path class="cls-1" d="M12.45,58.51c2-.62,3.98-.88,5.68-1.13,4.14-.53,8.32-.79,12.49-1.09,.13-.02,.25-.03,.38-.05,1.57-.2,3.17-.21,4.77-.25,.47-.02,.94-.04,1.41-.05,.64-.03,1.28-.07,1.92-.15,4.4-.38,8.8-.47,13.23,.05,3.09,.3,6.2,.72,9.13,1.88,2.21,.67,4.26,2.22,5.57,4.12,2.17,3.59,2.24,9.42-.31,13.68-4.19,7.15-11.14,6.28-17.58,1.98-4.41-3.15-8.08-7.19-12.56-10.24-1.56-1.05-3.46-1.92-5.46-2.72-.12-.04-.24-.09-.36-.13-3.18-1.02-6.49-1.58-9.72-2.41-1.32-.22-2.73-.23-4.6-.47-1.56-.29-2.73-.53-4.52-.86-.75-.31-.89-.21-1.47-.6-.22-.19-.31-.51-.18-.76,.51-.58,1.48-.56,2.19-.81"/></clipPath><clipPath id="clippath-2"><path class="cls-1" d="M-8.2,91.82c2.65-1.09,5.57-1.93,8.51-1.6,4.11,.71,7.88,3.13,10.59,6.3,5.64,6.25,11.49,15.48,9.03,24.51-1.29,4.86-3.57,9.62-7.52,12.81-4.78,3.89-12.63,3.98-13.53-3.67-.62-4.09-.31-8.2-.67-12.28-.41-3.26-2.36-6.83-5.66-7.46-3.06-.83-5.87,.77-8.88,2.6-2.83,1.61-5.71,3.13-8.73,4.38-1.18,.55-1.91,.72-2.99,.84-.21,.07-.41,.15-.64,.09-.21-.07-.38-.17-.51-.29-.31,.06-.66-.18-.67-.51,.02-.34,.26-.61,.43-.91,.14-.46,.41-.92,.68-1.23,.22-.3,.44-.62,.66-.94,2.37-3.87,4.6-7.83,7.26-11.51,.67-.85,1.41-1.64,2.18-2.4-.03-.16,0-.33,.12-.45,3.18-3.05,6.25-6.42,10.34-8.29"/></clipPath><clipPath id="clippath-3"><path class="cls-1" d="M-9.14,82.45s.02,0,.03-.01c3.9-3.71,7.88-7.54,12.97-9.65,2.82-1.34,5.65-2.78,8.82-3.13,2.07-.3,4.1-.91,6.21-.88,2.79,.3,5.54,1.12,8.17,2.13,4.41,1.77,8.91,4.1,11.25,8.43,1.6,2.45,3.14,5.02,3.51,7.93,1.14,6.24-.69,13.06-5.57,17.06-3.9,1.86-9.02,1.85-12.94-.35-2.17-1.51-3.29-3.39-4.33-5.91-1.18-2.71-2.21-6.12-3.28-8.3-2.97-5.25-8.02-6.56-13.96-6.25-.14,.02-.4,.06-.51,.07-.1,.03-.8,.2-.99,.23-.97,.12-1.95,.16-2.92,.27-2.01,.29-3.63,.54-5.69,.8-2.03,.46-4.14-.71-.76-2.45"/></clipPath><clipPath id="clippath-4"><path class="cls-1" d="M4.78,23.44c1.21-.68,2.68-.89,4.04-.35,1.03,.39,2.13,.71,2.99,1.44,.89,.78,1.49,1.82,2.26,2.71,1.22,1.65,1.52,3.82,1.53,5.78,0,.16-.01,.31-.01,.46,.55,5.07-2.02,10.39-3.77,14.41-.67,2.19-2.02,4.07-3.04,6.1-.38,.77-.8,1.51-1.23,2.23-.25,.63-.51,1.25-.84,1.84-1.33,1.96-2.41,3.32-3.55,5.16-2.17,2.73-4.54,5.35-7.06,7.77-1.21,1.04-1.95-.14-1.37-1.35,.75-1.71,1.41-3.82,2.11-5.86,.6-3.89,1.16-7.79,1.58-11.71,.55-4.31,.56-8.65,1.15-13.28,.73-4.42,.59-13.35,5.22-15.35"/></clipPath><clipPath id="clippath-5"><path class="cls-1" d="M33.39,.86c2.79-.1,5.4,1.42,6.63,3.45,1.31,1.49,2.25,3.23,2.71,5.14,.65,3.36,.83,6.89-.17,10.14-1.3,4.02-2.94,8.02-5.41,11.46-1.44,2.17-3.96,5.12-6.22,7.32-2.33,2.27-4.52,4.71-7.29,6.48-2.64,1.84-5.27,3.7-8.06,5.32-.77,.45-1.6,.8-2.43,1.13-.13,.04-.27,.02-.39-.05-.36-.19-.36-.7-.05-.89,.04-.27,.26-.51,.47-.72,.13-.29,1.16-1.31,1.73-1.97,.92-1.6,2.51-4.97,3.64-7.21,3.93-8.77,5.48-19.17,7.53-29.05,.59-2.9,1.75-5.6,3.75-7.78,.97-1.13,2.06-2.35,3.55-2.78"/></clipPath><clipPath id="clippath-6"><path class="cls-1" d="M29.6,47.73c.85-.28,1.68-.61,2.55-.87,4.5-1.31,8.67-3.71,12.98-6.2,3.9-2.12,7.8-4.24,11.77-6.23,2.64-1.61,4.97-2.44,7.56-3.65,3.51-1.81,6.93-2.41,10.66-2.7,1.3-.15,2.61-.09,3.93,0,.9-.06,1.81-.09,2.69,.25,1.28,.38,2.59,.86,3.5,1.89,.73,.92,1.46,1.89,1.96,2.95,.28,.89,.52,1.85,.43,2.77-.08,.85-.49,1.59-.84,2.34-.12,.21-.23,.42-.34,.62-.08,.35-.17,.69-.25,1.03-.77,2.94-2.54,5.65-5.42,6.85-4.7,1.81-9.93,2.07-14.96,2.43-4.1,.02-8.22-.49-12.33-.62-2.17-.21-4.33-.31-6.5-.32-2.4-.18-4.8-.31-7.2-.21-3.54-.04-6.25,.09-9.61,.81-.53,.19-1.23-.3-.93-.88,.07-.14,.21-.25,.36-.29"/></clipPath></defs><g id="OBJECTS"><g class="cls-2"><g><g><path class="cls-4" d="M12.45,58.51c2-.62,3.98-.88,5.68-1.13,4.14-.53,8.32-.79,12.49-1.09,.13-.02,.25-.03,.38-.05,1.57-.2,3.17-.21,4.77-.25,.47-.02,.94-.04,1.41-.05,.64-.03,1.28-.07,1.92-.15,4.4-.38,8.8-.47,13.23,.05,3.09,.3,6.2,.72,9.13,1.88,2.21,.67,4.26,2.22,5.57,4.12,2.17,3.59,2.24,9.42-.31,13.68-4.19,7.15-11.14,6.28-17.58,1.98-4.41-3.15-8.08-7.19-12.56-10.24-1.56-1.05-3.46-1.92-5.46-2.72-.12-.04-.24-.09-.36-.13-3.18-1.02-6.49-1.58-9.72-2.41-1.32-.22-2.73-.23-4.6-.47-1.56-.29-2.73-.53-4.52-.86-.75-.31-.89-.21-1.47-.6-.22-.19-.31-.51-.18-.76,.51-.58,1.48-.56,2.19-.81"/><g class="cls-7"><g><path class="cls-3" d="M68.65,70.32c.41,.18,.38,.83-.04,1-.6,.12-.55,0-1.05,.06-2.44,.09-4.97,1.39-6.28,2.73-1.37,1.99-2,4.19-2.39,6.49-.1,.39,.08,.9-.25,1.21-.32,.28-.86,0-.8-.42,.32-3.03,1.1-6.48,3.43-8.64,2.15-1.55,4.51-2.73,7.38-2.43"/><path class="cls-3" d="M68.34,66.02c.49-.11,.99,.31,.79,.82-.38,.63-.62,.33-1.08,.45-2.31,.09-3.83,.54-5.83,1.72-2.11,1.09-3.88,2.47-5.16,4.58-1.26,1.8-1.89,4.46-2.42,6.58-.06,.69-1.17,.6-1.08-.1,.62-2.72,1.38-5.47,3.01-7.78,2.8-3.58,7.21-6.11,11.77-6.27"/><path class="cls-6" d="M65.52,73.29c.59-.34,1.23-.57,1.87-.71,.28-.03,.62-.11,.79,.12,.21,.24,.07,.66-.25,.82-.41,.13-.25,0-.75,.15-1.98,.38-3.62,2.54-4.02,4.38-.33,.79-.24,1.76-.74,2.47-.38,.33-.96,.05-.87-.42,.53-2.5,1.33-5.49,3.96-6.82"/></g></g></g><g><path class="cls-4" d="M-8.2,91.82c2.65-1.09,5.57-1.93,8.51-1.6,4.11,.71,7.88,3.13,10.59,6.3,5.64,6.25,11.49,15.48,9.03,24.51-1.29,4.86-3.57,9.62-7.52,12.81-4.78,3.89-12.63,3.98-13.53-3.67-.62-4.09-.31-8.2-.67-12.28-.41-3.26-2.36-6.83-5.66-7.46-3.06-.83-5.87,.77-8.88,2.6-2.83,1.61-5.71,3.13-8.73,4.38-1.18,.55-1.91,.72-2.99,.84-.21,.07-.41,.15-.64,.09-.21-.07-.38-.17-.51-.29-.31,.06-.66-.18-.67-.51,.02-.34,.26-.61,.43-.91,.14-.46,.41-.92,.68-1.23,.22-.3,.44-.62,.66-.94,2.37-3.87,4.6-7.83,7.26-11.51,.67-.85,1.41-1.64,2.18-2.4-.03-.16,0-.33,.12-.45,3.18-3.05,6.25-6.42,10.34-8.29"/><g class="cls-10"><g><path class="cls-6" d="M-1.58,126.97c.62-.25,1.39-.18,2.29-.23,2.32-.22,5.72,.84,7.22,3.28,.89,1.91,1.19,4.69,.5,6.3-.35,.41-1.05-.01-.84-.51,.42-.99,.08-4.2-.54-5.26-1.35-1.96-3.67-2.78-5.75-2.72-1.24,.03-2.08,0-2.69,.19-.61,.05-.77-.86-.19-1.06"/><path class="cls-3" d="M-2.07,122c1.17-.74,2.53-.79,3.83-.91,2.89-.14,5.88,.46,7.86,2.42,.62,.46,2.68,2.46,3.61,4.12,.4,1.26,.46,1.7,.8,2.85,.28,1.08-.04,2.27-.31,3.38-.21,.5-.22,1.21-.75,1.51-.52,.26-1.08-.25-.84-.77,.69-1.95,.88-3.11,.15-4.89-.14-1.39-1.19-2.57-2.51-4.09-.97-.84-2.26-2.18-4.23-2.77-1.69-.48-3.8-.54-5.9-.22-.85,.07-1.38,.73-1.98,.87-.43,.06-.75-.41-.57-.81,.29-.48,.76-.62,.85-.71"/><path class="cls-3" d="M1.95,131.52c.88,.24,2.08,.99,2.12,1.99,0,.94-.18,1.89-.47,2.79-.05,.14-.16,.25-.29,.31-.43,.21-.92-.25-.73-.68,.26-.49,.44-2.4,.39-2.46-.07-.08-.22-.24-.3-.32-.31-.28-.73-.5-.79-.51-.03,0-.05-.02-.07-.02-.68-.11-.97,0-1.5,.15-.26,.09-.56,.22-.8,.03-1.02-1.07,1.47-1.48,2.45-1.29"/><path class="cls-3" d="M.72,115.74c2.23-.92,4.71-.6,6.97-.13,1.89,.36,3.68,1.16,5.3,2.16,1.76,1.57,3.35,3.4,4.55,5.43,.67,1.26,1.38,2.54,1.68,3.94,.04,.29,.14,.61-.05,.86-.32,.47-1.09,.3-1.16-.25-.62-3.33-4.16-7.99-6.7-9.41-3.65-1.84-8.4-2.78-11.11-.83-.55,.46-1.17,.82-1.72,1.29-.26,.15-.04,.26-.62,.45-.74,.13-1.1-.86-.51-1.29,1.08-.79,2.15-1.63,3.35-2.21"/></g></g></g><path class="cls-4" d="M-9.14,82.45s.02,0,.03-.01c3.9-3.71,7.88-7.54,12.97-9.65,2.82-1.34,5.65-2.78,8.82-3.13,2.07-.3,4.1-.91,6.21-.88,2.79,.3,5.54,1.12,8.17,2.13,4.41,1.77,8.91,4.1,11.25,8.43,1.6,2.45,3.14,5.02,3.51,7.93,1.14,6.24-.69,13.06-5.57,17.06-3.9,1.86-9.02,1.85-12.94-.35-2.17-1.51-3.29-3.39-4.33-5.91-1.18-2.71-2.21-6.12-3.28-8.3-2.97-5.25-8.02-6.56-13.96-6.25-.14,.02-.4,.06-.51,.07-.1,.03-.8,.2-.99,.23-.97,.12-1.95,.16-2.92,.27-2.01,.29-3.63,.54-5.69,.8-2.03,.46-4.14-.71-.76-2.45"/><g class="cls-9"><g><path class="cls-3" d="M39.81,93.46c.52,.11,1.33,.32,2.05,.85,.02,.02,.05,.03,.07,.05-.01,0-.01,0-.03-.01,.13,.06,.27,.13,.33,.27,.13,.19,.11,.47-.02,.66-.7,.66-1.05-.1-1.41-.26-.29-.17-1.03-.48-1.91-.72-2.52-.95-5.02,.41-7.48,2.62-1.48,1.52-3,3.32-2.85,5.71-.02,.89,.73,2.76,1.63,3.68,.62,.4-.07,1.3-.59,.75-2.97-3.19-2.45-7.15,.59-10.18,2.58-2.79,6.37-4.73,9.62-3.41"/><path class="cls-6" d="M39.9,97c.59-.02,1.2,.14,1.63,.55,.14,.17,.17,.05,.36,.49,.16,.45-.35,.91-.79,.73-.35-.18-.11-.1-.55-.4-2.07-.91-5.95,.65-6.48,4.16-.1,.78,.75,2.56,1.56,3.47,.47,.55-.43,1.28-.88,.72-.9-1.02-1.49-2.35-1.83-3.66-.05-.88,.28-1.74,.64-2.53,1.15-2.32,3.75-3.82,6.32-3.51"/><path class="cls-3" d="M38.42,99.63c.58-.31,1.25-.36,1.89-.28,.38-.03,.8,.21,.74,.64-.03,.34-.37,.57-.71,.51-.09-.02-.5-.04-.63-.05-.94,.09-.99,.24-1.6,.94-.41,.53-.37,.62-.37,.76,.1,.36,.48,1.25,.92,1.68,.7,.47-.12,1.47-.7,.85-.68-.71-1.28-1.68-1.34-2.68,.17-.99,.95-1.86,1.79-2.37"/><path class="cls-3" d="M39.28,88.82c1.04-.03,2.03,.2,2.96,.64,.48,.12,.97,.58,.66,1.09-.6,.8-1.05,.14-1.74-.07-.81-.41-1.54-.36-2.73-.44-1.87-.13-4.72,.72-7.16,2.18-.67,.5-3.1,2.61-3.68,3.29-1.53,1.87-2.15,3.15-3.07,5.57-.53,1.46-.42,2.44-.23,4.11,.12,.67-.97,.86-1.06,.18-.14-1.15-.21-2.34-.02-3.5,.46-1.69,.99-2.85,1.73-4.21,2.12-4.3,8.38-9.2,14.35-8.83"/></g></g><g><path class="cls-4" d="M4.78,23.44c1.21-.68,2.68-.89,4.04-.35,1.03,.39,2.13,.71,2.99,1.44,.89,.78,1.49,1.82,2.26,2.71,1.22,1.65,1.52,3.82,1.53,5.78,0,.16-.01,.31-.01,.46,.55,5.07-2.02,10.39-3.77,14.41-.67,2.19-2.02,4.07-3.04,6.1-.38,.77-.8,1.51-1.23,2.23-.25,.63-.51,1.25-.84,1.84-1.33,1.96-2.41,3.32-3.55,5.16-2.17,2.73-4.54,5.35-7.06,7.77-1.21,1.04-1.95-.14-1.37-1.35,.75-1.71,1.41-3.82,2.11-5.86,.6-3.89,1.16-7.79,1.58-11.71,.55-4.31,.56-8.65,1.15-13.28,.73-4.42,.59-13.35,5.22-15.35"/><g class="cls-8"><g><path class="cls-3" d="M-.51,26.93c.5,.29,.79,.88,1.22,1.27,1.7,2.22,7.03,3.07,9.32,1.83,1.6-1.38,3.14-2.41,3.99-3.98,.47-.74,1.71,.2,1.22,.93-1.08,1.8-3.09,3.56-4.87,4.61-4.1,1.32-9.21,.18-11.77-3.81-.24-.58,.34-1.12,.89-.86"/><path class="cls-3" d="M3.58,23.85c.03,.07,.08,.18,.12,.25,1.11,1.51,2.02,2.22,3.23,2.06,.83-.22,2.86-1.74,4.19-2.88,.59-.5,1.36,.43,.75,.91-1.95,1.47-4.22,4-6.62,2.93-.84-.34-1.48-1-2.03-1.71-.3-.39-.71-.79-.77-1.3-.05-.62,.9-.84,1.13-.27"/></g></g></g><g><path class="cls-4" d="M33.39,.86c2.79-.1,5.4,1.42,6.63,3.45,1.31,1.49,2.25,3.23,2.71,5.14,.65,3.36,.83,6.89-.17,10.14-1.3,4.02-2.94,8.02-5.41,11.46-1.44,2.17-3.96,5.12-6.22,7.32-2.33,2.27-4.52,4.71-7.29,6.48-2.64,1.84-5.27,3.7-8.06,5.32-.77,.45-1.6,.8-2.43,1.13-.13,.04-.27,.02-.39-.05-.36-.19-.36-.7-.05-.89,.04-.27,.26-.51,.47-.72,.13-.29,1.16-1.31,1.73-1.97,.92-1.6,2.51-4.97,3.64-7.21,3.93-8.77,5.48-19.17,7.53-29.05,.59-2.9,1.75-5.6,3.75-7.78,.97-1.13,2.06-2.35,3.55-2.78"/><g class="cls-12"><g><path class="cls-3" d="M31.45,1.72c.09,.07,.55,.29,.72,.37,2.06,.64,4.5,.29,6.27-.15,.63-.22,1.3,1.02,.65,1.22-1.48,.44-7.19,1.32-8.34-.97-.1-.43,.3-.69,.69-.47"/><path class="cls-6" d="M28.45,3.9c.46,.12,.27,.15,.49,.29,3.03,2.71,7.93,1.34,11.16-.57,.71-.81,1.83-.16,1.11,.69-2.45,1.74-5.6,2.62-8.57,2.62-1.75,0-4.05-1.21-4.75-2.15-.27-.38,.1-.94,.56-.88"/></g></g></g><g><path class="cls-4" d="M29.6,47.73c.85-.28,1.68-.61,2.55-.87,4.5-1.31,8.67-3.71,12.98-6.2,3.9-2.12,7.8-4.24,11.77-6.23,2.64-1.61,4.97-2.44,7.56-3.65,3.51-1.81,6.93-2.41,10.66-2.7,1.3-.15,2.61-.09,3.93,0,.9-.06,1.81-.09,2.69,.25,1.28,.38,2.59,.86,3.5,1.89,.73,.92,1.46,1.89,1.96,2.95,.28,.89,.52,1.85,.43,2.77-.08,.85-.49,1.59-.84,2.34-.12,.21-.23,.42-.34,.62-.08,.35-.17,.69-.25,1.03-.77,2.94-2.54,5.65-5.42,6.85-4.7,1.81-9.93,2.07-14.96,2.43-4.1,.02-8.22-.49-12.33-.62-2.17-.21-4.33-.31-6.5-.32-2.4-.18-4.8-.31-7.2-.21-3.54-.04-6.25,.09-9.61,.81-.53,.19-1.23-.3-.93-.88,.07-.14,.21-.25,.36-.29"/><g class="cls-11"><g><path class="cls-3" d="M84.22,27.98c-.76,.78-1.97,2.21-2.32,3.14-.42,2.14-.76,5.45,.27,7.55,.79,2.09,1.8,3.7,2.78,5.27,.23,.64-.71,1.14-1.12,.59-2.55-3.63-4.42-8.02-3.38-12.51,.04-2.2,2.1-4.14,3.12-5.24,.82-.44,1.34,.68,.64,1.2"/><path class="cls-3" d="M85.49,29.67c1.03,.56,.29,1.11,.2,1.53-1.04,2.19-.15,5.48,.62,7.85,.19,.48,.65,.88,.74,1.38,.1,.69-.91,.86-1.2,.21-.94-1.26-1.24-2.77-1.53-4.22-.37-1.92-.67-3.97,.13-5.68,.23-.44,.36-1.28,1.04-1.07"/></g></g></g><path class="cls-5" d="M-14.29,47.64c3.06,6.74,3.94,14.6,2.81,21.96-.64,4.16-.86,8.11-.9,11.92,.03,.22,.11,.96,.14,1.12-.02,.14,.03,.55,.04,.68,0,.02,.01,.04,.02,.05,.23-.33,.45-.67,.7-.99,1.12-1.62,2.35-3.15,3.62-4.65,.04-.43,.17-.86,.27-1.26,.64-1.87,1.02-3.84,1.96-5.61,1.16-2.29,2.19-3.66,3.17-5.69,1.33-2.55,2.61-5.12,3.63-7.81,1.17-2.27,2.18-4.36,3.23-6.92,2.45-5.75,3.64-11.35,3.96-17.55,.05-.58,1-.53,.93,.09-.28,8.06-2.74,15.89-6.36,23.12-.78,1.22-1.31,3-2.07,4.62-.67,1.74-1.68,3.34-2.43,5.04-.96,2-2.07,3.65-2.96,5.45-.66,1.39-1.18,3-1.57,4.46,1.09-1.27,2.17-2.54,3.19-3.85,1.38-2.01,2.8-4,4.31-5.93,1.19-1.82,2.28-3.7,4.11-4.97,.57-.51,1.16-1.01,1.75-1.51,.03-.1,.08-.19,.17-.26,.08-.05,.18-.08,.27-.1,.45-.37,.91-.73,1.36-1.09,.26-.41,.51-.8,.61-1.12,.35-.97,.83-1.87,1.41-2.73,.39-.6,.32-.73,.82-1.35,.99-1.14,2.24-2.74,3.63-4.34,3.53-3.93,6.53-8.26,9.45-12.65,2.83-5.25,6.65-12.14,7.85-18.38,.43-2.5,.81-5.02,.86-7.54,.06-.66,1.14-.6,1.05,.09-.06,7.56-2.65,14.77-6.17,21.44-2.21,4.65-5.19,8.81-8.19,12.99-2.15,2.53-4.23,5.13-6.39,7.64-.47,.43-.46,.65-1,1.29-.06,.07-.2,.21-.28,.27-.04,.06-.07,.1-.09,.13,0,.01,0,.02-.02,.04-.58,1.07-1.04,1.77-1.47,2.62,.64-.49,1.29-.98,1.94-1.46,2.04-1.61,3.4-2.9,5.85-3.86,2.43-.97,4.64-2.46,7.25-2.98,.79-.26,1.89-.37,2.56-.49,.27-.08,.53-.16,.8-.23,.4-.17,.81-.35,1.23-.35,.07-.02,.15-.04,.23-.06,.15-.03,.31,.01,.43,.1l.08-.02c.98-.16,2.33-.41,2.93-.42,.92-.25,2.05-.5,2.63-.49,2.26-.28,4.45-1,6.69-1.46,5.79-1.15,11.64-1.97,17.47-2.81,4.41-.76,8.81-1.46,13.16-2.58,1.7-.37,3.4-.89,5.09-1.2,.45,.08,.44,.8-.04,.86-11.29,3.17-22.93,4.25-34.41,6.4-2.36,.46-4.67,1.19-7.03,1.65-1.23,.17-1.96,.16-3.25,.54-.74,.15-1.16,.06-2.06,.31-.44,.04-.87,.13-1.3,.24-.06,.03-.13,.06-.21,.07h-.02c-.11,.11-.25,.18-.42,.2-.37,.06-1.27,.49-2.12,.57-3.43,1.1-7.04,2.54-10.53,4.02-.5,.19-1.2,.91-1.94,1.49-.92,.69-1.94,1.24-2.82,1.99-1.23,.94-2.19,1.8-3.09,2.7,2.98,.02,5.59,0,8.62,.27,5.45,.03,10.88,.29,16.28,.99,1.92,.27,3.86,.36,5.76,.67,1.47,.29,2.87,.84,4.35,1.05,3.44,.21,6.46,1.79,9.55,3.1,1.39,.58,2.76,1.23,4.08,1.94,.34,.29-.02,.91-.46,.73-3.44-1.64-6.93-3.31-10.56-4.5-3.61-.35-6.98-1.69-10.62-1.85-9.32-1.25-19.87-1.57-27.7-1.25-.14-.01-.27-.02-.4-.02-.46,.48-.92,.98-1.43,1.52-2.02,2.05-4.27,4.12-6.02,6.51-2.69,3.92-5.44,7.79-8.71,11.27-.72,1.06-1.44,2.12-2.16,3.17,1.68-.5,3.75-1,4.86-1.26,5.05-1.79,10.1-3.65,15.29-4.97,4.64-.5,9.54-.59,13.84,1.34,1.91,1.06,3.41,2.72,5.1,4.09,.9,.84,1.03,2.16,1.37,3.29,.4,1.56,.72,3.15,.66,4.78-.02,.23-.2,.45-.43,.5-.38,.14-.8-.21-.75-.61,.02-2.07-.58-4.87-1.39-6.78-.14-.31-1.41-1.28-2.25-2.09-2.8-2.69-5.8-3.51-9.74-3.7-3.18-.1-6.4-.09-9.19,.99-4.19,1.23-8.28,2.75-12.39,4.19-2.51,.64-3.95,.98-6.04,1.74-.93,1.33-1.87,2.65-2.84,3.95-.61,.72-1.22,1.46-1.81,2.22-.98,1.37-1.88,2.79-2.89,4.14-.38,.65-.72,1.29-1,1.92-1.62,3.56-3.85,6.32-4.9,9.71-.43,1.26-.97,2.47-1.56,3.65,1.7-1.3,3.42-2.38,5.11-3.41,.2-.37,.93-.66,1.47-.9,.9-.56,1.79-1.11,2.66-1.71,.14-.06,.29,0,.4,.09,.4-.23,.81-.47,1.21-.71,1.72-.78,3.47-1.52,5.24-2.18,1.88-.44,3.8-.69,5.72-.78,5.85,.09,11.02,1.66,13.57,7.59,.81,1.46,2.94,4.2,3.18,6.46-.17,.46-.87,.49-1.05,.04-.87-2.83-2.44-4.49-3.63-7.01-.71-1.52-2.88-3.65-4.21-4.39-2.79-1.18-5.62-1.62-8.33-1.6-1.77,.1-3.54,.33-5.27,.76-.8,.4-3.11,1.24-4.38,1.84-1.6,.85-3.13,1.84-4.78,2.59-.3,.1-.59,.32-.89,.46-1.54,.94-3.07,1.87-4.68,3.08-.86,.67-1.72,1.34-2.55,2.06-1.32,2.35-2.79,4.64-4.1,7-1.56,2.42-4.59,4.94-6.87,6.32-2.19,1.43-4.62,2.69-7.29,2.63-1.28,.04-3.1,.16-3.54-1.34-.64-1.65,1-1.47,2.09-1.53,.01,0,.02,0,.03,0,.24-.03,.48-.07,.71-.11,1.72-.36,3.65-1.36,5.67-2.21,1.58-.77,4.53-3.12,5.99-4.83,2.54-3.32,5.06-6.98,6.54-10.31,.53-.98,1.06-1.95,1.59-2.92,.43-2.88,.65-5.8,.82-8.7,.58-4.48,.46-8.62-.4-13.26-.74-3.44-1.41-6.43-2.54-9.47-.16-.69-.87-1.28-.76-2,.17-.48,.91-.52,1.1-.05,1.48,2.74,2.09,5.85,2.87,8.85,.93,3.42,1.22,6.95,1.35,10.49,.22,1.88-.19,3.76-.32,5.63-.09,1.82-.22,3.65-.4,5.47,1.41-2.44,2.87-4.85,4.44-7.18,.11-.15,.22-.3,.34-.45,1.05-1.87,2.29-3.64,3.71-5.26,.82-1.31,1.56-2.66,2.36-3.97-.15-.38-.28-.79-.41-1.07-.11-1.14-.23-2.08-.08-3.54,0-1.67,.08-4.25,.41-6.43,.5-3.93,1.33-9.14,.99-12.12-.05-4.12-1.15-8.29-2.27-11.79-.21-.62-.49-1.21-.81-1.78-.06-.13-.06-.27-.01-.41,.15-.44,.83-.48,1-.04"/><path class="cls-6" d="M72.6,31.19c.47-.41,1.08,.32,.6,.71-.73,.56-2.15,2.26-3.46,3.28-1.61,1.38-3.4,2.58-5.19,3.69-.43,.15-.75-.46-.38-.73,3.26-2,6.04-4.32,8.43-6.96"/><path class="cls-6" d="M65.18,43.61c2.33,.53,6.71,1.38,8.89,2.87,.54,.36-.07,1.21-.59,.83-1.51-1.02-5.03-1.96-7.51-2.42-.54-.13-1.16-.15-1.62-.46-.54-.56,.24-1.22,.83-.83"/><path class="cls-6" d="M51.34,40.62c3.18-1.75,5.51-3.03,8.17-4.95,.42-.16,.84,.31,.67,.72-.11,.26-.38,.39-.58,.58-2.46,1.7-4.98,3.04-7.84,4.62-.63,.29-1.06-.69-.42-.97"/><path class="cls-6" d="M52.13,45.45c.16,.03,.57,.11,.66,.13,.42,.1,.85,.18,1.27,.27,1.18,.29,3.37,1.01,3.95,1.37,.4,.25,.25,.91-.22,.97-.17,.03-.3-.04-.41-.14h0s-.02,0-.04-.02h0c-.94-.37-2.9-.99-3.38-1.11-.81-.17-1.63-.31-2.43-.5-.21-.07-.36-.28-.35-.5-.02-.52,.56-.66,.96-.48"/><path class="cls-6" d="M33.26,31.5c.41-.23,.82-.86,1.34-.59,.9,.61-.35,1.36-.9,1.69-1,.6-3.14,2.4-4.86,3.58-.55,.46-1.26-.39-.69-.84,1.67-1.15,3.88-3.07,5.11-3.84"/><path class="cls-6" d="M39.82,15.31c.32-.06,.63,.23,.58,.55,0,.07-.06,.2-.1,.26-.03,.07-.05,.14-.09,.21-1.26,2.75-3.52,4.91-5.57,7.11-.45,.69-1.43-.02-.82-.62,1.78-1.87,4.3-4.38,5.37-6.73,.15-.29,.23-.72,.61-.78"/><path class="cls-6" d="M28.02,12.37c.24-.04,.47,.05,.63,.23,.12,.08,.26,.8,.27,.89,.48,1.63,1.01,3.26,1.25,4.95,.29,.97-1.09,1.45-1.33,.44-.23-1.92-.75-3.35-1.18-4.86-.17-.56-.47-1.49,.36-1.65"/><path class="cls-6" d="M25.82,25.83c.07,1.53,.09,3.07-.11,4.6-.14,.66-.04,1.48-.48,2.03-.39,.34-1.04,0-.97-.51,.36-1.72,.45-3.76,.39-5.05,.08-.69-.33-1.63,.16-2.19,1.08-.58,1,.79,1.01,1.12"/><path class="cls-6" d="M52.17,59.94c2.9-.12,5.8,.34,8.62,.91,.49,.22,.24,1.02-.29,.95-2.52-.46-5.8-.96-7.9-.81-.31,0-.69,.11-.91-.17-.45-.66,.46-.97,.49-.87"/><path class="cls-6" d="M46.53,57.27c.86-.15,1.06,1.19,.2,1.32-1.57,.06-4.43-.06-5.36-.02-.79,.24-1.55-.43-.88-1.13,1.77-.5,4.73,0,6.04-.17"/><path class="cls-6" d="M47.22,66.74s.01,.01,.04,.04c.71,.85,1.54,1.61,2.12,2.56,1.14,2.01,2.37,3.83,3.35,6.23,.04,.52-.75,.71-.95,.22-1.28-2.5-2.38-4.3-3.78-6.3-.61-.84-1.14-1.08-1.81-2.13-.36-.75,.7-1.21,1.03-.62"/><path class="cls-6" d="M41.04,64.46c1,1.54,1.83,3.19,2.56,4.88,.07,.17,.08,.36,.01,.53-.2,.58-1.09,.62-1.32,.05-.86-2.06-1.79-3.68-2.77-5.21-.16-1.1,1.11-1.19,1.52-.26"/><path class="cls-6" d="M30.71,78.43c.81-.21,1.62,.2,2.36,.47,1.29,.55,2.61,1,3.84,1.67,.17,.11,.25,.32,.23,.52-.03,.36-.44,.61-.77,.48-1.19-.64-2.49-1.07-3.74-1.6-.81-.3-1.09-.48-1.75-.44-.58-.04-.7-.88-.17-1.11"/><path class="cls-6" d="M25.57,84.12c.26,1.12,.07,2.29-.35,3.36-.59,1.97-1.41,3.87-2.38,5.7-.27,.43-.47,1.06-.99,1.23-.44,.09-.77-.45-.5-.8,1.13-1.65,2.14-4.16,2.83-6.45,.49-1.27,.41-2.12,.13-3.15,.04-.91,1.25-.74,1.26,.11"/><path class="cls-6" d="M15.96,79.63c1.92,.96,2.21,3.63,2.21,5.59,.1,1.09-1.35,1.37-1.39,.24,.19-.89-.2-2.68-.42-3.37-.13-.38-.75-1.07-1.06-1.4-.32-.45,.12-1.12,.66-1.05"/><path class="cls-6" d="M22.68,72.34c1.3-.21,2.61-.48,3.92-.49,.93-.17,1.06,1.22,.11,1.2-.89-.03-2.58,.28-3.93,.51-.65,.07-1.95,.66-1.96-.42,.16-.8,1.25-.58,1.85-.79"/><path class="cls-6" d="M11.2,44.62c.59-.26,1.03,.45,.69,.95-.21,.62-1,1.41-1.8,2.12-.49,.34-.85,1.07-1.48,1.1-.53-.03-.74-.75-.32-1.08,1.02-.96,2.33-2.08,2.52-2.64,.15-.19,0-.2,.39-.45"/><path class="cls-6" d="M13.81,38.14c-.94,1.29-1.74,2.72-2.92,3.82-.14,.12-.34,.18-.52,.16-.61-.03-.86-.88-.37-1.25,.7-.61,1.58-2.01,2.43-3.19,.44-1.09,1.95-.64,1.39,.46"/><path class="cls-6" d="M1.48,42.66c.56,1.58,1.2,3.13,1.7,4.73,.07,.17,.08,.36,0,.53-.2,.58-1.08,.62-1.31,.05-.37-1.21-.85-2.39-1.27-3.58-.13-.55-.58-1.1-.43-1.68,.2-.58,1.08-.62,1.31-.05"/><path class="cls-6" d="M2.65,36.2c.38-.07,.68,.2,.81,.53,.71,1.24,1.4,2.49,2.05,3.76,.38,.84-.96,1.44-1.32,.59-.45-.9-.93-1.79-1.42-2.68-.32-.66-1.33-1.87-.12-2.21"/><path class="cls-6" d="M12.08,104.97c1.6,.6,3.23,1.22,4.58,2.29,.99,.46,.59,1.77-.44,1.3-1.76-1.44-3.62-2.06-6.01-2.84-.24-.09-.43-.33-.41-.58,.13-1.25,1.59-.37,2.29-.17"/><path class="cls-6" d="M10.03,98.15c1.09,.1,.8,1.71-.26,1.4-1.02-.28-3.56-.63-5.24-.69-.54-.08-1.24,.21-1.64-.25-1.35-2.32,6.15-.6,7.14-.47"/><path class="cls-6" d="M.42,105.48c.23-.1,.47-.06,.69,.03,.05,.01-.03,0-.09-.02,1.11,.25,.98,1.69,1.2,2.57,.34,1.49,.93,3.87,.12,5.24-.45,.4-1.2,0-1.11-.59,.22-1.55,.1-2.45-.33-4.13-.2-.73-.2-1.39-.36-1.77,0,0-.01,0-.01,0-.64-.13-.72-1.08-.11-1.33"/></g></g></g></svg>