<?xml version="1.0" encoding="UTF-8"?><svg id="Capa_2" xmlns="http://www.w3.org/2000/svg" viewBox="0 0 117.42 107.85"><defs><style>.cls-1{fill:#8a381d;}.cls-2{fill:#ba522f;}.cls-3{fill:#d68f4f;}</style></defs><g id="OBJECTS"><g><path class="cls-1" d="M102.57,9.13c.17-.15,.41-.26,.45-.5,.08-.38-.39-.69-.7-.45-1.21,.93-2.25,2.05-3.29,3.15-.17,.22-.43,.39-.53,.65-.12,.29,.16,.62,.46,.59,1.35-1,2.46-2.65,3.62-3.44"/><path class="cls-1" d="M110.76,22.86c.13-.26-.04-.59-.33-.64-.4,0-.75,.31-1.1,.47-1.32,.77-3.78,1.64-5.94,2.15-.94,.33-1.63,.2-2.65,.68-.28,.31,0,.85,.41,.8,3.45-.66,7.68-1.95,9.61-3.47"/><path class="cls-2" d="M69.46,95.06c1.2-1.25,1.7-2.98,2.47-4.5,.7-2.55,.84-5.33,.18-7.91-.64-3.13-2.38-5.84-4.47-8.2-.51-.73-1.04-1.46-1.59-2.16,.56,.41,1.12,.82,1.69,1.22,1.36,.95,2.79,1.82,4.1,2.85,1.24,1.05,2.56,2.08,4.11,2.64,7.91,2.67,17.28,4.71,23.35-1.94,.85-.83,1.4-1.9,2.03-2.9,.78-1,1-2.24,1.2-3.46,.31-1.77,.1-3.6-.22-5.35-.26-2.12-.94-4.17-1.93-6.06-2.22-3.49-5.31-6.42-9.11-8.04-3.81-2.1-8.06-3.45-12.38-3.93-.56-.02-1.05-.05-1.51-.1,2.68-.01,5.45,.21,8.32-.07,3.7-.22,7.38-.87,10.95-1.9,2.48-.55,6.5-2.23,9.2-3.82,1.01-.53,1.77-1.4,2.65-2.11,1.85-1.43,3.48-3.11,4.8-5.06,.68-1.01,1.56-1.87,2.11-2.96,.78-1.54,1.38-3.2,1.79-4.88,.25-2.56,.39-5.26-.19-7.78-.82-2.15-1.09-4.2-2.03-5.94-1.43-2.79-4.91-5.78-8.15-7.39-3.72-2.01-8.75-3.29-12.87-2.65-.77-.03-1.55-.04-2.32-.02-5.69,.72-11.15,3.55-15.64,7.07-5.8,4.67-8.41,11.13-11.22,17.79-.76,1.7-1.88,3.35-2.97,4.76-.06-.3-.12-.6-.15-.91-.37-3.03,1.29-7,1.69-9.5,1.36-4.51,2.66-9.52,.49-14-.94-1.79-1.89-3.66-3.52-4.93C57.76,.89,54.64,.09,51.42,.1c-2.6-.22-5.23-.14-7.71,.77-3.2,1.27-6.24,3.22-8.36,5.99-1.46,1.85-2.92,3.81-3.72,6.05-.94,2.83-.81,5.94-.17,8.83,1.12,3.1,2.79,5.99,4.03,9.05,.71,1.43,1.87,2.54,2.83,3.79,1.08,1.53,2.15,3.09,3.22,4.63,.94,1.24,1.79,1.7,2.33,2.76-1.88-1.04-3.77-2.7-4.66-4.35-.68-1.11-1.66-1.99-2.41-3.06-1.63-2.33-3.8-4.28-6.37-5.49-5.13-1.68-10.54-1.27-14.99,1.41-2.61,1.59-5.15,3.44-6.52,6.29-1.75,2.91-2.15,5.66-1.98,9.06,.03,3.89,1.24,7.77,3.59,10.87,.86,.79,1.79,1.93,3.03,2.83,2.56,1.54,5.54,2.02,8.29,3.07,1.56,.55,3.55,1.68,4.16,2.22,.74,.8,1.01,1.47,1.34,2.07,.03,.12,.13,.54,.12,.71,.03,.28,.06,.56,.08,.84,0,.03,0,.05,.01,.07-.1,.96-.79,2.95-1.4,3.92-.02,.03-.04,.06-.06,.09-.01,.02-.03,.05-.04,.07h.01c-.06,.14-.07,.31,0,.45,.1,.23,.37,.38,.62,.34,.74-.06,1.48-.12,2.23-.18,1.04-.1,2.93,.68,3.79,1.78,.56,.65,1.12,2.69,1.59,3.96,.72,1.67,.91,2.71,1.55,4.32,.8,2.11,1.95,4.09,3.23,5.94,4.13,5.22,10.49,7.89,16.8,9.28,4.57,.95,10.4,.35,13.6-3.41"/><path class="cls-3" d="M84.08,10.21c-.02-.12-.06-.23-.12-.33-.07-.2-.14-.4-.21-.6-.94-1.97-3.66-1.16-4.83,.15-.43,.6,.4,1.39,.99,.94,1.47-1.26,2.35-.89,2.54-.59,.09,.24,.15,.51,.29,.74,.03,.17,.06,.28,.09,.31,.07,.32,.34,.6,.72,.56,.6-.03,.81-.7,.54-1.18"/><path class="cls-3" d="M86.05,15.65c-.37-.51-.91-.95-1.53-1.09-.82-.06-1.61,.28-2.31,.66-.47,.32-1.25,.44-1.43,1.04-.12,.54,.55,.96,.99,.63,2.02-1.05,2.92-1.8,3.54,.59,.16,.27,0,1.2,.63,1.35,1.74,.23,.49-2.4,.12-3.18"/><path class="cls-3" d="M92.45,13.08c.15-.32,.07-.69,.11-1.03-.02-.45,.05-.49-.06-1.21-.11-1.04-.99-1.85-1.99-2.08-.52-.04-1.02,.19-1.52,.31-.59,.26-1.45,.25-1.83,.83-.26,.52,.3,1.14,.84,.92,.57-.26,2.27-.7,2.24-.7,.04,0,.06,0,.08-.01,1.37,.53,.68,1.8,.85,2.91,.18,.57,1.04,.61,1.28,.06"/><path class="cls-3" d="M101,8.65c-.02-.07-.04-.11-.05-.13,0-.07-.02-.14-.03-.22-.16-.62-.05-.82-.55-1.57-1.25-1.91-3.29-1.34-4.96-.36-.7,.48,.07,1.56,.75,1.07,1.64-.87,2.65-.97,3.25,.4-.03-.14,.14,.63,.14,.72,.03,.43,.23,1.01,.75,1.01,.48,.06,.87-.48,.69-.92"/><path class="cls-3" d="M90.78,6.87c1.28-.33,.02-1.64-.62-1.97-.73-.31-1.62-.4-2.32,.05-.46,.32-1.12,.58-1.32,1.13-.11,.5,.51,.9,.92,.59,1.22-1.04,1.75-1.01,2.4-.56,.07,.06,.14,.12,.21,.19,.01,.01,.02,.03,.04,.05,.04,.06,.07,.1,.09,.12,.11,.24,.33,.43,.61,.41"/><path class="cls-3" d="M101.5,19.3c.2-1.06-.41-2.65-1.26-3.32-.89-.65-2.17-.64-3.22-.47-1.23,.04-1.19,1.57-.03,1.36,.73-.16,1.21-.19,2.28,.1,.57,.4,.73,1.13,.86,1.7-.05,.94,.84,1.45,1.37,.63"/><path class="cls-3" d="M107.53,15.53c-.07-.6-.21-.79-.3-.98-.29-.56-.5-.91-1.03-1.27-.79-.33-1.64-.66-2.51-.6-.7,.11-.68,1.2,.02,1.31,.96,.09,1.1,.18,1.85,.49,.34,.37,.22,.27,.56,.9,0,0,0,.03,.02,.06,.12,.53-.15,.52,.13,1.11,.79,.79,1.46-.11,1.27-1.02"/><path class="cls-3" d="M109.58,10.51c-.58-1.08-1.86-1.45-2.97-1.76-.55-.06-1.18-.43-1.69-.14-.46,.31-.29,1.08,.26,1.16,2.22,.37,3.38,.97,3.52,2.28,.04,.37,.1,.83,.53,.93,1.48,.24,.75-1.78,.35-2.48"/><path class="cls-3" d="M113.68,20.82c-.04-.61-.08-1.26-.42-1.79-.31-.43-.82-.66-1.33-.79-.55-.04-1.2-.29-1.71-.03-.47,.31-.29,1.09,.26,1.17,.51,.05,1.33,.13,1.33,.18,.1,.04,.2,.09,.29,.15,.03,.02,.05,.04,.07,.06,.03,.07,.06,.14,.07,.21,.02,.09,.03,.19,.04,.28,.02,.11,.03,.56,.03,.7,0,0,0,.01,0,.02-.01,.07-.02,.11-.03,.14-.17,.47-.71,.58-.35,1.35,.91,1,1.84-.83,1.75-1.66"/><path class="cls-3" d="M108,24.49c-.41-1.06-1.64-1.7-2.71-1.88-.8-.16-1.03,1.09-.23,1.23,.72,.13,1.3,.48,1.67,1,0,.09,.03,.28,.03,.41,0,.03-.03,.16-.04,.23-.02,.04-.03,.06-.03,.08l-.03,.04s-.04,.06-.09,.11h0c-.07,.06-.14,.12-.18,.2-.2,.27-.12,.68,.13,.89,1.14,.73,1.86-1.32,1.48-2.31"/><path class="cls-3" d="M113.21,28.64c-.19-1.18-1.3-1.97-2.45-2.01-.81-.16-1.04,1.11-.23,1.25,1.29,.16,1.54,.66,1.39,1.77,0,.03-.01,.05-.02,.07,0,.01-.01,.04-.03,.08,0,0-.01,.02-.05,.1-.17,.27-.2,.66,.05,.9,1.21,.95,1.63-1.34,1.34-2.15"/><path class="cls-3" d="M108.02,34.07c-.05-1.41-1.45-2.34-2.72-2.58-.81-.16-1.04,1.11-.23,1.25,1.24,.28,1.9,1.09,1.54,1.71-.23,.49-.47,.87-.54,.96-.21,.21-.31,.56-.14,.82,.94,1.36,2.14-1.36,2.1-2.17"/><path class="cls-3" d="M94.06,20.07c-.59-1.5-2.57-1.5-3.78-.8-.45,.37,.02,1.14,.56,.92,1.56-.53,2.18-.29,2.31,.96-.01,.16-.02,.32-.06,.47h0c-.15,.26-.06,.65,.21,.8,1.31,.53,1.14-1.65,.76-2.35"/><path class="cls-3" d="M100.17,28.82c.38-.98,.59-2.26-.12-3.14-.73-.58-1.74-.96-2.68-.89-1.01-.05-1.08,1.44-.06,1.42,.64-.08,.89,.03,1.7,.44,.17,.43,.12,.51,0,1.25-.01,.37-.33,.33-.2,.99,.22,.65,1.16,.57,1.36-.06"/><path class="cls-3" d="M100.09,38.56c.65-.47,.9-1.31,.93-2.09-.03-1.36-1.44-2.33-2.69-2.52-.89-.18-1.15,1.22-.25,1.37,.64,.08,1.14,.42,1.47,.88h0c.02,.06,.04,.11,.05,.15,0,.05,.01,.1,.01,.14-.08,.53-.05,.45-.21,.79h0s-.03,.04-.06,.09c-.03,.03-.07,.05-.1,.08-.44,.27-.9,.72-.53,1.24,.37,.52,1,.23,1.38-.13"/><path class="cls-3" d="M93.05,27.93c-.08-1.66-2.24-1.86-3.52-1.83-.88-.07-1.01,1.22-.1,1.21,.72-.14,2.07,.21,2.25,.39,.21,.18,.18,.84-.23,1.83-.05,.36-.8,.5-.27,1.31,1.3,1.04,2.01-2.04,1.87-2.92"/><path class="cls-3" d="M92.11,39.95c.07-.05,.12-.11,.17-.18,0,0,.03-.04,.1-.11,.34-.44,.75-.85,.89-1.4,.25-.84,.05-1.86-.61-2.46-.82-.59-2-.91-2.99-.65-.54,.24-.28,1.11,.3,1.05,1.72-.07,2.52,.69,2.04,1.72,.07,.24-1.38,1.09-.85,1.86,.21,.31,.66,.38,.96,.17"/><path class="cls-3" d="M96.34,43.83s.02-.02,.03-.03c.02-.01,.05-.03,.1-.06,.3-.15,.51-.42,.69-.69,.3-.39,.42-.96,.21-1.42-.31-.56-.87-1.03-1.42-1.35-.65-.25-1.16,.69-.62,1.12,.49,.4,.83,.73,.83,.75,0,.03-.01,.05-.02,.06,0,.01-.01,.03-.02,.05-.06,.09-.15,.22-.2,.28-.15,.21-.62,.32-.77,.85-.13,.69,.8,.99,1.19,.45"/><path class="cls-3" d="M77.12,14.24c-.81-1.04-2.65-.18-3.42,.54-.32,.45,.29,1.03,.73,.7,.58-.5,1.48-.66,1.69-.7,.22,.09,.34,.21,.4,.77-.07,.32,.15,.69,.51,.68,1.04-.06,.5-1.5,.09-2"/><path class="cls-3" d="M81.56,21.8s0,.02,0,0"/><path class="cls-3" d="M83.25,22.59c-.6-1.61-1.24-2.67-3.13-1.98-.55,.26-1.6,.53-1.81,1.12-.11,.48,.49,.86,.88,.56,.47-.28,1.37-.68,1.83-.71,.06,0,.13,0,.17,0,.03,0,.07,0,.1,.01,.05,.01,.05,.01,.07,.02,.01,0,.03,.01,.04,.02,.03,.02,.05,.04,.07,.06,.04,.05,.07,.1,.08,.12,0-.01-.02-.04-.05-.09,.16,.24,.52,1.25,.58,1.42,.11,.72,.13,.84,.02,1.3,.01-.04,.02-.06,.02-.08-.02,.12-.09,.58,.2,.74,1.5,.78,1.23-1.71,.91-2.5"/><path class="cls-3" d="M74.06,20.18c-.44-.36-1.04-.2-1.51,.01-.61,.28-1.29,.57-1.65,1.17-.47,.55,.4,1.28,.86,.72,.27-.51,1.22-.89,1.65-1h0c.3,.27,.08,.05,.35,.38,.25,.43,.3,.46,.32,.99,0,.11,0,.55,.27,.63,1.77,.57,.6-2.52-.3-2.91"/><path class="cls-3" d="M78.4,30.17c-.14-.95-.29-2.05-1.02-2.74-.37-.37-.91-.63-1.45-.53-.81,.21-1.64,.49-2.34,.96-.66,.45,.06,1.49,.72,1.02,.34-.29,1.97-.78,1.85-.71,.01,0,0,0,.01,0,.01,0,0,0,.02,.01,.03,.02,.03,.01,.04,.02,.05,.04,.11,.08,.16,.12,.03,.03,.04,.04,.05,.05,.06,.07,.12,.16,.16,.2,.32,.81,.33,.91,.42,1.72,.01,.18,.1,.36,.24,.47,.44,.39,1.19,0,1.13-.58"/><path class="cls-3" d="M85.3,33.13c.25-.71,.4-1.48,.18-2.21-.36-1.32-1.99-1.58-3.17-1.47-.83,.05-.73,1.36,.1,1.29,1.63,0,2.16,.11,1.68,1.79-.02,.06-.04,.12-.06,.18,.11-.32-.03,.08-.08,.23-.14,.34-.32,.77,0,1.06,.73,.66,1.22-.2,1.35-.88"/><path class="cls-3" d="M85.49,42.17c.45-.45,.93-.99,.94-1.66-.02-.88-.87-1.39-1.57-1.74-.56-.25-1.16-.61-1.8-.55-.7,.11-.68,1.19,.02,1.3,.63,.12,1.46,.51,1.96,.93,.01,.01,.02,.03,.03,.04,0,.02,.01,.02,.02,.03-.03,.06-.06,.12-.09,.18-.01,.01-.02,.02-.03,.04-.23,.29-.57,.61-.51,.54-.38,.22-.56,.78-.22,1.11,.62,.52,.96,.04,1.25-.22"/><path class="cls-3" d="M77.2,39.06c.45-.61,.47-1.41,.33-2.13-.24-1.65-2.41-1.76-3.67-1.27-.72,.25-.31,1.37,.4,1.11,.85-.33,1.77-.2,2.06,.17,.08,.52,.08,.79,.02,1.04,0,.01,0,.02,0,.03,0,.02-.03,.06-.05,.13,.09,.12-1,.87-.64,1.46,.49,.81,1.27,.05,1.55-.53"/><path class="cls-3" d="M70.14,33.4c-.03-.67-.03-1.43-.49-1.97-.78-.94-2.46-.35-3.15,.44-.51,.6,.43,1.39,.93,.78,.27-.28,.54-.41,1.19-.47,.02,0,.05,0,.07,.01,.01,.02,.04,.05,.07,.1,.02,.06,.04,.12,.06,.18,.02,.16,.07,.58,.05,.69,0,.6,.05,.44-.05,.86-.06,.25,.06,.56,.29,.68,.87,.47,1.16-.65,1.02-1.31"/><path class="cls-3" d="M75.27,46.35c.65-.3,1.35-.75,1.51-1.5,.18-1.53-1.89-2.59-3.18-2.68-.67,.1-.65,1.14,.02,1.24,.7,.17,1.55,.63,1.84,1.07h0s.02,.06,.04,.1c0,.01,0,.02,0,.04,0,.01-.01,.02-.02,.03-.01,.02-.03,.04-.05,.07-.25,.28-.54,.37-1.26,.73-.24,.08-.43,.32-.43,.58,.05,.97,.95,.69,1.52,.33"/><path class="cls-3" d="M82.79,44.48c.26-1.12-1.14-2.14-2.08-2.41-.73-.08-1,1.02-.33,1.3,.56,.28,.98,.61,1.11,.86h0c-.29,.47-.93,.43-1,1.17,.26,1.36,2.16-.18,2.31-.92"/><path class="cls-3" d="M33.92,18.39c.12-.7,.59-1.8,.97-2.28,.13-.11,.23-.21,.4-.23,.54,.22,.8,.46,.95,.64,.13,.23,.4,.42,.68,.34,1.36-.62-.62-1.85-1.35-2-1.68-.22-2.3,2.07-2.63,3.35-.13,.63,.87,.82,.98,.18"/><path class="cls-3" d="M38.27,10.4c.47-1.52,1.4-2.78,1.78-2.82,.05,0,.1,.01,.15,.02,.46,.05,.93,.25,1.23,.47,.5,.28,.21,.38,.84,.63,.43,.09,.84-.29,.8-.72-.04-.38-.39-.64-.67-.87-.39-.3-.95-.55-1.55-.71-.56-.08-.54-.17-1.26-.04-.79,.36-1.31,1.17-1.75,1.89-.27,.65-.8,1.39-.72,2.1,.16,.51,.93,.54,1.14,.05"/><path class="cls-3" d="M44.53,13.75c.23,.18,.38,.49,.66,.58,.38,.15,.83-.21,.78-.61-.11-.5-.4-.55-.88-1.1-1.5-1.61-3.57,.37-4.28,1.83-.35,.71,.77,1.23,1.1,.52,.33-.75,1.17-1.51,1.79-1.76,.17,.02,.17-.12,.83,.55"/><path class="cls-3" d="M52.54,4.16c-.51-.43-1.15-.69-1.7-1.06-.7-.41-1.66-.46-2.24,.19-.62,.78-1.55,1.55-1.81,2.52,.02,.5,.71,.72,1.02,.33,.41-.72,1.8-2.23,1.67-2.11,.06-.03,.15-.06,.19-.08,.03,0,.06,0,.08,0,.45,.04,1.13,.6,1.83,.95,.19,.14,.36,.33,.62,.29,.5-.02,.73-.72,.33-1.03"/><path class="cls-3" d="M53.01,12.08c-.21-.69-.72-1.27-1.22-1.77-1.13-1.09-3.03-.22-3.73,.95-.24,.63,.67,1.13,1.08,.6,1.21-1.25,1.84-.94,2.64,.46,0,.02,0,.02,.01,.03,.02,.29,.13,.59,.45,.67,.55,.2,.96-.43,.77-.93"/><path class="cls-3" d="M60.5,8.79c-.25-1.98-2.98-2.03-4.4-1.27-.25,.18-.61,.31-.66,.65-.11,.5,.51,.89,.92,.59,.96-.71,2.54-.65,2.87-.05,.17,.17-.01,.23,.42,.52,.35,.17,.79-.06,.85-.44"/><path class="cls-3" d="M61.62,15.3c-.23-.48-.63-.88-1.06-1.19-1.47-1.1-3.35,.35-4.19,1.6-.23,.61,.65,1.09,1.05,.58,1.44-1.59,2.31-1.7,3.01-.51,.02,.16,.07,.5,.06,.6-.01,.29,.16,.6,.45,.67,1.05,.24,.88-1.11,.68-1.75"/><path class="cls-3" d="M51.3,18.18s.03,.02,.04,.03c.51,.57,.56,1.55,1.17,2.06,.76,.26,.99-.58,.57-1.1-.33-.67-.58-1.48-1.23-1.92-1.68-.97-3.01,.49-3.6,1.98-.3,.62,.68,1.08,.96,.45,.32-.78,.89-1.49,1.12-1.57,.37-.14,.8-.07,.97,.08"/><path class="cls-3" d="M41.64,23.28s.12,.11,.16,.15c.04,.04,.07,.08,.11,.13,.21,.27,.42,.7,.83,.58,1.39-.54-1.01-2.34-1.73-2.42-1.51-.2-2.58,1.26-2.94,2.57-.41,.82,.58,1.46,.93,.57,.31-1.43,1.33-2.47,2.12-1.97,.12,.09,.46,.33,.52,.4"/><path class="cls-3" d="M49.25,27.38c-.56-.7-1.43-1.07-2.3-1.2-.43-.13-.82,.08-1.08,.41-.74,.8-1.44,1.87-1.51,2.97,.09,.6,1.03,.58,1.12-.01,.24-.84,.55-1.45,1.29-2.22l.19,.03c.12-.03,.76,.27,.89,.33,.51,.36,.51,.45,.96,1.07,.13,.25,.41,.45,.7,.36,.97-.3,.17-1.29-.26-1.74"/><path class="cls-3" d="M57.7,25.11c-.41-.51-.77-1.12-1.36-1.46-1.23-.5-2.68,.72-3.24,1.76-.24,.62,.65,1.1,1.06,.58,.39-.71,1.33-1.21,1.49-1.21,.05,0,.08-.01,.12-.02,.19,.14,.58,.67,.96,1.19,.02,.05,.08,.17,.15,.23,.1,.13,.27,.21,.43,.2,.72,.04,.83-.85,.39-1.28"/><path class="cls-3" d="M59.37,34.17c-.46-.66-.85-1.37-1.46-1.9-1.2-1.11-3-.16-3.76,1.01-.21,.54,.57,.96,.92,.51,1.24-1.16,1.78-1.37,2.73,.09,.33,.39,.47,1.07,1.01,1.22,.51,.11,.9-.54,.56-.93"/><path class="cls-3" d="M48.67,37.05c.27,.13,.62,0,.74-.27,.15-.32-.07-.64-.24-.91-.49-.63-1.02-1.25-1.61-1.79-1.46-1.36-2.65,.59-3.4,1.71-.18,.44-.58,.92-.49,1.41,.14,.43,.79,.46,.97,.05,.31-1.09,1.75-2.63,1.82-2.57,.36-.09,1.44,1.43,2.21,2.37"/><path class="cls-3" d="M61.09,21.62c-.1-.49-.56-.84-.96-1.09-.67-.35-1.6-.56-2.27-.11-.76,.33-.22,1.45,.5,1,.29-.25,.99-.2,1.57,.33,.11,.13,.17,.3,.33,.37,.35,.26,.88-.07,.84-.5"/><path class="cls-3" d="M39.89,32.02c.09-.5,.68-1.2,1.24-1.38,.05,0,.12-.01,.16-.02h.03c.37,.13,.78-.16,.75-.56-.24-.97-1.66-.48-2.16,.03-.53,.5-1.15,1.16-1.09,1.94,.09,.58,1,.56,1.08-.01"/><path class="cls-3" d="M49.82,42.12c-.68-.37-1.39,.13-1.7,.75-.23,.34-.99,1.49-1.15,2.39-.15,.75,1.03,.97,1.16,.22,.22-.88,.78-1.68,1.19-2.24h0s.08,.07,.1,.08c.01,.02,.03,.04,.09,.1,.39,.52,.32,.39,.51,.91,.22,.46-.08,.76,.56,1.09,1.8,.19,.08-2.96-.76-3.29"/><path class="cls-3" d="M57.84,40.09c-.83-1.53-2.99-.12-3.88,.69-.39,.54,.35,1.24,.88,.84,.75-.62,1.71-.97,1.88-.99,.02,.03,.05,.08,.08,.13,.05,.11,.17,.36,.18,.45,.06,.21,.03,.11,.11,.56,.16,.79-.09,.94,.16,1.5,1.75,1.28,1.09-2.47,.59-3.17"/><path class="cls-3" d="M66.58,39.99c.17-.78-.06-1.83-.74-2.31-.81-.4-1.88-.29-2.71,.06,0-.01-.06,0-.16,.07-.15,.05-.27,.16-.33,.3-.23,.45,.26,.99,.73,.8,.36-.32,1.63-.32,1.74-.28,.2,.09,.26,.18,.35,.8-.15,.75,.69,1.29,1.13,.56"/><path class="cls-3" d="M65.06,49.78c1.51-1.96,1.5-3.45-1.17-4.04-.41-.01-.38-.17-.92,.06-.44,.29-.27,1.02,.24,1.09,.61,0,1.39,.34,1.64,.57,0,.03,0,.06,0,.09-.02,.15-.1,.38-.02,.13-.02,.18-.38,.82-.47,.98-.15,.25-.43,.46-.39,.78,.02,.53,.75,.76,1.08,.35"/><path class="cls-3" d="M72.28,53.54c.31-.26,.54-.64,.39-1.05-.3-1.12-1.44-1.83-2.55-1.92-.77-.15-1,1.06-.22,1.2,.89,.14,1.28,.37,1.53,.93-.14,.15-.27,.3-.39,.46-.26,.45-1,.86-.7,1.44,.72,1,1.48-.55,1.94-1.06"/><path class="cls-3" d="M80.48,55.9c.62-.31,1.38-.69,1.49-1.45,.08-.47-.18-.91-.51-1.23-.77-.74-1.57-1.63-2.62-1.93-.63-.07-.86,.88-.28,1.13,.67,.3,1.8,1.26,2.23,1.86,0,0,0,.02,0,.03-.02,.02-.03,.04-.05,.06-.54,.41-.63,.39-1.37,.73-.31,.1-.48,.47-.36,.77,.28,.69,1.02,.28,1.48,.03"/><path class="cls-3" d="M89.49,56.83c.91-1.35-1-3.49-2.13-4.16-.28-.14-.57-.37-.9-.24-.51,.17-.55,.94-.05,1.15,.75,.24,1.62,1.39,1.82,1.78,.08,.09,.22,.53,.26,.63v.03s0,.01,0,.02c0,.02,0,.02-.02,.05,.06,.03-1.4,.98-1.8,.91-.17,.08-.54-.2-.89,.29-.42,.72,.45,1.12,1.07,.97,.99-.18,1.97-.69,2.64-1.44"/><path class="cls-3" d="M95.88,61.21c.53-.64,.47-1.5,.22-2.25-.25-.86-.62-1.76-1.29-2.36-.58-.42-1.35,.38-.91,.96,.68,.77,1.01,1.74,1.09,2.54-.09,.22,.06,.35-.78,.61-.58,.18-.52,.14-1.28,.25-.26,0-.52,.19-.59,.44-.42,1.58,3.15,.52,3.54-.19"/><path class="cls-3" d="M97.58,70.91c.68-1.2,.4-2.86-.24-4.03-.35-.94-1.68-.51-1.19,.42,.74,.95,.72,2.88,.28,3.04-.4,.32-.74,.4-.94,.44-.28,0-.6,.15-.67,.45-.16,1.63,2.31,.4,2.76-.33"/><path class="cls-3" d="M88.35,66.57c-.2-.34-.53-.77-.97-.76-.5,.02-.73,.71-.33,1.03,.4,.27,.62,1.12,.55,1.49-.12,.53-.83,.8-1.28,.84-.68,.17-.58,0-1.29,0-.65,.1-.64,1.12,.02,1.22,2.47,.44,4.73-1.24,3.29-3.81"/><path class="cls-3" d="M90.19,77.93c1.13-.8,.83-2.47,.07-3.43-.24-.23-.49-.57-.86-.55-.49,.02-.7,.69-.32,.99,.49,.44,.37,.28,.65,1.04,.04,.04,.06,.34,.07,.41-.02,.23-.12,.41-.14,.45-.03,.04-.05,.07-.08,.1l-.04,.03c-.43,.21-.95,.22-1.34,.49-.31,.25-.22,.79,.14,.95,.61,.14,1.28-.24,1.83-.47"/><path class="cls-3" d="M82.06,76.19c.23-.52,.03-1.09-.16-1.59-.24-.64-.6-1.25-1.15-1.67-.59-.51-1.37,.43-.77,.92,.55,.44,.88,1.16,.97,1.84-.01,.02-.03,.04-.06,.08-.05,.04-.12,.08-.16,.11-.05,.02-.1,.04-.12,.04-.58,.12-1.46-.15-1.71,.51-.23,.95,.95,.8,1.55,.72,.66-.01,1.31-.37,1.62-.97"/><path class="cls-3" d="M79.83,65.57c1.19-1.3,.29-3.19-.83-4.21-.53-.45-1.22,.38-.69,.82,1.01,.95,1.34,2.31,.6,2.74-.08,.04-.16,.08-.25,.11-.57,.23-.92,.31-1.21,.34-.32,.04-.74,.03-.89,.37-.46,1.46,2.6,.45,3.26-.17"/><path class="cls-3" d="M71.37,63.69c.98-1.54-.37-3.06-1.51-4.05-.62-.53-1.43,.45-.8,.96,1.72,1.42,1.59,2.28,1.08,2.69-.68,.3-.77,.35-1.3,.38-.29-.03-.61,.12-.68,.42-.27,1.59,2.91,.45,3.21-.4"/><path class="cls-3" d="M73.42,72.33c.41-.59,.1-1.38-.23-1.94-.25-.37-.47-.91-.93-1.05-.49-.11-.88,.5-.58,.9,.14,.13,.54,.78,.64,.95,.03,.06,.06,.12,.07,.18,.03,.1,.04,.15,.05,.18,0,.01,0,.04,.01,.09h0s-.08,.07-.12,.1c-.02,0-.04,.01-.06,.02-.06,0-.18,0-.26,.01-.39-.09-.89-.07-.98,.41-.07,1.14,1.95,.83,2.38,.15"/><path class="cls-3" d="M57.73,52.3c.31-.61,.09-1.26-.52-1.56-.82-.47-1.77-.82-2.73-.79-.89-.17-1.24,1-.27,1.09,.85-.2,2.44,.57,2.57,.7-.04,.16-.12,.34-.29,.69-.2,.52-.76,.75-.97,1.26-.06,.29,.15,.6,.45,.65,.89-.05,1.45-1.3,1.76-2.03"/><path class="cls-3" d="M63.09,59.51c-.03-1.57-1.92-2.22-3.26-2.12-.94-.07-1.21,1.15-.21,1.22,1.15-.11,1.78,.01,2.29,.78-.32,.76-.57,1.01-1.09,1.41-.3,.19-.7,.42-.57,.84,.65,1.6,2.78-1.27,2.84-2.13"/><path class="cls-3" d="M62.19,70.43c.69-.58,.23-1.49-.26-2.03-.58-.72-1.13-1.56-2-1.96-.62-.42-1.22,.53-.55,.88,.69,.18,2.01,2.03,2.12,2.31-.25,.32-.97,.6-1.51,.65-.52,.13-1.2-.06-1.63,.31-.22,.25-.12,.68,.18,.82,.3,.12,.62-.01,.93-.02,.96-.07,2-.27,2.72-.96"/><path class="cls-3" d="M65.65,80.45c.7-.49,.55-1.43,.08-2.03-.42-.63-.74-1.37-1.37-1.82-.6-.61-1.51,.28-.87,.87,.5,.28,.86,1.06,1.37,1.83v.02c.04,.05,.06,.1,.07,.16-.21,.21-.75,.44-1.25,.49-.39,.06-.9-.12-1.19,.23-.81,1.69,2.56,.85,3.15,.26"/><path class="cls-3" d="M68.34,88.5c1.29-1.05,.23-2.96-.67-3.92-.57-.49-1.33,.42-.75,.89,.32,.29,.79,1.27,.85,1.79-.04,.19-.14,.33-.37,.38-.33,.02-1.38,.09-.97,.05-.35-.04-.8-.13-1,.25-.7,1.43,2.34,1.08,2.91,.55"/><path class="cls-3" d="M63.54,94.99c1.51-.98,.68-3.07-.32-4.13-.4-.58-1.3,.06-.89,.63,1.14,1.3,1.02,2.37,.59,2.51-.77,.29-.92,.3-1.86,.32-.17,.01-.33,.1-.44,.23-.79,1.71,2.22,.89,2.92,.45"/><path class="cls-3" d="M60.26,87.63c.52-.43,.34-1.13,.02-1.62-.43-.69-.9-1.47-1.61-1.87-.57-.22-1.01,.6-.54,.97,.25,.09,1.2,1.48,1.17,1.49,.04,.08,.07,.17,.1,.25h-.01c-.1,.09-.3,.22-.39,.29-.72,.31-.89,.36-1.51,.41-.3-.03-.64,.09-.72,.41-.24,1.62,2.99,.33,3.49-.33"/><path class="cls-3" d="M54.32,93.51c1.44-1.23-.21-2.68-1.33-3.38-.56-.48-1.32,.41-.74,.88,1.9,1.42,1.75,1.5,.6,1.8-.96,.11-1.28-.23-2.06,.05-.62,.48-.05,1.3,.64,1.16,.98,.06,2.06,.12,2.88-.51"/><path class="cls-3" d="M47.39,85.31c-.21-.61-.24-1.44-.78-1.85-.45-.23-.98,.26-.8,.73,.43,1.2,.76,2.39,.71,3.16,0,0-.01,.02-.02,.02,0,0-.01,0-.01,.01-.03,.01-.07,.03-.11,.04-.66,.07-.97,0-1.84-.22-.19,0-.3-.25-.8-.14-.38,.13-.53,.62-.3,.95,.25,.32,.7,.34,1.06,.47,.73,.17,1.5,.29,2.24,.11,1.55-.44,.9-2.17,.65-3.29"/><path class="cls-3" d="M53.23,84.21c1.58-.97,.49-3.39-.37-4.51-.49-.35-1.12,.32-.76,.8,.79,1.33,.94,2.58,.62,2.68l-.07,.03c-.45,.07-.92,.11-1.38,.09-.3-.01-.66-.08-.87,.2-.84,1.45,2.17,1.02,2.83,.72"/><path class="cls-3" d="M57.91,78.58c1.47-.99-.21-2.93-1.21-3.6-.59-.23-1.05,.63-.56,1.01,.69,.69,.95,.83,1.19,1.54,0,.01,0,.02,0,.03h0c-.23,.21-.45,.36-.65,.36-.18,.02-.85-.09-1.42-.17-.25-.07-.57-.02-.7,.23-.44,.86,.75,.93,1.32,1,.71,.16,1.45,.09,2.03-.39"/><path class="cls-3" d="M51.53,63.95c.55-.22,1.08-.57,1.33-1.12,.07-.56-.27-.57-.65-1.05-.63-.52-1.33-1.13-2.2-1.09,.27,.02-.1-.03-.2,.02-.11,.05-.22,.13-.27,.25-.16,.32,.12,.72,.47,.68,.29-.15,1.42,.65,1.7,.96l.1,.11c-.28,.26-1.23,.63-1.39,.7-.3,0-.6,.2-.57,.53,.18,.85,1.19,.22,1.68,0"/><path class="cls-3" d="M51.1,67.14c-.61-.23-1.1,.65-.58,1.05,.49,.53,.98,1.03,1.16,1.52,.09,.31,.11,.46,.08,.69-.36,.32-1.72,.21-3.14,.01-.31,.04-.51,.35-.49,.65,.03,.52,.58,.6,1,.65,.8,.15,1.65,.17,2.45,.02,2.69-.43,.98-3.69-.48-4.59"/><path class="cls-3" d="M45.92,72.77c-.35-.41-.62-1.04-1.15-1.23-.51-.11-.91,.52-.6,.93,1.15,1.18,1.55,2.82,1.38,3.3-.02,.06-.06,.13-.08,.17-.02,.03-.04,.06-.07,.09-.04,0-.08,0-.12,.01-.77,.04-.96-.04-1.95-.53-.29-.17-.7-.29-.96,0-.53,.51,.03,1.07,.55,1.26,.91,.48,2.06,.77,3.06,.38,1.47-1,.73-3.16-.06-4.38"/><path class="cls-3" d="M41.22,80.78c-.15-.6-.33-1.28-.83-1.67-.54-.39-1.24,.36-.84,.88,.26,.22,.47,1.06,.55,1.41-.47,.02-.69-.1-1.34-.39-.28-.18-.68-.28-.93,0-1.03,1.24,2.06,1.87,2.85,1.58,.77-.24,.8-1.17,.55-1.81"/><path class="cls-3" d="M16.14,54.47c-.45-.97,.12-2.2,.85-2.44h.01c.09,0,.17,.03,.26,.05,.53,.23,1.36,.97,1.63-.08,.03-.23-.12-.46-.33-.56-.02-.01-.05-.02-.07-.02l-.07-.04c-.55-.27-1.15-.61-1.78-.4-1.26,.43-1.92,2-1.73,3.25,.13,.32,.14,.76,.48,.92,.42,.21,.92-.24,.74-.68"/><path class="cls-3" d="M16.18,39.89c-.01-.74,.94-2.43,1.08-2.5,.77-.56,.43-.44,1.51-.28,.05,.02,.11,.03,.16,.05,.02,0,.04,.01,.06,.02h.01c.14,.1,.28,.21,.41,.32,.19,.19,.5,.28,.74,.13,.51-.24,.36-.92-.07-1.16-.63-.56-1.52-.72-2.34-.68-1.63,.34-2.35,2.2-2.71,3.65-.32,.85,.91,1.35,1.16,.43"/><path class="cls-3" d="M22.75,42.33c.11,.06,.23,.12,.34,.18l.03,.02c.05,.04,.09,.09,.14,.13l-.02-.02,.03,.03c.15,.17,.34,.34,.59,.31,1.02-.25,.28-1.18,.08-1.33-.26-.25-.62-.36-.93-.51-1.23-.66-2.94-.25-3.67,.97-.36,.63-.92,1.49-.85,2.21,.15,.45,.83,.48,1.02,.05,.75-2.25,1.62-2.85,3.25-2.04"/><path class="cls-3" d="M28.46,34.55c.5,.38,1.14,1.56,1.83,.9,.34-.41-.03-.82-.37-1.07-.07-.06-.38-.36-.45-.43-.03-.03-.06-.06-.09-.1-.31-.44-.84-.51-1.33-.44-1.36,.12-2.56,.98-3.3,2.1-.23,.42-.66,.91-.54,1.41,.16,.48,.88,.52,1.09,.05,.73-1.93,2.55-2.49,3.17-2.43"/><path class="cls-3" d="M31.21,42.36c.03-.36,1.02-2,1.45-2.13,.02,0,.05,0,.08,0h.03s.09,.05,.12,.07c.45,.32,.56,.52,.66,.71,.09,.41,.56,.68,.93,.41,.87-.76-1.01-2.44-1.85-2.29-.58,.02-1.02,.43-1.3,.9-.49,.7-1.15,1.46-1.15,2.35,.09,.55,.94,.53,1.02-.01"/><path class="cls-3" d="M20.71,32.99c.7-1.05,2.72-1.7,3.23-1.45,.34,.17,.78-.06,.84-.43-.16-1.84-3.78-.17-4.52,.59-.23,.28-.6,.56-.59,.96,.02,.51,.72,.74,1.04,.33"/><path class="cls-3" d="M11.19,40.38c.03-1.85,1.26-3.46,1.94-3.63,.39-.12,.89,.11,1.18-.23,.31-.35,0-.94-.46-.89-1.45-.16-2.62,1.02-3.14,2.27-.25,.84-.75,1.83-.47,2.7,.25,.38,.89,.24,.95-.21"/><path class="cls-3" d="M30.28,50.64c-.44-.49-.81-1.28-1.57-1.2-.86-.03-1.84,.08-2.52,.65-.82,.7-1.23,1.93-.98,2.97,.27,.6,1.24,.32,1.17-.33,.07-1.42,.41-2.08,2.32-2.04,.22,.25,.67,.84,.76,1.18,0,.02,.01,.04,.02,.05,0,.07,.03,.17,.08,.24,.07,.16,.21,.28,.38,.32,1.37,.14,.75-1.31,.34-1.83"/><path class="cls-3" d="M38.44,51.12c.12-1.03,.46-1.59,.97-2,.11-.1,.36-.19,.45-.21,.04,0,.08-.01,.11-.02h.02s.02,0,.03,.01c.55,.24,.81,.52,.95,.64,.2,.3,.49,.67,.9,.55,1.6-.71-.84-2.38-1.74-2.49-1.51-.07-2.64,1.44-2.88,2.8-.03,.32-.18,.68,.03,.97,.3,.46,1.07,.29,1.15-.25"/><path class="cls-3" d="M32.4,60.27c-.52-.79-.98-1.81-1.94-2.13-.61-.12-1.13,.33-1.57,.7-.75,.65-1.61,1.35-1.91,2.33-.4,.9,.79,1.5,1.1,.54-.08-.67,1.72-2.11,2.13-2.34,.34,.27,.35,.34,.72,.89,.34,.56,.45,.67,.57,1.01,.07,.28,.3,.54,.6,.53,.92-.01,.67-1.02,.3-1.53"/><path class="cls-3" d="M35.73,68.34c-.9-.76-2.15-1.33-3.34-1.16-.83,.05-.73,1.35,.1,1.27,.93-.18,2.34,.65,2.53,1.05,0,.05-.02,.08-.02,.11,0,0,0,.02-.01,.03-.08,.13-.03,.06,0,0h0c-.11,.16-.21,.32-.18,.52,.02,.35,.35,.63,.7,.6,.98-.21,1.08-1.8,.23-2.43"/><path class="cls-3" d="M43.02,65.58c.33-1.1,.69-2.77-.48-3.49-.79-.44-1.66-.77-2.56-.9-.26-.04-.54-.08-.76,.09-.5,.33-.31,1.17,.28,1.26,.93,.07,1.95,.52,2.36,.78,.02,.04,.03,.08,.04,.12,.02,.13,.03,.26,.04,.39,0,.03,0,.07,0,.1-.02,.16-.08,.71-.1,.84-.04,.32-.16,.73,.11,.98,.28,.34,.89,.25,1.07-.16"/><path class="cls-3" d="M46.25,57.02c-1.02-.78-3.28-1.34-3.86-1.02-.9,.06-.79,1.47,.11,1.39,.51-.3,2.23,.27,2.83,.67,.06,.04,.12,.09,.17,.13,.01,.02,.02,.03,.03,.04,.07,.3-.05,1.3,.87,1.15,.99-.29,.55-1.93-.14-2.37"/><path class="cls-3" d="M50.88,55.16c-.49-1.42-1.66-2.81-3.1-3.32-.98-.35-1.48,1.05-.47,1.32,.55-.04,1.81,1.38,2.08,1.96,.15,.31,.17,.74,.54,.89,.53,.27,1.17-.31,.95-.86"/><path class="cls-1" d="M48.89,14.96c.23-2.11,1.35-4.85,2.46-7.37,.13-.34,.45-.67,.31-1.05-.16-.49-.91-.53-1.11-.05-1.11,2.19-1.91,4.52-2.62,6.87-.18,.76-.53,1.83-.01,2.49,.66,.45,1.15-.24,.97-.89"/><path class="cls-1" d="M88.32,59.73c-1.06-.36-3.19-1.01-4.82-.87-2.53,.22-5.1,.39-7.57,.99-.51,.23-.27,1.05,.28,.99,2.7-.52,5.47-.85,8.22-.91,.83,.02,2.69,.53,3.73,.91,.73,.14,.91-1.02,.16-1.11"/><path class="cls-1" d="M86.62,77.32c1-1.04-.94-1.36-1.72-1.68-1.58-.64-3.83-1.49-5.92-3.18-1.26-.88-2.38-1.99-3.58-2.91-.65-.25-1.18,.7-.62,1.13,2.77,2.71,6.69,5.22,9.41,6.08,.76,.23,.91,.32,1.81,.63,.21,.08,.44,.07,.62-.07"/><path class="cls-1" d="M96.46,70.83c-.42-.42-1.11-.46-1.66-.67-3.22-.64-6-1.74-9.4-2.76-.85-.17-1.1,1.17-.24,1.32,4.09,1.34,7.4,2.29,10.5,3.07,.57,.29,1.19-.44,.8-.96"/><path class="cls-1" d="M43.14,23.93c-2.03-2.05-2.42-5.63-2.86-9.27-.12-.97-.22-1.94-.22-2.92-.01-.16-.09-.3-.21-.4-.37-.33-1.01,0-.95,.49,0,1.92,.31,3.83,.57,5.74,.24,2.15,.64,4.31,1.9,6.13,.31,.48,.52,1.05,1.04,1.34,.24,.17,.45,.45,.79,.41,.96-.18,.67-1.2-.06-1.51"/><path class="cls-1" d="M56.99,23.74s.01,0,.02,0c.31-.12,.49-.42,.59-.72,1.5-2.92,2.56-6.03,3.45-9.19,.15-.78-1.08-1.02-1.22-.22-.84,2.96-1.84,5.9-3.41,8.94-.35,.14-.63,.47-.67,.84-.07,.7,.93,.93,1.24,.36"/><path class="cls-1" d="M32.66,43.01c.19-.59-.05-1.21-.11-1.81-.23-1.3-.33-2.64-.81-3.88-.7-1.65-1.63-3.22-2.75-4.61-.15-.21-.43-.34-.69-.26-.46,.07-.68,.67-.41,1.03,1.84,2.41,2.82,4.14,3.14,6.81,.17,.91,.24,1.85,.42,2.74,.22,.5,.99,.47,1.2-.02"/><path class="cls-1" d="M22.36,51.2c-2.32-1.04-4.4-3.63-5.59-5.58-.22-.39-.17-.98-.6-1.21-.44-.23-.97,.26-.79,.72,.52,1.86,1.96,3.29,3.2,4.71,.93,1.05,2.09,1.84,3.34,2.46,.22,.12,.45,.26,.7,.16,.7-.31,.35-1.08-.26-1.26"/><path class="cls-1" d="M54.28,93.61c.74-1.04-.74-1.19-.88-1.66-1.83-2.16-2.6-4.07-3.44-6.82-.27-.78-1.5-.34-1.21,.44,.77,2.64,1.89,5.2,3.72,7.28,.42,.44,1.19,1.29,1.81,.77"/><path class="cls-1" d="M68.95,82.71c-.4-.57-1.27-.98-1.78-1.53-2.05-1.44-5.09-2.14-7.56-2.41-.7,.11-.68,1.2,.02,1.31,2.46,.42,4.43,.83,6.39,1.89-.21-.17,.99,.77,1.27,1.01,.15,.13,.98,.65,.65,.44,.47,.42,1.24-.12,1.01-.71"/><path class="cls-1" d="M3.86,105.69c.14-.65,.88-1.97,1.41-2.98,3.14-5.96,5.87-10.34,10.44-15.68,2.82-3.11,5.28-5.72,8.37-8.38,1.37-1.22,2.38-2.52,3.53-3.79,.07-.06,.14-.12,.21-.17,.03-.06,.07-.11,.11-.17,.28-.3,.55-.6,.86-.89,.57-.56,.92-.85,1.7-1.61,.13-.15,.23-.27,.31-.38,1.83-1.39,3.64-2.81,5.45-4.24,.11,0,.23-.03,.32-.1,.07-.06,.38-.26,.49-.34,.96-.42,2.63-.23,3.45,.11,3.02,1.06,5.03,2.53,7.37,4.42,2.79,2.32,4.65,4.56,6.96,7.92,.27,.26,.25,1.31,1.28,.96,.39-.17,.48-.7,.24-1.03,0-.02-.01-.03-.02-.05-.57-1.25-1.57-2.24-2.32-3.38-3.59-4.45-8.1-8.61-14.04-10.32-.46-.1-.94-.15-1.43-.16,.72-.62,1.42-1.14,2.4-1.9,1.25-1.02,1.8-1.76,2.94-2.57,3.22-2.19,6.28-4.6,9.48-6.82,.24-.2,.48-.39,.71-.58,.02,.03,.03,.07,.05,.1,.64,1.01,1.46,.71,2.46,1.47,1.32,.94,4.05,2.76,6.04,3.8,2.18,.93,4.31,1.97,6.39,3.1,1.02,.5,1.96,1.17,3.03,1.58,1.28,.46,1.76,.52,2.9,1.08,.57,.23,1.15,.44,1.7,.71,.41,.3,1.04,.1,1.13-.42,.1-.55-.42-.8-.84-.98-.77-.32-1.55-.62-2.31-.97-2.17-.56-4.57-2.03-6.97-3.28-1.96-1.1-4.12-1.76-6.03-2.95-1.86-.95-5-3.53-6.22-3.66-.04-.02-.07-.05-.1-.08h0c-.02-.05-.03-.06-.02-.04-.02-.04-.06-.11-.11-.22-.01-.03-.04-.07-.06-.1,3.97-3.14,8.21-5.9,12.24-8.96,4.71-3.57,8.59-5.92,13.29-9.46,1.29-.91,2.59-1.8,3.9-2.68,.16,.03,.32,.05,.46,.06,1.88,.21,3.11,1.02,5.15,1.29,1.74,.36,2.8,.3,4.42,.48,1.72,.15,3.43,.37,5.16,.27,2.07,.06,5.05-.13,6.59-.18,.31,.07,.66-.1,.71-.43,.09-.77-.83-.66-1.35-.67-1.19,.01-2.36,.2-3.55,.14-2.84,.03-4.96,.04-7.65-.3-2.76-.14-5.2-.53-7.72-1.38-.29-.08-.6-.13-.9-.17,1.76-1.17,3.54-2.32,5.32-3.46,2.71-2.21,5.48-4.33,8.46-6.19,.33-.27,.85-.37,.97-.81,.09-.43-.45-.8-.82-.52-2.1,1.35-4.19,2.71-6.19,4.21-1.48,1.19-2.9,2.46-4.6,3.35-1.21,.8-2.43,1.59-3.65,2.38,.36-1.04,.69-2.2,1.01-3.48,.25-1.06,.18-2.17,.54-3.2,.39-1.01,1.13-3.21,1.68-4.58,.44-.89,.99-1.62,1.53-2.74,.79-1.46,2.22-3.36,3.42-4.99,.19-.48-.52-.87-.83-.46-2.94,3.73-5.06,7.25-6.41,11.35-.76,1.53-.73,3.11-1.15,5-.53,1.76-.74,2.63-1.21,3.98h0s-.04,.08-.07,.11c-2.94,1.93-5.86,3.9-8.67,6.04-3.64,2.26-7.05,4.85-10.49,7.41-3.75,2.59-7,5.03-10.36,7.54-.21-.25-.4-.48-.47-.66-.97-1.82-1.5-4.03-1.77-6.6,.16-2.82-.55-5.03-1-7.53-.43-2.61-.38-5.29-.28-7.93,.09-2,.29-4.6,.44-6.97-.08-.51-.9-.52-.97,.01-.59,6.5-1.01,13.02,.52,19.42,.17,1.27-.06,2.56,.13,3.82,.17,1.97,.91,4.94,1.6,6.08,.26,.53,.5,.89,.72,1.17-1.31,.98-2.64,1.97-4.03,2.98-2.06,1.68-4.33,3.08-6.46,4.67-1.53,1.41-3.57,3.01-5.13,4.37,.19-2.29-.55-4.13-1.52-6.2-1.01-1.84-2.53-3.34-3.49-5.21-1.18-2.12-2.36-4.75-3.5-7.33-.22-.66-1.29-.3-1.03,.37,1.38,3.08,2.7,6.23,4.53,9.08,.79,1.25,1.84,2.32,2.53,3.64,.29,.46,1.17,3.02,1.29,3.53,.14,1.49,0,2.55-.33,3.28-.03,.1-.06,.19-.11,.27-2.32,1.8-4.62,3.61-6.98,5.37-1.63,1.13-3.39,2.09-4.87,3.43-1.91,1.45-3.35,3.39-5.05,5.07-2.35,2.59-4.87,5.02-7.1,7.72-1.74,2.23-3.64,4.33-5.47,6.48-1.63,2.65-3.71,6-5.2,9.33-.66,1.46-2.48,3.65-.28,3.94,.49,.13,.86,.52,1.37,.59,1.07,.05,1.1-1.42,1.44-2.16"/><path class="cls-1" d="M76.3,26.37c.12-.17,.15-.43,.09-.65,.28-1.12,.59-2.24,.86-3.36,.18-.87,.53-1.75,.57-2.64-.02-.13-.1-.25-.22-.31-.28-.2-.71,0-.76,.33-.39,1.81-.87,3.59-1.33,5.38-.08,.26-.19,.63-.09,.89,0,.03,0,.03,0,0h0c-.04,.46,.58,.73,.87,.36"/><path class="cls-1" d="M89.02,40.21c-1.43-.38-2.95-.52-4.43-.57-.71,.08-1.76-.29-2.33,.16-.33,.37,0,1,.49,.95,2.04,0,3.38,.11,5.47,.37,.45-.02,.39,.23,.97,.16,.56-.22,.35-.95-.17-1.07"/><path class="cls-1" d="M64.6,39.53c.81-1.68,1.22-3.52,1.74-5.3,.13-.66-.91-.85-1.02-.19-.47,1.74-.84,3.15-1.42,4.58-.22,.46-.7,1.29,.12,1.4,.31,.04,.48-.25,.59-.5"/><path class="cls-1" d="M74.05,50.18c-.15-.21-.39-.26-.63-.26-1.09-.1-2.18-.2-3.28-.17-1.47,.07-2.94,.13-4.41,.24-.16,.01-.31,.09-.41,.21-.34,.38,0,1.04,.51,.98,2.84-.23,5.35-.31,7.86-.09,.41-.06,.61-.6,.36-.92"/><path class="cls-1" d="M42.33,54.34c.32-.96-.1-2.25-.08-3.29-.08-.93-.12-1.87-.29-2.8-.02-.23-.18-.45-.41-.51-.37-.15-.8,.2-.76,.6,.23,1.31,.29,2.65,.41,3.98,.09,.63,.04,1.3,.21,1.91,.15,.35,.68,.4,.91,.1"/><path class="cls-1" d="M56.96,62.47c-2.83-.77-5.73-.96-8.64-.65-.9,.06-.8,1.47,.11,1.39,2.7-.21,4.54-.3,7.06,.32,.49,.06,1,.27,1.49,.23,.69-.11,.67-1.19-.02-1.29"/></g></g></svg>