<?xml version="1.0" encoding="UTF-8"?><svg id="Capa_2" xmlns="http://www.w3.org/2000/svg" xmlns:xlink="http://www.w3.org/1999/xlink" viewBox="0 0 147.84 179.11"><defs><style>.cls-1{fill:none;}.cls-2{clip-path:url(#clippath);}.cls-3{fill:#f9b608;}.cls-4{fill:#f90;}.cls-5{fill:#9a6634;}</style><clipPath id="clippath"><path class="cls-1" d="M89.4,110.89c-2.33-.71-4.74-1.12-7.12-1.61,2.25-.32,6.89-.06,9.96-.26,4.45-.13,8.86-.98,13.28-1.52,3.31-.41,6.61-.94,9.9-1.51,3.68-.58,7.58-1.73,10.13-4.62,4.67-6.83,5.48-17.5-1.56-22.7-2.06-1.64-4.89-2.42-7.54-2.54-.31,0-.63-.01-.94-.02,3.61-1.03,7.05-2.61,10.26-4.58,2.33-1.33,4.42-3.11,6.31-4.99,1.11-1.22,2.35-2.33,3.1-3.81,.96-1.31,1.57-2.83,2.01-4.37,.32-.96,.57-1.98,.32-2.96-.7-2.99-2.82-5.73-5.54-7.17-1.7-.92-3.69-.89-5.61-.7-.28,.03-.56,.07-.84,.13,4-3.27,7.71-6.88,11.23-10.63,3.16-3.09,5.64-6.81,7.74-10.65,1.28-2.15,2.62-4.3,3.22-6.73,.64-4.27-1.59-8.44-4.14-11.66-2.03-2.77-4.88-4.89-8.1-6.17-1.74-.49-3.43-1.17-5.28-1.21-1.75-.22-3.48,.2-5.21,.52-4.62,.81-8.66,3.56-12.31,6.4-2.41,2.06-4.55,4.44-6.64,6.81-.43,.67-.83,1.36-1.2,2.06,.18-1.07,.33-2.14,.41-3.22,.22-3.03-.65-6.02-2.68-8.27C100.53,2.05,97.07-.16,93.38,0c-5.27,.53-10.41,3.28-14.02,7.16-6.08,7.49-7.7,17.2-9.63,26.24-.05,.29-.12,.63-.2,.98-.45-1.99-.57-3.7-.77-5.96-1.1-3.12-3.46-5.99-6.79-6.88-1.41-.39-3-.43-4.38,.22-1.66,1.03-3.19,2.34-4.52,3.77-1.13,1.21-1.92,2.6-2.47,4.14-.73,1.61-1.62,3.15-2.39,4.75-1.36,2.3-1.59,4.95-2.22,7.47-1.21,4.56-1.29,8.4-2.18,12.9-.39,1.39-.52,2.59-.53,3.75-.38-.83-.78-1.6-1.04-2.45-.63-2.11-1.41-4.16-2.85-5.86-.65-1.03-1.93-1.29-3.1-1.08-2.47,.28-4.43,2.31-5.88,4.18-1.75,2.63-3.02,5.56-4.19,8.46-.48,2.77-.96,5.59-.93,8.74-.2,4.35,.02,8.68,.05,13.02,.52,2.7,.84,4.64,.62,7.5-.08,2.68-.24,4.47-.96,7.02-.39,1.02-1.22,2.98-2.03,4.27-.04-1.02-.13-2.05-.1-3.07,.23-1.13,.28-4.02,.3-5.77,.02-1.23,.14-2.47,0-3.68-.15-.94-.77-1.69-1.26-2.47-1.57-2.69-4.04-5.19-7.4-5.36-3.67-.14-6.98,.08-9.76,2.33-2.91,1.71-3.03,5.35-4.09,8.17-1.35,3.33-.31,6.83,.53,10.09,1.31,7.35,5.44,13.45,8.08,19.86,1.61,2.93,2.55,7.05,3.61,10.73,.22,.81,.38,1.64,.54,2.47-.02,.49-.03,.97-.06,1.46-.11,1.19,.04,2.38-.03,3.58-.16,1.45-.29,2.28-.34,3.93-.14,2.28-.31,4.55-.05,6.81,.11,1.88,1.53,.6,1.93,.43,3.1-1.35,6.02-2.66,9.62-3.44,.32,.1,2.27-.3,3.2-.31,.89,.14,2.5,.03,3.88,.07,1.66,.04,3.32,.09,4.98,.05,1.67,.13,2.84,.26,4.73,.13,2.78-.03,5.55-.75,8.33-.38,1.61,.12,4.03-.06,5.07,.1,2.91,.48,6.18,.16,8.69-1.58,1.83-1.1,3.49-2.98,3.51-5.16-.4-2.06-2.31-3.49-4.06-4.47-2.57-1.3-5.41-1.94-8.17-2.77-.04-.01-.07-.02-.1-.04,1.27-.1,2.54-.12,3.82-.16,6.74-.61,12.51,.73,19.25,.68,3.19,.69,8.41,.13,12.19-.95,14.03-3.62,13.24-20.07-.41-22.72"/></clipPath></defs><g id="OBJECTS"><g><g><path class="cls-4" d="M89.4,110.89c-2.33-.71-4.74-1.12-7.12-1.61,2.25-.32,6.89-.06,9.96-.26,4.45-.13,8.86-.98,13.28-1.52,3.31-.41,6.61-.94,9.9-1.51,3.68-.58,7.58-1.73,10.13-4.62,4.67-6.83,5.48-17.5-1.56-22.7-2.06-1.64-4.89-2.42-7.54-2.54-.31,0-.63-.01-.94-.02,3.61-1.03,7.05-2.61,10.26-4.58,2.33-1.33,4.42-3.11,6.31-4.99,1.11-1.22,2.35-2.33,3.1-3.81,.96-1.31,1.57-2.83,2.01-4.37,.32-.96,.57-1.98,.32-2.96-.7-2.99-2.82-5.73-5.54-7.17-1.7-.92-3.69-.89-5.61-.7-.28,.03-.56,.07-.84,.13,4-3.27,7.71-6.88,11.23-10.63,3.16-3.09,5.64-6.81,7.74-10.65,1.28-2.15,2.62-4.3,3.22-6.73,.64-4.27-1.59-8.44-4.14-11.66-2.03-2.77-4.88-4.89-8.1-6.17-1.74-.49-3.43-1.17-5.28-1.21-1.75-.22-3.48,.2-5.21,.52-4.62,.81-8.66,3.56-12.31,6.4-2.41,2.06-4.55,4.44-6.64,6.81-.43,.67-.83,1.36-1.2,2.06,.18-1.07,.33-2.14,.41-3.22,.22-3.03-.65-6.02-2.68-8.27C100.53,2.05,97.07-.16,93.38,0c-5.27,.53-10.41,3.28-14.02,7.16-6.08,7.49-7.7,17.2-9.63,26.24-.05,.29-.12,.63-.2,.98-.45-1.99-.57-3.7-.77-5.96-1.1-3.12-3.46-5.99-6.79-6.88-1.41-.39-3-.43-4.38,.22-1.66,1.03-3.19,2.34-4.52,3.77-1.13,1.21-1.92,2.6-2.47,4.14-.73,1.61-1.62,3.15-2.39,4.75-1.36,2.3-1.59,4.95-2.22,7.47-1.21,4.56-1.29,8.4-2.18,12.9-.39,1.39-.52,2.59-.53,3.75-.38-.83-.78-1.6-1.04-2.45-.63-2.11-1.41-4.16-2.85-5.86-.65-1.03-1.93-1.29-3.1-1.08-2.47,.28-4.43,2.31-5.88,4.18-1.75,2.63-3.02,5.56-4.19,8.46-.48,2.77-.96,5.59-.93,8.74-.2,4.35,.02,8.68,.05,13.02,.52,2.7,.84,4.64,.62,7.5-.08,2.68-.24,4.47-.96,7.02-.39,1.02-1.22,2.98-2.03,4.27-.04-1.02-.13-2.05-.1-3.07,.23-1.13,.28-4.02,.3-5.77,.02-1.23,.14-2.47,0-3.68-.15-.94-.77-1.69-1.26-2.47-1.57-2.69-4.04-5.19-7.4-5.36-3.67-.14-6.98,.08-9.76,2.33-2.91,1.71-3.03,5.35-4.09,8.17-1.35,3.33-.31,6.83,.53,10.09,1.31,7.35,5.44,13.45,8.08,19.86,1.61,2.93,2.55,7.05,3.61,10.73,.22,.81,.38,1.64,.54,2.47-.02,.49-.03,.97-.06,1.46-.11,1.19,.04,2.38-.03,3.58-.16,1.45-.29,2.28-.34,3.93-.14,2.28-.31,4.55-.05,6.81,.11,1.88,1.53,.6,1.93,.43,3.1-1.35,6.02-2.66,9.62-3.44,.32,.1,2.27-.3,3.2-.31,.89,.14,2.5,.03,3.88,.07,1.66,.04,3.32,.09,4.98,.05,1.67,.13,2.84,.26,4.73,.13,2.78-.03,5.55-.75,8.33-.38,1.61,.12,4.03-.06,5.07,.1,2.91,.48,6.18,.16,8.69-1.58,1.83-1.1,3.49-2.98,3.51-5.16-.4-2.06-2.31-3.49-4.06-4.47-2.57-1.3-5.41-1.94-8.17-2.77-.04-.01-.07-.02-.1-.04,1.27-.1,2.54-.12,3.82-.16,6.74-.61,12.51,.73,19.25,.68,3.19,.69,8.41,.13,12.19-.95,14.03-3.62,13.24-20.07-.41-22.72"/><g class="cls-2"><g><path class="cls-3" d="M6.05,115.9c.36-.79,.68-1.6,1-2.41,.06-.16,.03-.29-.06-.39,.96-2.68,1.04-5.48,1.18-8.25,.15-1.54,.26-3.11-.06-4.6-.34-1.43-1.24-2.63-2.1-3.77-1.74-2.06-3.38-4.24-5.42-6.01-.39-.2-.84,.36-.54,.68,1.62,1.47,3,3.17,4.39,4.84,1.65,1.9,3.1,3.92,3,6.12-.27,3.46-.08,7.3-1.18,10.34-.21,.7-.64,1.45-.58,2.16h0c-.14,.35-.29,.69-.44,1.03-.06,.16-.02,.35,.11,.45,.2,.2,.6,.08,.7-.21"/><path class="cls-3" d="M23.68,81.64c1.5-3.23,3.45-6.37,4.71-9.65,2.58-6.26,3.07-12.64,2.46-18.58-.18-.6-.03-1.42-.42-1.88-.33-.2-.9,.19-.86,.6,.86,5.92,.64,12.17-1.59,18.12-1.17,3.69-3.88,8.17-5.32,11.26-.4,.46-.43,1.13,.27,.99,.39-.12,.54-.55,.74-.86"/><path class="cls-3" d="M60.14,30.58c2.06-3.54,4.18-7.3,5.02-10.83-.02-.42-.69-.36-1.03,.08-.24,.31-.18,.62-.31,.93-1.03,3-3.04,6.9-4.64,9.54-3.49,4.47-7.71,8.11-12.28,12.11-1.29,1.15-2.8,2.1-4.04,3.27-.1,.14-.15,.31-.12,.43,.02,.35,.54,.38,.9,.06,5.92-4.65,11.9-9.77,16.5-15.59"/><path class="cls-3" d="M105.77,6.8c.31-.42,.74-1.19,.04-1.45-.8-.15-.82,.7-1.28,1.24-.9,1.34-2.3,3.14-2.92,3.54-3.84,2.3-7.93,5.71-11.9,6.49-3.88,.16-7.96,1.43-10.72-3.09-.68-1-2.04-3.63-2.61-5.34-.29-.67-1.37-.16-1.04,.5,2.17,6.01,5.32,10.41,11.46,9.26,3.03,.11,6.18-.8,9.02-2.73,2.36-1.6,4.91-2.97,7.15-4.74,.98-1.19,1.99-2.37,2.79-3.69"/><path class="cls-3" d="M102.93,3.03c.39-.44,.31-1.14-.35-1.01-.64,.32-.87,1.18-1.34,1.71-2.1,3.44-5.65,4.84-9.22,6.05-2.06,.48-3.71-.9-5.13-2.95-.68-.96-1.58-2.84-2.42-4.2-.37-.37-1.12,.21-.9,.69,1.82,3.06,3.36,7.7,7.81,7.63,2.35-.37,4.64-1.66,6.83-2.72,2.05-1.24,3.47-3.23,4.72-5.18"/><path class="cls-3" d="M101.68,19.42c1.11-1.67,2.08-3.42,2.85-5.25,.1-.2,.11-.47-.07-.61-.83-.49-.97,.99-1.32,1.48-.62,1.35-1.51,2.92-2.58,4.39-2.78,3.9-6.11,7.02-10.46,9.18-3.04,1.85-6.92,3.75-9.6,3.42-2.65-.79-4.87-1.66-7.06-2.98-.63-.29-1.17-.91-1.87-.99-.39,.07-.54,.63-.2,.83,2.12,1.39,4.39,2.52,6.82,3.36,1.27,.52,2.65,.98,4.09,.62,3.16-.54,6.05-2.16,8.82-3.82,4.37-2.15,7.81-5.72,10.59-9.64"/><path class="cls-3" d="M143.58,23.48c.07-.05,.08-.05,.06-.04-.02,.01-.04,.02-.06,.04"/><path class="cls-3" d="M147.53,21.23c.19-.46-.32-.9-.76-.66-1.15,.73-2.17,1.46-3.15,1.71-.39,.11-.75,.3-1.12,.48,0,0-.01,0-.03,0-.05,0-.09,.02-.13,.03-.19,.03-.37,.05-.55,.11-3.46,1.07-6.6,2.25-9.9,1.93-4-.25-7.42-1.82-10.42-4.17,.03-.18,.02-.36-.06-.47-.14-.17-.38-.15-.55-.04-2.07-1.72-3.94-3.81-5.66-6.07-.79-.97-1.58-1.95-2.35-2.94-.05-.06-.11-.1-.18-.12-.09-.15-.19-.29-.29-.44-.11-.21-.28-.4-.4-.59-.31-.42-.53-.96-1-1.23-.59-.32-1.27,.54-.82,1.02,.42,.21,.83,1.57,1.47,1.78,.01,.02,.02,.03,.04,.05,.01,.02,.02,.03,.03,.04,0,.01,.01,.02,.02,.04,.12,.22,.2,.51,.48,.59,0,0,.02,0,.03,0,3.66,4.72,7.63,9.69,13.16,12.13-.07,.1-.13,.2-.17,.29-.62,.89-1.21,1.8-1.76,2.74-1.85,2.72-3.31,5.68-5.57,8.12-1.27,1.38-2.23,2.97-3.33,4.46-2.31,2.8-4.71,5.33-7.69,7.85-4.5,3.22-8.3,6.84-12.87,8.68-6.43,2.8-12.63,5.03-19.58,6.28-7.08,.77-14.5,1.22-20.98-.84-2.18-.76-3.96-1.74-5.5-3.39-1.34-1.24-2.54-2.65-3.92-3.83-.46-.26-1.05,.45-.67,.84,2.37,2.14,4.27,4.91,7.19,6.39,7.15,3.47,15.35,2.79,23.53,1.97,7.89-1.34,15.64-4.23,22.95-7.72,7.4-4.88,15.64-11,20.83-18.93,2.75-2.96,4.43-6.02,6.56-9.35,.6-1.07,1.31-2.07,1.96-3.12l.02-.03c1.15,.43,2.35,.76,3.64,.94,4.12,.85,8.26-.61,12.25-1.96,.3-.05,.6-.07,.88-.18,.11,0,.4-.18,.46-.21,.04-.02,.07-.04,.08-.05,.06-.02,.1-.06,.15-.09,.89-.24,1.71-.66,2.48-1.18,.37-.31,.94-.44,1.17-.88"/><path class="cls-3" d="M145.09,10.19c.35-.58-.43-1.15-.93-.7-.47,.45-1.02,.91-1.5,1.25-.48,.04-.93,.44-1.39,.6-3.12,1.42-7.71,2.51-10.57,1.01-2.82-1.22-5.34-4.53-7.81-7.26-.83-.88-1.45-1.98-2.32-2.81-.12-.06-.27-.07-.4-.01-.36,.1-.51,.6-.27,.85,2.86,3.5,5.65,7.29,9.48,9.81,3.11,1.96,8.03,1.25,11.95-.49,.43,.32,1.23-.21,1.66-.5,.72-.55,1.54-1.05,2.1-1.75"/><path class="cls-3" d="M115.26,32.46c1.44-1.52,2.82-3.09,3.86-4.9,.5-.93,.77-1.94,1.3-2.87,.16-.35,.3-.7,.44-1.06,.08-.03,.16-.07,.22-.15,.3-.45,.43-1,.62-1.5,.19-.35-.13-.77-.52-.67-.19,.05-.34,.21-.45,.4-.06,.01-.11,.02-.16,.06-.28,.27-.53,.7-.58,1.07,0,.14,.05,.24,.12,.32-.27,.61-.47,1.38-.68,1.63-1.07,2.75-2.5,4.78-4.58,6.89-2.4,2.88-5.81,5.07-9.04,7.18-2.91,1.95-5.91,3.74-9.08,5.19-3.52,1.45-6.69,3.07-10.18,3.82-2.23,.33-4.44,.53-6.67,.66-1.53,0-3.04-.28-4.57-.14-.59,.08-1.2-.44-1.31-.43-3.27-1.6-6.54-3.23-9.59-5.19-.78-.44-1.38-1.16-2.16-1.59h0s0-.07-.01-.11c-.06-.14-.17-.28-.29-.4,.18-.24,.38-.47,.55-.72,1.17-1.99,2.72-3.76,3.74-5.82,.85-1.65,1.2-3.44,1.56-5.21,.24-.56-.12-1.23-.76-.79-.31,.34-.25,.86-.38,1.27-.43,2.93-1.82,5.5-3.86,8.18-2.38,3.74-4.98,6.76-8.74,9.38-1.91,1.28-5.55,2.96-8.21,3.96-.64,.31-.22,1.29,.43,.96,3.48-1.38,7-2.88,9.98-5.23,1.78-1.48,3.44-3.15,4.91-4.95,.15,.15,.31,.29,.45,.43,.17,.18,.45,.22,.66,.1,3.3,2.67,7.9,4.76,11.3,6.49,.64,.34,1.32,.64,2.09,.47,1.31,0,2.61,.15,3.91,.2,2.53-.12,5.08-.32,7.6-.75,3.44-.89,6.72-2.45,10.01-3.85,3.24-1.47,6.29-3.34,9.26-5.33,3.03-1.95,6.81-4.51,8.81-6.99"/><path class="cls-3" d="M117.4,101.96c4.03-3.8,3.63-10.04,1.1-14.1-1.09-2.12-3.39-3.27-5.37-4.47-.57-.25-1.1-.7-1.71-.83-.36-.57-.77-1.11-1.26-1.61-1.55-1.72-3.2-3.38-5.13-4.69-.04-.03-.09-.06-.14-.09,.34-.29,.69-.59,1.04-.88,1.33-1.04,2.33-1.47,3.59-2.57,.79-.64,1.6-1.26,2.41-1.89-.02,.22,.11,.44,.36,.45,3.18-.18,6.33-1.06,9.41-2.03,2.48-.73,4.59-2.25,6.58-3.89,.79-.59,1.26-1.46,1.82-2.24,.44-.6,.96-1.16,1.33-1.82,1.65-2.91,2.44-6.55,1.08-9.5,.02-.02,.04-.03,.07-.05,.24-.24,.1-.53-.01-.77-.05-.06-.08-.55-.33-.85-.09-.1-.23-.12-.36-.09-.39-.53-.87-1.09-1.35-1.26-.2-.05-.37,.04-.48,.18h0c-.27,.05-.43,.35-.37,.59-.08,1.02-.56,1.38-.82,2.03-.62,1.29-1.12,2.1-1.98,3.37-1.4,1.98-3.28,4.07-4.64,5.57-1.18,1.24-1.92,2.4-3.05,3.34-4.78,4.18-9.72,7.84-14.59,11.42-3.84,3.42-7.99,5.61-12.49,8.25-3.09,1.65-6.13,3.19-9.21,4.48-.17-.02-.35,.03-.47,.19-1.67,.68-3.36,1.3-5.09,1.81-4.13,1.51-8.4,2.19-12.66,3.02-4.46,1.12-9.27,.95-13.32,.1-2.94-.51-5.51-1.13-7.82-2.6-3.32-1.83-6.65-3.66-9.98-5.46,.07-.14,.09-.31,.03-.45-.33-.4-.81-.68-1.24-.99,.32-.54,.64-1.07,.93-1.62,.4-.8,.78-1.6,1.15-2.42,1.81,1.34,3.66,2.67,5.61,3.81,1.34,.58,2.78,.95,4.16,1.42,7.65,2.57,16.06,2.09,24.17,.34,9.28-1.84,18.03-6.17,26.14-11.26,6.85-3.7,12.79-8.75,18.73-13.76,3.78-2.58,6.56-6.16,9.68-8.63,.93-.67,2.66-1.85,3.07-2.25,.38-.16,.73-.6,.41-.96-.29-.32-.71-.1-1.02,.14-.44,.33-.88,.67-1.33,.99-1.77,1.13-3.44,2.37-4.85,3.94-2.05,2.05-4.19,4.03-6.55,5.73-3.3,2.57-6.36,5.44-9.7,7.96-5.04,3.62-9.97,6.56-15.54,9.7-6.84,3.62-13.31,6.45-20.8,7.69-6.63,1.37-13.46,1.63-19.67,.01-2.72-.9-5.6-1.37-7.66-2.84-1.5-.95-2.93-2.05-4.4-3.04,1.49-3.44,2.66-7,3.3-10.62,.04-.22,.06-.43,.09-.64,.07,.04,.14,.08,.23,.08,.02,0,.04,0,.06,0,.09,.05,.73,.28,.86,.27,.13,0,.24-.05,.34-.12,4.69,3.43,9.5,7.01,15.26,8.55,5.68,1.54,11.78,1.04,17.71,.29,4.79-.79,9.38-2.71,13.89-4.61,5.43-2.24,10.46-5.33,15.33-8.65,8.44-5.14,16.08-11.72,21.74-19.86,1.2-1.41,1.93-3.09,2.95-4.6,1.85-2.56,2.94-5.55,4.03-8.45,.1-.22,.19-.45,.28-.68,.22-.03,.43-.19,.45-.43,.13-.87,.21-1.75,.31-2.62,0-.02,0-.05,0-.07,0,0,0-.02,0-.02h0c0-.13-.01-.25-.1-.35-.25-.31-.83-.1-.87,.31-.01,.17-.03,.32-.05,.46-.28,.32-.21,1.08-.3,1.47-.06,.46-.83,2.05-1.07,2.94-1.08,2.61-1.89,4.88-3.5,7.02-1,1.5-1.73,3.15-2.91,4.54-5.95,8.62-14.05,15.12-22.91,20.54-6.11,4.31-12.85,7.52-19.79,10.07-5.22,2.13-11.18,2.72-16.9,2.84-7.35,.14-13.29-2.49-18.9-6.47-1.8-1.14-3.47-2.48-5.21-3.68-.05-.08-.12-.17-.21-.3-.16-.17-.41-.16-.61-.05,.02-2.56-.65-5.06-.93-7.57-.38-2.42-.68-4.88-1.34-7.22-.24-.43-1-.12-.91,.38,.81,3.34,1.21,6.79,1.74,10.19,.24,1.88,.64,3.59,.42,5.23-.55,4.05-1.8,7.9-3.47,11.62-.12,.11-.19,.27-.19,.43-.68,1.47-1.42,2.93-2.22,4.37-.07,0-.15,0-.22,.03-.41,.21-.41,.5-.24,.8-.93,1.61-1.91,3.21-2.94,4.8-.39,.71-.77,1.44-1.28,2.08-.07,.1-.1,.23-.09,.35,.47,1.08,1.29-.45,1.6-.97,1-1.9,2.22-3.69,3.36-5.52,.14,.13,.28,.24,.36,.32,.02-.01,.1,.07,.2,.19,.01,.13,.08,.25,.19,.32,4.59,2.36,8.95,5.15,13.66,7.29,.64,.19,1.29,.35,1.94,.52-.12,.26-.37,.76-.25,.52-.79,1.3-1.68,2.54-2.35,3.91-3.75,7.36-10.32,13.33-17.96,17.28-3.86,1.75-8.14,2.26-12.24,2.5-.56,.06-1.09-.05-1.63-.16,1.42-3.63,2.66-7.33,3.08-11.14,.23-1.98,.45-3.96-.53-5.71-1.73-4.02-4.37-7.53-7.22-10.78-1.63-1.78-3.46-3.39-5.23-5.02-.45-.23-.99,.41-.64,.79,5.39,4.84,10.7,10.73,12.75,17.17,.23,3.98-.95,8.4-2.53,12.7-.11,.05-.21,.13-.25,.25-.19,.49-.4,1.03-.62,1.59-.07,0-.13-.02-.2-.02-.29,.14-.31,.55-.06,.69-.64,1.63-1.3,3.32-1.78,4.44-.58,.88-1.08,1.86-1.47,2.62-.08,.18-.16,.37-.25,.54-.03,.06,.07-.12,.04-.08-.08,.14-.17,.3-.11,.45,.11,.44,.82,.31,.85-.14,0-.01,0-.02,0-.03,.08-.07,.14-.2,.21-.37,.46-.07,.85-.91,1.03-1.31,.28-.44,1.14-2.11,1.48-3.05,.37-.93,.75-1.86,1.12-2.8,1.4,.24,2.85,.2,4.3,.02,3.16-.36,6.37-.85,9.39-2.05,8.18-3.95,15.42-10.38,19.48-18.53,.56-1.15,1.72-2.58,2.42-4.05,3.07,.72,6.25,1.13,9.44,1.19,1.12-.02,2.24-.15,3.35-.31-.29,.62-.55,1.26-.78,1.91-.18,.21-.23,.53-.35,.77-.24,.59-.53,1.16-.76,1.75-.85,2.77-2.61,4.99-4.29,7.62-1.95,3.08-3.93,5.52-6.39,7.99-1.67,1.92-3.47,3.7-5.75,5.37-5.29,4.1-10.07,8.1-16.28,10.57-3.03,1.16-6.97,2.12-10.49,2.94-.15,.04-.31,.08-.46,.11-.02-.05-.04-.09-.08-.14-.1-.1-.27-.13-.41-.09-1.27,.33-2.53,.67-3.79,1.04-.64,.13-.5,1.11,.14,.97,.09-.04,.21-.08,.34-.12,.13-.02,.27-.06,.4-.07,.24-.01,.85-.11,1.49-.27,.05,0,.09,.02,.15,0,4.92-1.1,9.9-2.16,14.6-4.16,3.36-1.54,6.41-3.71,9.46-5.81,3.06-2.47,6.35-4.7,9.19-7.43,2.54-2.76,5.37-5.46,7.58-8.85,1.99-3.09,4.37-6.04,5.51-9.52,.13-.5,1-1.87,.95-2.5,.22-.59,.45-1.19,.72-1.77,.06-.15,.15-.29,.19-.44,1.58-.27,3.14-.61,4.71-.91,4.01-.64,7.95-1.71,11.82-3.08,.97-.33,1.93-.68,2.88-1.05-.21,.56-.43,1.13-.63,1.69-.13,.06-.25,.14-.3,.28-.27,.61-.59,1.2-.8,1.83-.47,1.25-.9,1.89-1.49,3.15-.58,1.29-.84,2.14-1.55,3.17-4.64,7.61-10.53,13.68-16.5,19.84-3.7,3.1-7.71,6.73-11.33,9.3-4.55,2.95-9.19,5.82-13.94,8.41-6.14,2.68-12.15,4.32-18.59,6.37-.02,0-.05,.01-.08,.03-.05,.02-.1,.03-.15,.05-.08,.01-.14,.05-.2,.1-1.12,.33-3.49,.69-4.62,.81-.55,.16-.48,1.02,.08,1.02,.13,0,.46-.03,.91-.09,1.03,.11,2.25-.25,3.27-.62,.7-.19,1.28-.42,1.55-.66,7.21-2.39,14.82-4.04,21.4-8.09,3.85-2.38,7.8-4.58,11.53-7.16,4.23-3.37,8.48-6.78,12.41-10.51,5.4-5.94,11.11-11.64,15.29-18.76,1.02-1.96,1.78-3.68,2.61-5.52,.08,0,.16,0,.24-.04,.49-.69,.85-1.62,1.18-2.58,.2-.43,.4-.79,.59-.99,.31-.23,.23-.58,.01-.75,.1-.26,.2-.52,.31-.76,4.16-1.71,8.18-3.79,12.08-6.1,.03,.03,.04,.06,.08,.09,3.71,2.3,7,5.71,5.73,10.32-.24,1.18-1.03,3.34-1.75,4.43-.77,1.32-2.58,3.22-3.14,3.96-1.84,1.49-3.79,3-5.41,4.03-1.74,1.09-3.52,2.11-5.38,2.98-.81,.47-2.04,.78-2.61,1.52-.14,.34,.11,.72,.47,.73,.51-.07,.96-.49,1.44-.69,1.44-.68,2.88-1.37,4.27-2.15,2.26-1.32,4.48-2.73,6.48-4.43,.84-.56,1.6-1.19,2.19-2.01,4.73-4.95,7.08-12.52,1.55-17.07-.88-.87-1.8-1.71-2.9-2.33,1.96-1.19,3.88-2.42,5.77-3.7,.67-.45,1.3-.96,1.92-1.47,0,0,0,.01,.01,.01,3.45,2.47,7.23,5.79,7.83,9.93,.93,6.58-3.53,12.84-8.69,17.66-2,2.09-4.24,3.4-6.25,4.61-.48,.37-1.21,.48-1.53,1.01-.13,.32,.1,.67,.44,.68,.58-.12,1.1-.55,1.64-.81,1.07-.67,2.18-1.3,3.24-2,.21-.16,.41-.32,.61-.48,.24,.05,.55-.01,.8-.04,.61-.05,2.38-.38,2.45-.36,4.53-.43,9.51-1.74,12.88-5.18m10.94-47.67c.36-.58,.7-1.17,1-1.78,.23-.65,.98-1.49,1.16-2.48,.17,.17,.34,.38,.5,.6-.03,.06-.06,.11-.06,.18,.08,.56,.55,1,.74,1.53,1.38,3.2,.31,7.15-2.37,10.4-.76,1.19-1.24,1.81-2.39,2.6-1.6,1.38-3.06,2.26-5.15,3-2.07,.69-5.98,1.78-8.3,1.99-.32,.06-.67,.03-1,.08,1.91-1.46,3.83-2.92,5.65-4.49,.17,.21,.58,.21,.92,.02,1.12-.38,3.23-.53,4.77-1.06,1.05-.36,2.06-.98,2.96-1.65,1.25-1.17,1.94-2.8,2.04-4.43,.1-1.42,0-2.84-.22-4.21-.02-.15-.13-.25-.25-.32m-.69,1.06c.93,6.43-1.41,8.58-8.32,9.53-.01,0-.03,0-.04,.01,.72-.66,1.42-1.35,2.09-2.07,1.94-2.33,4.36-4.74,6.27-7.48m-13.28,47.62c-1.02,.59-2.14,.99-3.18,1.53-1.87,.77-4.31,1.34-6.7,1.55-.57,.06-1.13,.16-1.69,.25,2.84-2.46,5.36-5.32,7.47-8.39,2.54-4.2,3.68-9.56,1.94-13.82,2.44,1.33,4.72,2.66,5.65,4.87,1.81,3.34,1.85,7.41,.15,10.36-.76,1.34-2.63,2.95-3.63,3.65"/><path class="cls-3" d="M56.29,150.71c-.04-.38-.27-.74-.41-1.1-.34-.6-.61-1.23-.96-1.82-2.04-3.21-7.15-5.72-11.2-6.16-4.26-.98-8.54,.16-11.48,2.96-1.02,.92-2.03,1.87-2.88,2.97-.05,.08-.07,.19-.04,.3,.08,.36,.57,.49,.75,.2,2.36-2.86,5.71-5.66,9.75-5.84,1.95-.11,5.27,.62,7.15,1.13,2.02,.7,4.3,2.18,5.55,3.3,1.32,1.3,1.39,1.59,2.27,3.18,.3,.42,.31,1.1,.81,1.34,.34,.14,.71-.09,.7-.45"/><path class="cls-3" d="M50.56,148.75c.1-1.24-1.21-1.9-2.02-2.59-1.5-1.14-3.55-1.69-5.52-1.27-.97,.19-1.79,.83-2.66,1.29-1.03,.57-1.97,1.29-2.92,1.98-.11,.09-.18,.23-.2,.37-.07,.46,.52,.74,.88,.41,1.46-1.1,3.41-2.36,4.79-2.93,1.71-.42,3.16-.05,4.57,.8,.71,.54,1.45,1.06,1.78,1.48,.07,.18,.3,.68,.38,.72,.26,.27,.78,.1,.91-.27"/><path class="cls-3" d="M101.28,120.94c-.33-.55-.54-1.17-.94-1.68-.43-.46-.81-.95-1.22-1.42-3.8-3.92-9.26-4.68-13.84-4.36-6.48,1.64-13.42,6.02-18.24,11.26-2.41,2.59-4.54,5.47-6.2,8.61-.34,.52,.5,1.14,.85,.59,4.94-9.26,13.73-16.38,23.31-19.17,1.8-.44,5.44,0,7.47,.49,1.88,.38,4.26,1.87,5.76,3.34,.54,.68,1.2,1.34,1.39,1.73,.43,.68,.91,2.79,1.98,2.1,.56-.7-.16-.97-.32-1.5"/><path class="cls-3" d="M97.14,124.12c-1.26-1.12-2.86-1.7-4.45-2.14-3.18-.93-5.98-1.2-8.97-.56-5.35,1.2-10.97,4.06-14.49,8.29-1.21,1.44-2.55,3.16-2.95,4.64,.08,.43,.67,.56,.9,.2,1.36-2.93,4.38-6.31,7.09-8.06,3.11-1.79,6.19-3.25,9.45-3.89,3.91-.85,7.83,.06,11.05,1.54,1.88,1.06,2.7,2.14,3.65,3.96,.13,.31,.38,.62,.74,.64,2.11-.07-1.09-3.83-2.03-4.63"/><path class="cls-3" d="M93.72,131.49c-2.2-4.94-9.85-3.48-14.2-1.32-2.24,1.15-4.4,2.49-6.51,3.88-.38,.31-1.01,.5-1.09,1.03-.08,.56,.63,.89,1.07,.49,2.76-1.82,7.13-4.67,10.42-5.48,3.41-.93,7.65-.61,8.67,1.52,.28,.33,.28,.85,.58,1.14,.84,.59,1.57-.5,1.05-1.25"/><path class="cls-5" d="M78.04,113.93c-.07-.08-.13-.11,0,0"/><path class="cls-5" d="M78.04,113.93h0"/></g></g></g><g><path class="cls-5" d="M76.47,89.35c7.39,4.13,16.25,5.41,24.93,5.37,4.84-.1,9.61-1.36,14.36-2.5,.34-.09,.74-.1,.96-.42,.22-.3,.14-.74-.15-.92-.89-.25-1.94,.37-2.88,.48-4.61,1.16-8.89,2.07-13.22,2.05-7.74-.07-15.62-1.36-21.87-4.39-2.29-1.19-4.51-2.53-6.54-4.08-.82-.57-1.11-1.08-2.23-1.57-2.55-.99-5.03-2.38-7.8-2.75,3.4-3.53,6.95-6.91,10.97-9.72,2.88-2.05,5.69-4.17,8.53-6.28,3.36-.17,6.32,.76,9.74,1.48,3.19,.78,6.06,1.23,9.05,1.6,4.69,.33,8.67,.28,13.4-.7,4.89-.92,10.18-2.64,13.87-5.41,.68-.3,1.12-1.03,.32-1.41-.82-.06-1.64,.9-2.37,1.29-3.52,2.26-7.63,3.42-12.18,4.34-5.08,1.03-10.11,1.13-14.94,.43-4.42-.49-8.44-1.82-13.09-2.52-.73-.14-1.47-.24-2.22-.27,.77-.56,1.53-1.13,2.3-1.68,4.1-2.78,9.78-6.63,14.17-10.07,2.11-1.81,4.35-3.53,6.26-5.56,2.23-2.7,4.17-4.71,6.62-7.18,3.39-3.5,6.33-7.4,9.03-11.41,.3-.59,.88-1.09,.97-1.72-.05-.4-.63-.51-.86-.15-3.84,6.05-8.07,11.16-13.18,16-2.32,2.82-4.96,5.54-8.22,8.17-4.92,4.05-10.88,7.94-15.69,11.23-.69,.5-1.37,1-2.06,1.5,.22-1.11,.39-2.56,.7-3.52,.56-2.58,.48-4.5,.73-6.93,.05-1.15,.26-2.29,.45-3.43,.04-.94,.04-1.88,.11-2.83,.44-3.55,.91-7.81,1.49-10.9,1.03-5.43,3.12-11.78,5.8-17.52,.14-.44,.59-.88,.46-1.33-.15-.34-.72-.31-.85,.08-3.72,7.74-6.17,15.62-7.21,23.7-.44,2.96-.84,5.93-.96,8.9-.55,2.45-.56,4.94-.82,7.41-.15,1.89-.49,2.99-.87,4.77-.17,.82-.14,1.54-.34,1.99-.05,.13-.08,.26-.09,.39,0,0-.02,.02-.02,.03-.02,.07-.05,.12-.08,.17-.06,0-.11,0-.17,.02-.15,.04-.28,.16-.34,.29-.04,.07-.06,.15-.06,.23-2.62,1.95-5.22,3.91-7.88,5.81-4.05,2.85-7.67,6.25-11.1,9.81,.23-.92,.43-2.27,.66-3.88-.14-2.32-.22-3.87-.3-5.6-1.06-5.5-2.21-10.98-3.06-16.53-.57-4.69,.32-9.51,.98-14.53,.2-1.43,.44-2.27,.75-3.58,.02-.52-.8-.62-.97-.1-.98,3.5-1.26,7.1-1.7,10.65-.36,3.39-.53,6.13,.09,9.32,.67,5.18,2.16,11.22,2.71,15.83-.03,.87,.18,3.65,.25,4.43-.33,2.42-.6,3.97-.99,5.33-.02,.07-.05,.16-.06,.2-.07,.12-.17,.23-.19,.37h0c-.34,.38-.69,.75-1.03,1.12-4.04,4.17-7.23,9.07-10.58,13.77-2.24,3.38-4.04,6.54-5.92,9.77-.04-.76-.18-1.51-.3-2.25-.47-3.19-1.15-6.33-2.24-9.33-1.41-4.61-2.84-8.92-3.88-13.89-.59-3.62-.23-6.93-.05-10.8,.1-1.62,.35-3.26,.45-4.87-.12-.52-.99-.41-1.03,.16-.59,5.67-1.31,11.52-.24,17.05,1.4,5.76,3.15,11.32,4.72,16.51,.61,2.36,.87,4.82,1.34,7.21,.12,.68-.05,1.58,.02,2.1,0,.02,0,.02,0,.03-.03,.1-.07,.21-.09,.31-.01,.02-.03,.04-.04,.06-1.65,2.55-3.39,4.95-4.49,7.29-1.73,2.8-3.2,6.07-4.6,8.43-2.5,3.47-4.62,7.17-6.99,10.72-.42,.68-.84,1.37-1.25,2.05,.09-.77,.02-1.53-.16-2.29-.43-3.03-1.54-5.85-2.92-8.49-1.95-5.75-5.78-8.99-7.74-14.43-1.24-3.33-1.75-6.8-1.79-10.72-.11-1.42,0-3.02-.04-4.77-.12-.54-1.03-.42-1.07,.16-.28,7.31,.32,14.82,4.24,20.9,.84,1.52,2.27,3.39,2.88,4.4,1.03,1.81,1.68,3.81,2.57,5.69,1.63,3.02,2.28,5.62,2.75,8.94,0,.01,0,.02,0,.04-.2,1.13-.25,2.05-.5,2.76-.12,.52-.22,.32-.49,1.01-.06,.34-.32,.84-.44,1.18l-.03,.04c-.18,.11-.33,.24-.44,.42-.04,.09-.03,.18-.02,.27-.64,.82-1.75,1.86-2.58,3.11-2.29,3.44-4.72,6.79-6.85,10.34-1.1,2.18-1.86,4.49-2.77,6.74-1.56,4.26-2.22,8.47-3.05,12.18-.31,1.14-.33,2.32-.56,3.06-.17,.57-.36,1.44,.43,1.49,.69,0,.78-.69,.86-1.22,.36-1.05,.28-2.42,.71-3.69,.96-4.9,1.77-8.97,3.85-14.01,1.01-2.82,1.95-4.62,3.67-7.06,1.79-2.87,3.75-5.66,5.75-8.4,.73-.72,1.41-1.6,2.06-2.55,9.28-4.97,19.19-1.12,28.42,2.44,.75,.13,1.68,.67,2.43,.48,.77-.49,.27-1.25-.48-1.26-3.52-.92-7.01-2.57-10.68-3.6-5.91-1.71-12.51-2.52-18.54,.16,1.16-1.89,2.29-3.93,3.53-5.72,2.1-3.34,4.16-6.69,6.44-9.92,1.7-3.12,2.79-5.51,4.62-8.53,1.12-2.38,2.45-4.16,4.04-6.59,2.82-4.77,5.1-9.09,8.28-13.86,2.7-3.6,5.54-7.97,8.2-10.94,.98-1.05,1.96-2.1,2.95-3.14,2.74-.03,6.33,1.93,8.68,2.9,1.8,1.38,4.39,3.39,6.84,4.74"/><path class="cls-5" d="M76,115.9c-.02-.05-.06-.11-.1-.15-2.98-2.26-7-2.88-10.69-3.57-3.72-.24-7.51,.04-11.26,.33-.81-.04-.97,1.24-.14,1.26,4.87-.31,9.85-.88,14.11,.24,2.74,.68,5.07,1.21,7.11,2.7,.48,.39,1.25-.25,.98-.8"/><path class="cls-5" d="M113.11,22.97c.56-.99,1.74-2.98,2.55-4.39,.3-.54,.28-.48,.81-.89,2.18-1.94,5.05-4.43,7.06-5.76,.52-.46,1.58-.8,1.8-1.45,.06-.43-.5-.7-.83-.39-2.88,1.83-5.85,4.3-8.67,6.84-.42,.29-.79,.64-1.01,1.1-.82,1.41-1.63,2.82-2.46,4.22-.19,.41-.57,.89-.43,1.34,.13,.3,.55,.37,.81,.14,.22-.2,.25-.52,.39-.77"/><path class="cls-5" d="M133.47,29.48c1.48-2.8,1.5-6.01,2.18-9,.29-1.66,.59-3.33,.64-5,.03-.23-.09-.47-.31-.55-.34-.19-.84,.11-.87,.51-.14,3.11-.87,6.2-1.4,9.29-.26,1.68-.73,3.69-1.32,4.34-.35,.75,.66,1.09,1.08,.42"/><path class="cls-5" d="M81.76,28c-.02-.1-.06-.19-.12-.26,.03,.05,.04,.07,.04,.07,.02,.03,.01,.02,0,0,0-.01-.11-.19-.13-.28,.01-.65-.43-1.26-.11-2.39,.62-3.51,1.13-6.86,2.1-9.94,.16-.78,.96-1.56,.8-2.33-.2-.5-1.01-.43-1.2,.11-1.57,3.19-1.94,6.7-2.61,10.09-.23,1.36-.63,3.47-.16,4.24,.09,.47,.14,1.05,.58,1.31,.37,.2,.88-.2,.81-.62"/><path class="cls-5" d="M53.41,46.14s-.04-.05-.06-.07c0-.02-.02-.03-.03-.05-.84-2.18-1.53-5.25-2.12-8-.1-.75-1.32-.49-1.19,.26,.5,2.41,1.09,4.8,1.81,7.14,.24,.68,.45,1.74,1.34,1.78,.58-.03,.74-.85,.25-1.06"/><path class="cls-5" d="M67.11,48.58c2.12-3.15,4.3-6.28,6.19-9.56,.45-.63-.51-1.25-.94-.61-1.86,3.24-4.02,6.32-6.1,9.43-.19,.33-.58,.64-.53,1.04,.27,.87,1.09,.32,1.38-.31"/><path class="cls-5" d="M47.23,66.19c.47-1.01,1.19-1.99,1.49-3.04,.03-.72-1.08-.82-1.32-.13-1.15,2.29-2.05,3.97-3.47,6.32-.43,.55,.18,1.29,.8,.97,1.08-1.16,1.67-2.77,2.51-4.12"/><path class="cls-5" d="M29.72,73.46c-.54-2.68-1.04-5.4-1.57-8.06-.34-.61-1.38-.16-1.25,.53,.47,3.33,1.34,6.56,1.84,9.88,.02,.29,.21,.58,.52,.61,1.51,.04,.48-2.15,.46-2.96"/><path class="cls-5" d="M16.05,101.45c.08-1.3,.19-2.59,.3-3.88-.02-.71,.34-1.56,.04-2.19-.3-.37-.99-.12-1.03,.37-.16,1.93-.35,3.86-.43,5.79-.07,.37,.26,.7,.64,.61,.32-.06,.51-.39,.49-.7"/><path class="cls-5" d="M5.68,102.76c-1.35-3.03-3.11-6.19-3.75-8.99-.03-1.12-1.41-1.22-1.44-.07,.7,3.24,2.33,6.1,3.66,9.07,.37,.72,.64,1.53,1.13,2.17,.12,.12,.3,.18,.47,.15,1.34-.31,.18-1.64-.07-2.33"/><path class="cls-5" d="M123.88,56.56c-1.75,.95-3.45,2-5.2,2.95-.47,.19-.49,.89-.02,1.02,.55,.08,1.04-.46,1.54-.67,1.38-.76,2.72-1.59,4.11-2.32,.67-.32,.22-1.31-.44-.98"/><path class="cls-5" d="M123.04,69.02c-.53-.21-1.17,.08-1.74,.09-1.32,.23-2.71,.22-3.99,.6-.59,.35-.24,1.28,.41,1.11,1.68-.25,3.37-.45,5.05-.71,.52-.1,.7-.83,.27-1.09"/><path class="cls-5" d="M115.97,83.07c-3.37,1.78-6.75,3.56-10.13,5.33-.31,.18-.71,.42-.68,.82-.02,.49,.63,.73,1,.39,.02-.01,.03-.03,.04-.05,3.42-1.79,6.85-3.58,10.26-5.38,.76-.36,.25-1.51-.5-1.12"/><path class="cls-5" d="M113.93,100.22c-.38-.33-.99-.24-1.47-.39-3.35-.43-6.72-.78-10.08-1.14-.83-.04-.98,1.26-.14,1.29,3.72,.3,8.33,1.03,11.45,1.21,.37-.18,.49-.68,.24-.97"/><path class="cls-5" d="M83.9,128.34c-4.87-1.09-9.31-3.24-13.93-4.96-1.48-.54-2.21-.92-3.67-1.57-.62-.14-1.05,.8-.51,1.12,2.89,1.44,5.99,2.45,8.99,3.68,3.01,1.1,6.07,2.65,9.31,2.89,.58-.28,.42-1.14-.19-1.16"/><path class="cls-5" d="M42.47,132.52c-2.21,.11-4.43,.19-6.63,.55-.42,.12-.96,.05-1.24,.43-.32,.43,.07,1.04,.59,.91,3.28-.61,6.05-.65,9.5-.71,.45-.04,.99,.17,1.39-.14,1.28-1.65-2.78-.94-3.6-1.04"/></g></g></g></svg>